<svg width="13" height="17" viewBox="0 0 13 17" fill="none" xmlns="http://www.w3.org/2000/svg">
<g clip-path="url(#clip0_627_287)">
<path d="M0.714338 0C0.619945 0.0116475 0.532943 0.0559563 0.469101 0.124897C0.405259 0.193837 0.368801 0.282847 0.366333 0.375797V16.1593C0.369692 16.2579 0.411283 16.3516 0.482683 16.4214C0.554082 16.4911 0.649951 16.5318 0.750869 16.5351H12.287C12.3879 16.5318 12.4837 16.4911 12.5551 16.4214C12.6265 16.3516 12.6681 16.2579 12.6715 16.1593V3.00637C12.6705 2.90531 12.6299 2.80847 12.5581 2.7358L9.8663 0.105223C9.79292 0.0377218 9.69598 9.32232e-05 9.5952 0H0.714338ZM1.13541 0.751594H9.21067V3.00637C9.21403 3.105 9.25562 3.19869 9.32702 3.26847C9.39842 3.33824 9.49428 3.37889 9.5952 3.38217H11.9024V15.7835H1.13541V0.751594ZM9.97974 1.27959L11.3621 2.63058H9.97974V1.27959ZM2.44475 2.06688C2.35036 2.07853 2.26336 2.12284 2.19951 2.19178C2.13567 2.26072 2.09921 2.34973 2.09675 2.44268V3.57007C2.1001 3.66869 2.1417 3.76238 2.2131 3.83216C2.2845 3.90194 2.38036 3.94258 2.48128 3.94587H3.63489C3.73581 3.94258 3.83168 3.90194 3.90308 3.83216C3.97448 3.76238 4.01607 3.66869 4.01943 3.57007V2.44268C4.01607 2.34405 3.97448 2.25036 3.90308 2.18059C3.83168 2.11081 3.73581 2.07016 3.63489 2.06688H2.44475ZM5.3653 2.63058C5.26332 2.63058 5.16551 2.67017 5.0934 2.74065C5.02128 2.81112 4.98077 2.90671 4.98077 3.00637C4.98077 3.10604 5.02128 3.20163 5.0934 3.2721C5.16551 3.34258 5.26332 3.38217 5.3653 3.38217H8.44159C8.54358 3.38217 8.64139 3.34258 8.7135 3.2721C8.78562 3.20163 8.82613 3.10604 8.82613 3.00637C8.82613 2.90671 8.78562 2.81112 8.7135 2.74065C8.64139 2.67017 8.54358 2.63058 8.44159 2.63058H5.3653ZM2.86582 2.81848H3.25035V3.19427H2.86582V2.81848ZM2.44475 4.69746C2.35036 4.70911 2.26336 4.75342 2.19951 4.82236C2.13567 4.8913 2.09921 4.98031 2.09675 5.07326V6.20065C2.1001 6.29927 2.1417 6.39296 2.2131 6.46274C2.2845 6.53252 2.38036 6.57316 2.48128 6.57644H3.63489C3.73581 6.57316 3.83168 6.53252 3.90308 6.46274C3.97448 6.39296 4.01607 6.29927 4.01943 6.20065V5.07326C4.01607 4.97463 3.97448 4.88094 3.90308 4.81117C3.83168 4.74139 3.73581 4.70074 3.63489 4.69746H2.44475ZM5.3653 5.26116C5.26332 5.26116 5.16551 5.30075 5.0934 5.37122C5.02128 5.4417 4.98077 5.53728 4.98077 5.63695C4.98077 5.73662 5.02128 5.83221 5.0934 5.90268C5.16551 5.97316 5.26332 6.01275 5.3653 6.01275H10.5565C10.6585 6.01275 10.7563 5.97316 10.8285 5.90268C10.9006 5.83221 10.9411 5.73662 10.9411 5.63695C10.9411 5.53728 10.9006 5.4417 10.8285 5.37122C10.7563 5.30075 10.6585 5.26116 10.5565 5.26116H5.3653ZM2.86582 5.44905H3.25035V5.82485H2.86582V5.44905ZM2.44475 7.32804C2.35036 7.33968 2.26336 7.38399 2.19951 7.45293C2.13567 7.52187 2.09921 7.61088 2.09675 7.70383V8.83122C2.1001 8.92985 2.1417 9.02354 2.2131 9.09332C2.2845 9.16309 2.38036 9.20374 2.48128 9.20702H3.63489C3.73581 9.20374 3.83168 9.16309 3.90308 9.09332C3.97448 9.02354 4.01607 8.92985 4.01943 8.83122V7.70383C4.01607 7.60521 3.97448 7.51152 3.90308 7.44174C3.83168 7.37197 3.73581 7.33132 3.63489 7.32804H2.44475ZM5.3653 7.89173C5.26332 7.89173 5.16551 7.93132 5.0934 8.0018C5.02128 8.07228 4.98077 8.16786 4.98077 8.26753C4.98077 8.3672 5.02128 8.46278 5.0934 8.53326C5.16551 8.60373 5.26332 8.64333 5.3653 8.64333H10.5565C10.6585 8.64333 10.7563 8.60373 10.8285 8.53326C10.9006 8.46278 10.9411 8.3672 10.9411 8.26753C10.9411 8.16786 10.9006 8.07228 10.8285 8.0018C10.7563 7.93132 10.6585 7.89173 10.5565 7.89173H5.3653ZM2.86582 8.07963H3.25035V8.45543H2.86582V8.07963ZM2.44475 9.95862C2.35036 9.97026 2.26336 10.0146 2.19951 10.0835C2.13567 10.1525 2.09921 10.2415 2.09675 10.3344V11.4618C2.1001 11.5604 2.1417 11.6541 2.2131 11.7239C2.2845 11.7937 2.38036 11.8343 2.48128 11.8376H3.63489C3.73581 11.8343 3.83168 11.7937 3.90308 11.7239C3.97448 11.6541 4.01607 11.5604 4.01943 11.4618V10.3344C4.01607 10.2358 3.97448 10.1421 3.90308 10.0723C3.83168 10.0025 3.73581 9.9619 3.63489 9.95862H2.44475ZM5.3653 10.5223C5.26332 10.5223 5.16551 10.5619 5.0934 10.6324C5.02128 10.7029 4.98077 10.7984 4.98077 10.8981C4.98077 10.9978 5.02128 11.0934 5.0934 11.1638C5.16551 11.2343 5.26332 11.2739 5.3653 11.2739H10.5565C10.6585 11.2739 10.7563 11.2343 10.8285 11.1638C10.9006 11.0934 10.9411 10.9978 10.9411 10.8981C10.9411 10.7984 10.9006 10.7029 10.8285 10.6324C10.7563 10.5619 10.6585 10.5223 10.5565 10.5223H5.3653ZM2.86582 10.7102H3.25035V11.086H2.86582V10.7102ZM2.44475 12.5892C2.35036 12.6008 2.26336 12.6451 2.19951 12.7141C2.13567 12.783 2.09921 12.872 2.09675 12.965V14.0924C2.1001 14.191 2.1417 14.2847 2.2131 14.3545C2.2845 14.4242 2.38036 14.4649 2.48128 14.4682H3.63489C3.73581 14.4649 3.83168 14.4242 3.90308 14.3545C3.97448 14.2847 4.01607 14.191 4.01943 14.0924V12.965C4.01607 12.8664 3.97448 12.7727 3.90308 12.7029C3.83168 12.6331 3.73581 12.5925 3.63489 12.5892H2.44475ZM5.3653 13.1529C5.26332 13.1529 5.16551 13.1925 5.0934 13.263C5.02128 13.3334 4.98077 13.429 4.98077 13.5287C4.98077 13.6284 5.02128 13.7239 5.0934 13.7944C5.16551 13.8649 5.26332 13.9045 5.3653 13.9045H10.5565C10.6585 13.9045 10.7563 13.8649 10.8285 13.7944C10.9006 13.7239 10.9411 13.6284 10.9411 13.5287C10.9411 13.429 10.9006 13.3334 10.8285 13.263C10.7563 13.1925 10.6585 13.1529 10.5565 13.1529H5.3653ZM2.86582 13.3408H3.25035V13.7166H2.86582V13.3408Z" fill="black"/>
</g>
<defs>
<clipPath id="clip0_627_287">
<rect width="12.3052" height="16.5351" fill="white" transform="translate(0.366333)"/>
</clipPath>
</defs>
</svg>
