<svg width="15" height="17" viewBox="0 0 15 17" fill="none" xmlns="http://www.w3.org/2000/svg">
<path d="M12.9443 3.7868H9.87915V2.85787C9.87915 2.36513 9.71768 1.89257 9.43027 1.54416C9.14287 1.19574 8.75306 1 8.3466 1H6.81405C6.40759 1 6.01778 1.19574 5.73037 1.54416C5.44296 1.89257 5.28149 2.36513 5.28149 2.85787V3.7868H2.21639C1.80993 3.7868 1.42012 3.98254 1.13271 4.33096C0.845303 4.67938 0.683838 5.15193 0.683838 5.64467V14.0051C0.683838 14.4978 0.845303 14.9704 1.13271 15.3188C1.42012 15.6672 1.80993 15.8629 2.21639 15.8629H12.9443C13.3507 15.8629 13.7405 15.6672 14.0279 15.3188C14.3153 14.9704 14.4768 14.4978 14.4768 14.0051V5.64467C14.4768 5.15193 14.3153 4.67938 14.0279 4.33096C13.7405 3.98254 13.3507 3.7868 12.9443 3.7868ZM6.04777 2.85787C6.04777 2.6115 6.1285 2.37522 6.27221 2.20101C6.41591 2.0268 6.61082 1.92893 6.81405 1.92893H8.3466C8.54983 1.92893 8.74473 2.0268 8.88844 2.20101C9.03214 2.37522 9.11287 2.6115 9.11287 2.85787V3.7868H6.04777V2.85787ZM13.7105 14.0051C13.7105 14.2514 13.6298 14.4877 13.4861 14.6619C13.3424 14.8361 13.1475 14.934 12.9443 14.934H2.21639C2.01316 14.934 1.81826 14.8361 1.67455 14.6619C1.53085 14.4877 1.45011 14.2514 1.45011 14.0051V5.64467C1.45011 5.3983 1.53085 5.16202 1.67455 4.98781C1.81826 4.81361 2.01316 4.71574 2.21639 4.71574H12.9443C13.1475 4.71574 13.3424 4.81361 13.4861 4.98781C13.6298 5.16202 13.7105 5.3983 13.7105 5.64467V14.0051Z" fill="white" stroke="black" stroke-width="0.7" stroke-miterlimit="10"/>
<path d="M9.94046 6.77801L7.13589 11.8779L5.93283 10.4287C5.89844 10.3843 5.85689 10.3489 5.81076 10.3247C5.76463 10.3005 5.7149 10.288 5.66464 10.288C5.61437 10.288 5.56464 10.3005 5.51851 10.3247C5.47238 10.3489 5.43084 10.3843 5.39644 10.4287C5.32672 10.514 5.2876 10.6292 5.2876 10.7492C5.2876 10.8693 5.32672 10.9844 5.39644 11.0697L6.92899 12.9276C6.9632 12.9722 7.00474 13.0076 7.05093 13.0316C7.09712 13.0556 7.14694 13.0676 7.19719 13.0669H7.2355C7.29167 13.0577 7.34573 13.0348 7.39444 12.9997C7.44316 12.9646 7.48553 12.918 7.51902 12.8625L10.5841 7.28893C10.6128 7.2383 10.633 7.18132 10.6435 7.12125C10.654 7.06117 10.6547 6.99917 10.6454 6.93879C10.6362 6.87841 10.6172 6.82083 10.5896 6.76933C10.562 6.71784 10.5263 6.67344 10.4845 6.63867C10.4428 6.6039 10.3958 6.57945 10.3462 6.5667C10.2966 6.55396 10.2455 6.55317 10.1957 6.56438C10.1459 6.57559 10.0984 6.59859 10.0559 6.63206C10.0134 6.66553 9.9768 6.70881 9.94812 6.75943L9.94046 6.77801Z" fill="white" stroke="black" stroke-width="0.7" stroke-miterlimit="10"/>
</svg>
