<svg width="16" height="18" viewBox="0 0 16 18" fill="none" xmlns="http://www.w3.org/2000/svg">
<g clip-path="url(#clip0_627_256)">
<path d="M15.3526 6.46903L5.58583 2.57899C5.7849 2.35198 5.91255 2.0714 5.95281 1.77234C5.99307 1.47328 5.94416 1.16899 5.81219 0.897541C5.68021 0.626088 5.47104 0.399507 5.21082 0.246128C4.95059 0.0927494 4.65087 0.0193788 4.34911 0.0351899C4.04736 0.0510009 3.75696 0.155292 3.51424 0.335024C3.27152 0.514755 3.08724 0.761952 2.98444 1.04571C2.88164 1.32946 2.86488 1.63718 2.93626 1.9304C3.00764 2.22361 3.16399 2.48931 3.38576 2.69427V15.8517C1.84889 16.0189 0.393494 16.5863 0.393494 17.5424C0.393494 17.6323 0.429264 17.7186 0.492936 17.7822C0.556607 17.8457 0.642964 17.8815 0.73301 17.8815H8.12767C8.21771 17.8815 8.30407 17.8457 8.36774 17.7822C8.43141 17.7186 8.46719 17.6323 8.46719 17.5424C8.46719 16.584 7.00953 16.0189 5.47492 15.8517V11.0485L15.3526 7.10644C15.4159 7.08145 15.4702 7.03801 15.5085 6.98178C15.5468 6.92555 15.5673 6.85912 15.5673 6.79112C15.5673 6.72312 15.5468 6.65669 15.5085 6.60046C15.4702 6.54423 15.4159 6.5008 15.3526 6.47581V6.46903ZM4.35904 15.7974H4.09196H4.06479V3.06044L4.14401 3.074L4.21192 3.08531C4.28011 3.09581 4.34891 3.10185 4.41789 3.10339H4.44732C4.51479 3.10382 4.58218 3.09853 4.64876 3.08757L4.71893 3.07626C4.74383 3.07626 4.77099 3.07626 4.79589 3.0627V15.8042C4.70535 15.8042 4.60576 15.8042 4.50617 15.8042L4.35904 15.7974ZM4.44279 0.707434C4.5674 0.706895 4.69063 0.733401 4.80397 0.785118C4.91731 0.836835 5.01804 0.912528 5.0992 1.00696C5.18035 1.10139 5.23999 1.2123 5.27399 1.33202C5.30798 1.45173 5.31553 1.5774 5.29609 1.70031C5.27666 1.82323 5.23071 1.94046 5.16143 2.04389C5.09215 2.14733 5.00119 2.23449 4.89485 2.29936C4.78851 2.36422 4.66933 2.40524 4.54555 2.41957C4.42177 2.4339 4.29635 2.42119 4.17797 2.38234C4.09116 2.355 4.00937 2.31377 3.93578 2.26028C3.78914 2.15346 3.6801 2.00305 3.62426 1.83059C3.56843 1.65812 3.56866 1.47243 3.62493 1.3001C3.68119 1.12777 3.79061 0.977633 3.93751 0.871178C4.08442 0.764723 4.26128 0.707407 4.44279 0.707434ZM1.31698 17.2079C1.69724 16.9095 2.53244 16.5953 3.75697 16.5049H3.82034L4.04669 16.4913H4.13496H4.31604H4.51975H4.72346H4.7823C4.87058 16.4913 4.95206 16.4914 5.03355 16.5049H5.09692H5.11956C6.33729 16.5953 7.16797 16.9073 7.54597 17.2056L1.31698 17.2079ZM5.47492 10.3116V3.26387L14.3182 6.79225L5.47492 10.3116Z" fill="black" stroke="black" stroke-width="0.25" stroke-miterlimit="10"/>
</g>
<defs>
<clipPath id="clip0_627_256">
<rect width="15.2284" height="17.9086" fill="white" transform="translate(0.366333)"/>
</clipPath>
</defs>
</svg>
