<svg width="14" height="20" viewBox="0 0 14 20" fill="none" xmlns="http://www.w3.org/2000/svg">
<path d="M6.77493 1C5.28902 1 3.86398 1.71171 2.81328 2.97857C1.76259 4.24543 1.17231 5.96366 1.17231 7.75526C1.17231 9.74211 2.5499 12.1263 3.88299 14.0913C4.15653 14.4887 4.42513 14.8701 4.68548 15.2258C3.78164 15.3072 2.88712 15.5002 2.016 15.802C1.65222 15.9277 1.30616 16.1186 0.989406 16.3682C0.725753 16.5967 0.513184 16.9007 0.513184 17.2921C0.513184 17.7531 0.79661 18.0868 1.14101 18.3292C1.56813 18.609 2.02576 18.815 2.50046 18.9412C3.90295 19.3212 5.3376 19.5012 6.77493 19.4776C8.21226 19.5012 9.64691 19.3212 11.0494 18.9412C11.5241 18.815 11.9817 18.609 12.4089 18.3292C12.7532 18.0829 13.0367 17.7531 13.0367 17.2921C13.0367 16.8947 12.8241 16.5987 12.5605 16.3742C12.2462 16.1216 11.9016 15.9286 11.5388 15.802C10.666 15.5002 9.76984 15.3071 8.86437 15.2258C9.12473 14.8701 9.39333 14.4926 9.66687 14.0913C11 12.1243 12.3775 9.75005 12.3775 7.75526C12.3775 5.96366 11.7873 4.24543 10.7366 2.97857C9.68588 1.71171 8.26083 1 6.77493 1ZM6.77493 1.79474C8.08602 1.79474 9.34342 2.42272 10.2705 3.54053C11.1976 4.65835 11.7184 6.17443 11.7184 7.75526C11.7184 9.27122 10.4595 11.6654 9.15604 13.5886C8.41251 14.6894 7.61752 15.7382 6.77493 16.7298C5.93234 15.7382 5.13734 14.6894 4.39382 13.5886C3.09039 11.6654 1.83145 9.27122 1.83145 7.75526C1.83145 6.17443 2.35228 4.65835 3.27936 3.54053C4.20644 2.42272 5.46383 1.79474 6.77493 1.79474ZM5.24574 15.9649C5.98397 16.9226 6.54753 17.5802 6.54753 17.5802C6.60882 17.6506 6.69025 17.6899 6.77493 17.6899C6.85961 17.6899 6.94104 17.6506 7.00233 17.5802C7.00233 17.5802 7.56589 16.9226 8.30411 15.9649C9.33064 16.0261 10.3482 16.226 11.3378 16.5609C11.6352 16.6636 11.9188 16.8175 12.1798 17.0179C12.3446 17.1649 12.3775 17.2603 12.3775 17.2881C12.3775 17.3159 12.3281 17.461 12.0727 17.6418C11.7017 17.8817 11.3053 18.0595 10.8945 18.1703C9.54243 18.5331 8.15996 18.7052 6.77493 18.6829C5.3899 18.7052 4.00743 18.5331 2.65536 18.1703C2.24299 18.0613 1.84492 17.8848 1.47222 17.6458C1.22175 17.465 1.17231 17.3239 1.17231 17.2921C1.17231 17.2603 1.19703 17.1689 1.37005 17.0199C1.6324 16.8204 1.91706 16.6672 2.21539 16.5649C3.20352 16.2278 4.2201 16.0265 5.24574 15.9649Z" fill="white" stroke="black" stroke-width="0.7" stroke-miterlimit="10"/>
<path d="M6.77492 4.17908C6.31864 4.17908 5.87262 4.34221 5.49324 4.64786C5.11386 4.9535 4.81817 5.38792 4.64356 5.89619C4.46896 6.40446 4.42327 6.96374 4.51229 7.50332C4.6013 8.04289 4.82102 8.53852 5.14365 8.92753C5.46628 9.31654 5.87734 9.58146 6.32485 9.68879C6.77236 9.79612 7.23621 9.74103 7.65775 9.5305C8.07929 9.31997 8.43959 8.96345 8.69308 8.50602C8.94657 8.04859 9.08188 7.5108 9.08188 6.96066C9.08188 6.22294 8.83882 5.51543 8.40618 4.99378C7.97354 4.47214 7.38676 4.17908 6.77492 4.17908ZM6.77492 4.97381C7.10083 4.97381 7.41942 5.09034 7.6904 5.30866C7.96138 5.52697 8.17259 5.83728 8.29731 6.20032C8.42203 6.56337 8.45466 6.96286 8.39108 7.34827C8.3275 7.73368 8.17056 8.0877 7.94011 8.36557C7.70965 8.64343 7.41604 8.83266 7.09639 8.90932C6.77674 8.98598 6.44542 8.94664 6.14432 8.79626C5.84322 8.64588 5.58586 8.39122 5.4048 8.06449C5.22373 7.73775 5.12709 7.35362 5.12709 6.96066C5.12709 6.43371 5.3007 5.92835 5.60973 5.55575C5.91875 5.18314 6.33789 4.97381 6.77492 4.97381Z" fill="white" stroke="black" stroke-width="0.7" stroke-miterlimit="10"/>
</svg>
