<svg width="14" height="17" viewBox="0 0 14 17" fill="none" xmlns="http://www.w3.org/2000/svg">
<path d="M8.22033 14.4099C8.34839 14.54 8.51284 14.6063 8.68006 14.5951C8.84109 14.5923 9.00071 14.5585 9.15293 14.4952C9.16695 14.4892 9.17971 14.4797 9.19032 14.4671L9.46818 14.1321L11.1171 16.1191C11.36 16.4186 11.6913 16.5898 12.0386 16.5955C12.1813 16.5972 12.3228 16.565 12.4551 16.5006C12.5874 16.4362 12.7079 16.3409 12.8096 16.2202C13.2541 15.6842 13.2137 14.7693 12.7277 14.1796L11.0798 12.189L11.5304 11.6456C11.5346 11.6409 11.5384 11.6356 11.5415 11.6298L12.8874 9.16399C12.9002 9.1405 12.9059 9.11239 12.9035 9.08441C12.9011 9.05643 12.8908 9.03031 12.8742 9.01048L9.8885 5.40927C9.87405 5.39321 9.85603 5.38259 9.83665 5.37869C9.81727 5.3748 9.79737 5.3778 9.77938 5.38734L6.67341 6.87485C5.70342 5.6785 5.53267 4.69048 5.38414 3.81698C5.25683 3.07262 5.1376 2.36723 4.55965 1.67038C3.54925 0.452108 1.29202 1.25982 1.19704 1.29394C1.17932 1.29962 1.16322 1.31102 1.15046 1.32689C1.13771 1.34277 1.12877 1.36253 1.12462 1.38407C1.12047 1.4056 1.12125 1.42809 1.12689 1.44912C1.13253 1.47016 1.14281 1.48895 1.15662 1.50348L2.8743 3.55993L2.23169 5.03404L0.89291 3.41982C0.873979 3.39713 0.84837 3.3844 0.821676 3.3844C0.794983 3.3844 0.769374 3.39713 0.750443 3.41982C0.740405 3.43154 0.732492 3.44565 0.727204 3.46124C0.719121 3.48683 -0.0952617 5.9916 1.50723 6.96256C1.51402 6.9676 1.52158 6.97092 1.52946 6.97231L2.1741 7.15262C3.9423 7.63993 4.1272 7.69231 5.2053 8.98977L5.76102 9.65982L5.37808 10.1215C5.3684 10.1334 5.36084 10.1475 5.35585 10.163C5.34675 10.1886 5.14164 10.8123 5.40031 11.1912C5.52054 11.3654 5.71353 11.4531 5.97623 11.4531H6.06212C6.04816 11.4702 6.03867 11.4918 6.03484 11.5153C5.94895 12.0172 6.00452 12.3802 6.19953 12.5934C6.33905 12.7317 6.51624 12.8025 6.69665 12.792C6.81798 12.7919 6.93871 12.7714 7.05534 12.7311C7.03412 13.0832 7.0998 13.3402 7.25742 13.5047C7.38473 13.6225 7.54273 13.6817 7.70301 13.6716C7.82647 13.6693 7.94914 13.6472 8.06776 13.6058C8.02128 13.9713 8.0718 14.2418 8.22033 14.4099ZM12.5853 14.349C12.9955 14.8436 13.0319 15.605 12.6671 16.046C12.3023 16.487 11.6698 16.442 11.2596 15.9473L9.61165 13.9591L9.78746 13.7471L10.6362 14.7705C10.6551 14.7932 10.6807 14.8059 10.7074 14.8059C10.7341 14.8059 10.7597 14.7932 10.7787 14.7705L11.6092 13.7691C11.628 13.7462 11.6386 13.7154 11.6386 13.6832C11.6386 13.651 11.628 13.6201 11.6092 13.5973L10.7605 12.5739L10.9363 12.362L12.5853 14.349ZM10.618 12.7457L11.395 13.6826L10.7079 14.5122L9.92993 13.5741L10.618 12.7457ZM0.862598 3.73048L2.13368 5.26551L1.51026 6.68723C0.398824 5.92094 0.71811 4.27505 0.862598 3.72805V3.73048ZM5.34473 8.81556C4.43537 7.71911 4.11204 7.47546 3.0491 7.15018L3.17035 6.80053C3.17546 6.78574 3.1781 6.76987 3.17812 6.75384C3.17815 6.73781 3.17555 6.72193 3.17048 6.70711C3.16542 6.69229 3.15798 6.67882 3.1486 6.66747C3.13921 6.65611 3.12806 6.6471 3.11579 6.64094C3.10352 6.63478 3.09036 6.6316 3.07706 6.63157C3.06377 6.63154 3.0506 6.63467 3.03831 6.64078C3.02602 6.64689 3.01485 6.65586 3.00543 6.66717C2.99601 6.67849 2.98854 6.69193 2.98343 6.70673L2.85107 7.09292L2.21855 6.91627L1.70325 6.77251L3.09255 3.58673C3.10275 3.56398 3.10669 3.5379 3.10378 3.51227C3.10087 3.48665 3.09128 3.4628 3.07638 3.44419L1.42236 1.47424C1.95787 1.31343 3.64019 0.906524 4.41618 1.83972C4.49125 1.92962 4.56145 2.02525 4.62634 2.12602L4.17974 3.41861C4.16931 3.44833 4.16909 3.48184 4.17913 3.51176C4.18917 3.54168 4.20865 3.56558 4.23329 3.5782C4.24575 3.5846 4.25915 3.58791 4.2727 3.58795C4.29265 3.58783 4.31212 3.58059 4.32866 3.56715C4.3452 3.55371 4.35808 3.53466 4.36566 3.51241L4.76375 2.36358C5.01029 2.83871 5.09415 3.3248 5.1861 3.86571C5.34271 4.78673 5.52054 5.83079 6.57641 7.10388L7.22711 7.88845L7.05029 8.10043L4.43234 4.94388L4.49802 4.7782L4.50408 4.75383C4.50919 4.7432 4.51294 4.7317 4.51519 4.71972C4.54889 4.59513 4.54366 4.45999 4.50049 4.33973C4.45732 4.21947 4.37918 4.12237 4.28078 4.06673L4.00292 3.90104C3.8953 3.84075 3.77224 3.83434 3.6607 3.8832C3.54916 3.93206 3.45822 4.03222 3.4078 4.16175L2.84298 5.62368C2.79295 5.75312 2.78751 5.90119 2.82785 6.03546C2.86819 6.16973 2.95102 6.27925 3.0582 6.34003L3.33707 6.49597C3.39605 6.52994 3.46064 6.54743 3.52601 6.54713C3.57948 6.54703 3.63251 6.53548 3.68262 6.51302C3.70779 6.5017 3.73213 6.48784 3.75537 6.4716L6.07929 9.27363L5.90551 9.48561L5.34473 8.81556ZM6.22075 9.10185L3.89683 6.29982C3.90986 6.27852 3.92103 6.25566 3.93017 6.2316L4.06254 5.8917L4.33938 5.17779L6.9058 8.27221L6.22075 9.10185ZM3.69475 6.22551C3.67122 6.25116 3.64376 6.27103 3.61392 6.28399C3.5838 6.2975 3.55174 6.3036 3.51964 6.30193C3.48753 6.30026 3.45603 6.29084 3.42699 6.27424L3.14509 6.1183C3.08616 6.08492 3.04045 6.02499 3.01778 5.9514C3.00502 5.90513 3.00122 5.85595 3.00667 5.80764L3.82509 5.92947L3.74931 6.12683C3.73526 6.16193 3.7161 6.19371 3.69273 6.22064L3.69475 6.22551ZM3.55228 4.3652L3.59068 4.26531C3.61832 4.19425 3.66815 4.13926 3.72929 4.11233C3.79043 4.0854 3.85792 4.08871 3.91704 4.12155L4.19591 4.27871C4.23845 4.30266 4.27435 4.34094 4.29926 4.38892C4.32418 4.43691 4.33706 4.49256 4.33635 4.54916L3.55228 4.3652ZM3.46438 4.59302L4.2727 4.78185L4.21814 4.92317L4.13629 5.13393L3.31383 4.98287L3.46438 4.59302ZM3.2239 5.21312L4.04637 5.36419L3.91502 5.70287L3.08447 5.57373L3.2239 5.21312ZM7.38574 13.3122C7.217 13.1343 7.23923 12.7555 7.29177 12.4594L8.59418 10.8878C8.60426 10.8774 8.61255 10.8648 8.61857 10.8505C8.62458 10.8362 8.62821 10.8207 8.62924 10.8047C8.63028 10.7888 8.62869 10.7727 8.62458 10.7575C8.62047 10.7423 8.61392 10.7282 8.60529 10.7161C8.59667 10.7039 8.58614 10.6939 8.57432 10.6867C8.56249 10.6794 8.54959 10.675 8.53636 10.6738C8.52313 10.6725 8.50983 10.6745 8.49721 10.6794C8.4846 10.6844 8.47291 10.6923 8.46283 10.7027C8.45863 10.7065 8.45489 10.711 8.45171 10.7161L6.97047 12.4984C6.87751 12.5264 6.52387 12.6202 6.33189 12.4046C6.19751 12.2584 6.16215 11.9843 6.22378 11.592L7.70301 9.80967C7.72203 9.78673 7.73272 9.75562 7.73272 9.72317C7.73272 9.69073 7.72203 9.65962 7.70301 9.63668C7.68398 9.61374 7.65818 9.60085 7.63127 9.60085C7.60436 9.60085 7.57856 9.61374 7.55953 9.63668L6.28946 11.168C5.9247 11.2497 5.67008 11.2034 5.55389 11.0353C5.39222 10.8001 5.50337 10.375 5.53368 10.2738L5.97219 9.7451L7.67977 7.68622C7.69859 7.66339 7.70915 7.63252 7.70915 7.60033C7.70915 7.56815 7.69859 7.53727 7.67977 7.51444C7.66084 7.49175 7.63523 7.47902 7.60853 7.47902C7.58184 7.47902 7.55623 7.49175 7.5373 7.51444L7.36957 7.71668L6.828 7.06368L9.79251 5.6383L12.6752 9.1116L11.3799 11.4787L10.8656 12.0988L10.5463 12.4826L9.71775 13.4815L9.39947 13.8653L9.06402 14.2807C8.90841 14.3429 8.53154 14.4355 8.35674 14.2393C8.18194 14.0432 8.24458 13.6765 8.31531 13.3743L9.48636 11.966C9.50518 11.9432 9.51574 11.9123 9.51574 11.8801C9.51574 11.8479 9.50518 11.8171 9.48636 11.7942C9.46743 11.7715 9.44182 11.7588 9.41513 11.7588C9.38844 11.7588 9.36283 11.7715 9.3439 11.7942L8.03038 13.378C7.89599 13.4194 7.56054 13.4986 7.38574 13.3122Z" stroke="black" stroke-width="0.25" stroke-miterlimit="10"/>
</svg>
