<svg width="19" height="16" viewBox="0 0 19 16" fill="none" xmlns="http://www.w3.org/2000/svg">
<g clip-path="url(#clip0_627_304)">
<path d="M7.90732 0C7.50732 0 7.1237 0.16051 6.84086 0.446221C6.55802 0.731932 6.39912 1.11944 6.39912 1.5235V5.07832H1.87453C1.47453 5.07832 1.09092 5.23883 0.808074 5.52454C0.525232 5.81025 0.366333 6.19776 0.366333 6.60181V11.6801C0.366333 12.0842 0.525232 12.4717 0.808074 12.7574C1.09092 13.0431 1.47453 13.2036 1.87453 13.2036H2.62863V15.235C2.62904 15.3351 2.65875 15.4329 2.71402 15.516C2.76929 15.5991 2.84765 15.6639 2.93926 15.7021C3.03086 15.7404 3.13161 15.7504 3.22886 15.731C3.3261 15.7116 3.41549 15.6636 3.48579 15.593L5.84863 13.2036H10.9237C11.3237 13.2036 11.7073 13.0431 11.9902 12.7574C12.273 12.4717 12.4319 12.0842 12.4319 11.6801V8.12531H12.9824L15.3452 10.5147C15.3919 10.5619 15.4474 10.5993 15.5084 10.6249C15.5694 10.6504 15.6349 10.6636 15.7009 10.6636C15.767 10.6636 15.8324 10.6504 15.8934 10.6249C15.9545 10.5993 16.0099 10.5619 16.0566 10.5147C16.1501 10.4194 16.2025 10.2907 16.2024 10.1566V8.12531H16.9565C17.3565 8.12531 17.7401 7.9648 18.023 7.67909C18.3058 7.39338 18.4647 7.00587 18.4647 6.60181V1.5235C18.4647 1.11944 18.3058 0.731932 18.023 0.446221C17.7401 0.16051 17.3565 0 16.9565 0H7.90732ZM7.90732 1.01566H16.9565C17.0898 1.01566 17.2177 1.06917 17.312 1.1644C17.4063 1.25964 17.4592 1.38881 17.4592 1.5235V6.60181C17.4592 6.7365 17.4063 6.86567 17.312 6.9609C17.2177 7.05614 17.0898 7.10964 16.9565 7.10964H15.6997C15.5663 7.10964 15.4385 7.16315 15.3442 7.25838C15.2499 7.35362 15.1969 7.48279 15.1969 7.61748V8.9353L13.5404 7.25945C13.4466 7.16409 13.3191 7.11021 13.186 7.10964H7.90732C7.77398 7.10964 7.64611 7.05614 7.55183 6.9609C7.45755 6.86567 7.40458 6.7365 7.40458 6.60181V1.5235C7.40458 1.38881 7.45755 1.25964 7.55183 1.1644C7.64611 1.06917 7.77398 1.01566 7.90732 1.01566ZM8.86502 1.77741C8.73169 1.78381 8.60633 1.84345 8.51653 1.94321C8.42673 2.04297 8.37984 2.17468 8.38617 2.30936C8.3925 2.44405 8.45154 2.57068 8.5503 2.66139C8.64906 2.7521 8.77945 2.79947 8.91278 2.79307H15.951C16.0844 2.79509 16.213 2.74353 16.3087 2.64972C16.4044 2.55591 16.4593 2.42755 16.4613 2.29286C16.4633 2.15818 16.4123 2.0282 16.3194 1.93154C16.2265 1.83487 16.0994 1.77943 15.9661 1.77741H8.86502ZM8.86502 3.55482C8.73169 3.56122 8.60633 3.62086 8.51653 3.72062C8.42673 3.82038 8.37984 3.95209 8.38617 4.08678C8.3925 4.22146 8.45154 4.34809 8.5503 4.4388C8.64906 4.52952 8.77945 4.57688 8.91278 4.57049H15.951C16.0844 4.57251 16.213 4.52094 16.3087 4.42713C16.4044 4.33332 16.4593 4.20496 16.4613 4.07027C16.4633 3.93559 16.4123 3.80561 16.3194 3.70895C16.2265 3.61228 16.0994 3.55684 15.9661 3.55482H8.86502ZM8.86502 5.33223C8.73169 5.33863 8.60633 5.39827 8.51653 5.49803C8.42673 5.59779 8.37984 5.7295 8.38617 5.86419C8.3925 5.99887 8.45154 6.1255 8.5503 6.21621C8.64906 6.30693 8.77945 6.35429 8.91278 6.3479H13.4374C13.5707 6.34992 13.6994 6.29835 13.7951 6.20454C13.8908 6.11073 13.9456 5.98237 13.9476 5.84768C13.9496 5.713 13.8986 5.58303 13.8057 5.48636C13.7129 5.38969 13.5858 5.33425 13.4525 5.33223H8.86502ZM1.87453 6.09398H6.39912V6.60181C6.39912 7.00587 6.55802 7.39338 6.84086 7.67909C7.1237 7.9648 7.50732 8.12531 7.90732 8.12531H11.4264V11.6801C11.4264 11.8148 11.3735 11.944 11.2792 12.0392C11.1849 12.1345 11.057 12.188 10.9237 12.188H5.64502C5.5119 12.1885 5.38444 12.2424 5.2906 12.3378L3.63409 14.0136V12.6958C3.63409 12.5611 3.58113 12.4319 3.48685 12.3367C3.39256 12.2415 3.26469 12.188 3.13136 12.188H1.87453C1.7412 12.188 1.61332 12.1345 1.51904 12.0392C1.42476 11.944 1.3718 11.8148 1.3718 11.6801V6.60181C1.3718 6.46713 1.42476 6.33796 1.51904 6.24272C1.61332 6.14748 1.7412 6.09398 1.87453 6.09398Z" fill="black"/>
</g>
<defs>
<clipPath id="clip0_627_304">
<rect width="18.0984" height="15.7377" fill="white" transform="translate(0.366333)"/>
</clipPath>
</defs>
</svg>
