<svg width="19" height="16" viewBox="0 0 19 16" fill="none" xmlns="http://www.w3.org/2000/svg">
<path d="M11.8017 10.3879C11.589 10.4438 11.371 10.4627 11.1541 10.4441H1.33148C1.15972 10.4441 0.994986 10.3595 0.873529 10.2089C0.752072 10.0582 0.683838 9.85394 0.683838 9.64091V1.97005C0.683838 1.75702 0.752072 1.55271 0.873529 1.40208C0.994986 1.25144 1.15972 1.16682 1.33148 1.16682H11.1152C11.287 1.16682 11.4517 1.25144 11.5732 1.40208C11.6947 1.55271 11.7629 1.75702 11.7629 1.97005V3.76125C11.7629 4.20303 11.9788 4.32619 12.2529 4.029L14.9256 1.15611C15.1933 0.866944 15.4135 0.992783 15.4135 1.42385V10.171C15.4135 10.6128 15.1976 10.7333 14.9299 10.4388L12.2875 7.52573C12.0198 7.23121 11.8017 7.3517 11.8017 7.79347V10.3879Z" stroke="black" stroke-linecap="round" stroke-linejoin="round"/>
</svg>
