<svg width="13" height="19" viewBox="0 0 13 19" fill="none" xmlns="http://www.w3.org/2000/svg">
<path d="M10.4073 2.07403V0H6.93823V2.07403H0V18.32H12.72V2.07403H10.4073ZM8.9619 0.691275H9.82911V11.5837L9.42121 11.3822L8.9619 11.5982V0.691275ZM9.44062 12.1223L9.74212 12.263L8.84682 14.1721H8.51093L7.60949 12.2502L7.87201 12.1223L8.67198 12.4664L9.44062 12.1223ZM7.51637 0.691275H8.38359V11.608L7.87677 11.3826L7.5162 11.5668L7.51637 0.691275ZM12.1419 17.6287H0.578143V2.7653H6.93806V4.14785H1.44553V4.83913H6.93823V7.25879H1.44553V7.95007H6.93823V10.0241H1.44553V10.7154H6.93823V12.1557L7.22849 12.7894H1.44553V13.4807H7.51637V13.4182L8.49458 15.5547H1.44553V16.246H8.67283V15.9435L9.82911 13.4182V13.4807H11.2746V12.7894H10.117L10.4073 12.1557V10.7154H11.2745V10.0241H10.4073V7.95027H11.2745V7.25879H10.4073V4.83933H11.2745V4.14806H10.4073V2.76551H12.1419V17.6287Z" fill="black"/>
</svg>
