<svg width="18" height="18" viewBox="0 0 18 18" fill="none" xmlns="http://www.w3.org/2000/svg">
<path d="M13.3349 14.6373C13.1808 14.6381 13.0333 14.6978 12.9246 14.8034C12.816 14.909 12.7549 15.0518 12.7549 15.2007V16.0772H1.52931V2.28058H3.63624V2.87681C3.63583 2.95066 3.65053 3.02386 3.67949 3.0922C3.70846 3.16054 3.75111 3.22268 3.805 3.27503C3.8589 3.32739 3.92297 3.36894 3.99353 3.39729C4.0641 3.42565 4.13976 3.44024 4.21618 3.44024H10.0773C10.232 3.44024 10.3803 3.38088 10.4896 3.27521C10.5989 3.16955 10.6604 3.02624 10.6604 2.87681V2.28058H12.7673V7.23222C12.778 7.37418 12.8439 7.50697 12.9518 7.60389C13.0596 7.70082 13.2015 7.75469 13.3488 7.75469C13.4961 7.75469 13.6379 7.70082 13.7458 7.60389C13.8536 7.50697 13.9196 7.37418 13.9303 7.23222V1.72014C13.9315 1.64438 13.917 1.56916 13.8875 1.49897C13.8579 1.42878 13.8141 1.36506 13.7585 1.31163C13.7029 1.25819 13.6368 1.21614 13.564 1.18798C13.4912 1.15983 13.4133 1.14615 13.3349 1.14776H10.648V0.551538C10.6472 0.402624 10.5854 0.260078 10.4762 0.155058C10.3669 0.0500386 10.2191 -0.00891322 10.065 -0.00891113H4.20384C4.05218 -0.00579204 3.90782 0.054629 3.80171 0.159397C3.69561 0.264166 3.6362 0.404941 3.63624 0.551538V1.14776H0.946278C0.792184 1.14855 0.644679 1.20826 0.536006 1.31384C0.427333 1.41941 0.366331 1.56228 0.366333 1.71119V16.6496C0.368762 16.7966 0.430934 16.9369 0.539433 17.0401C0.647931 17.1433 0.794057 17.2011 0.946278 17.2011H13.3349C13.4874 17.2011 13.6339 17.1434 13.7429 17.0403C13.8518 16.9372 13.9147 16.7969 13.9179 16.6496V15.2007C13.9179 15.0513 13.8565 14.908 13.7472 14.8023C13.6378 14.6967 13.4895 14.6373 13.3349 14.6373ZM10.4845 6.54656H3.79973C3.71981 6.55219 3.63954 6.54184 3.56394 6.51615C3.48835 6.49046 3.41904 6.44998 3.36035 6.39725C3.30167 6.34452 3.25486 6.28066 3.22285 6.20967C3.19084 6.13867 3.17432 6.06206 3.17432 5.98462C3.17432 5.90718 3.19084 5.83057 3.22285 5.75957C3.25486 5.68858 3.30167 5.62472 3.36035 5.57199C3.41904 5.51926 3.48835 5.47878 3.56394 5.45309C3.63954 5.4274 3.71981 5.41705 3.79973 5.42268H10.4845C10.6314 5.43303 10.7688 5.49672 10.8691 5.60097C10.9694 5.70521 11.0252 5.84228 11.0252 5.98462C11.0252 6.12696 10.9694 6.26403 10.8691 6.36827C10.7688 6.47252 10.6314 6.53621 10.4845 6.54656ZM9.55908 9.35477H3.79973C3.71981 9.3604 3.63954 9.35005 3.56394 9.32436C3.48835 9.29867 3.41904 9.25819 3.36035 9.20546C3.30167 9.15273 3.25486 9.08887 3.22285 9.01788C3.19084 8.94688 3.17432 8.87027 3.17432 8.79283C3.17432 8.71539 3.19084 8.63878 3.22285 8.56778C3.25486 8.49679 3.30167 8.43293 3.36035 8.3802C3.41904 8.32747 3.48835 8.28699 3.56394 8.2613C3.63954 8.23561 3.71981 8.22526 3.79973 8.23089H9.58376C9.66368 8.22526 9.74395 8.23561 9.81955 8.2613C9.89514 8.28699 9.96445 8.32747 10.0231 8.3802C10.0818 8.43293 10.1286 8.49679 10.1606 8.56778C10.1927 8.63878 10.2092 8.71539 10.2092 8.79283C10.2092 8.87027 10.1927 8.94688 10.1606 9.01788C10.1286 9.08887 10.0818 9.15273 10.0231 9.20546C9.96445 9.25819 9.89514 9.29867 9.81955 9.32436C9.74395 9.35005 9.66368 9.3604 9.58376 9.35477H9.55908ZM8.30665 11.0391C8.45355 11.0494 8.59096 11.1131 8.69125 11.2174C8.79154 11.3216 8.84729 11.4587 8.84729 11.601C8.84729 11.7434 8.79154 11.8804 8.69125 11.9847C8.59096 12.0889 8.45355 12.1526 8.30665 12.163H3.79973C3.71981 12.1686 3.63954 12.1583 3.56394 12.1326C3.48835 12.1069 3.41904 12.0664 3.36035 12.0137C3.30167 11.9609 3.25486 11.8971 3.22285 11.8261C3.19084 11.7551 3.17432 11.6785 3.17432 11.601C3.17432 11.5236 3.19084 11.447 3.22285 11.376C3.25486 11.305 3.30167 11.2411 3.36035 11.1884C3.41904 11.1357 3.48835 11.0952 3.56394 11.0695C3.63954 11.0438 3.71981 11.0335 3.79973 11.0391H8.30665ZM11.7555 13.6893L10.3303 13.9874L10.6388 12.6101L15.266 8.13848L16.3827 9.21764L11.7555 13.6893ZM16.722 8.89866L15.6022 7.8195L16.4506 6.99969L17.5673 8.08183L16.722 8.89866Z" fill="black"/>
</svg>
