<svg width="22" height="22" viewBox="0 0 22 22" fill="none" xmlns="http://www.w3.org/2000/svg">
<g clip-path="url(#clip0_627_286)">
<path d="M3.71446 2C3.62007 2.01165 3.53307 2.05596 3.46922 2.1249C3.40538 2.19384 3.36892 2.28285 3.36646 2.3758V18.1593C3.36981 18.2579 3.41141 18.3516 3.4828 18.4214C3.5542 18.4911 3.65007 18.5318 3.75099 18.5351H15.2871C15.388 18.5318 15.4839 18.4911 15.5553 18.4214C15.6267 18.3516 15.6683 18.2579 15.6716 18.1593V5.00637C15.6707 4.90531 15.6301 4.80847 15.5582 4.7358L12.8664 2.10522C12.793 2.03772 12.6961 2.00009 12.5953 2H3.71446ZM4.13553 2.75159H12.2108V5.00637C12.2141 5.105 12.2557 5.19869 12.3271 5.26847C12.3985 5.33824 12.4944 5.37889 12.5953 5.38217H14.9025V17.7835H4.13553V2.75159ZM12.9799 3.27959L14.3623 4.63058H12.9799V3.27959ZM5.44487 4.06688C5.35048 4.07853 5.26348 4.12284 5.19964 4.19178C5.13579 4.26072 5.09934 4.34973 5.09687 4.44268V5.57007C5.10023 5.66869 5.14182 5.76238 5.21322 5.83216C5.28462 5.90194 5.38049 5.94258 5.4814 5.94587H6.63501C6.73593 5.94258 6.8318 5.90194 6.9032 5.83216C6.9746 5.76238 7.01619 5.66869 7.01955 5.57007V4.44268C7.01619 4.34405 6.9746 4.25036 6.9032 4.18059C6.8318 4.11081 6.73593 4.07016 6.63501 4.06688H5.44487ZM8.36543 4.63058C8.26344 4.63058 8.16563 4.67017 8.09352 4.74065C8.0214 4.81112 7.98089 4.90671 7.98089 5.00637C7.98089 5.10604 8.0214 5.20163 8.09352 5.2721C8.16563 5.34258 8.26344 5.38217 8.36543 5.38217H11.4417C11.5437 5.38217 11.6415 5.34258 11.7136 5.2721C11.7857 5.20163 11.8263 5.10604 11.8263 5.00637C11.8263 4.90671 11.7857 4.81112 11.7136 4.74065C11.6415 4.67017 11.5437 4.63058 11.4417 4.63058H8.36543ZM5.86594 4.81848H6.25048V5.19427H5.86594V4.81848ZM5.44487 6.69746C5.35048 6.70911 5.26348 6.75342 5.19964 6.82236C5.13579 6.8913 5.09934 6.98031 5.09687 7.07326V8.20065C5.10023 8.29927 5.14182 8.39296 5.21322 8.46274C5.28462 8.53252 5.38049 8.57316 5.4814 8.57644H6.63501C6.73593 8.57316 6.8318 8.53252 6.9032 8.46274C6.9746 8.39296 7.01619 8.29927 7.01955 8.20065V7.07326C7.01619 6.97463 6.9746 6.88094 6.9032 6.81117C6.8318 6.74139 6.73593 6.70074 6.63501 6.69746H5.44487ZM8.36543 7.26116C8.26344 7.26116 8.16563 7.30075 8.09352 7.37122C8.0214 7.4417 7.98089 7.53728 7.98089 7.63695C7.98089 7.73662 8.0214 7.83221 8.09352 7.90268C8.16563 7.97316 8.26344 8.01275 8.36543 8.01275H13.5567C13.6587 8.01275 13.7565 7.97316 13.8286 7.90268C13.9007 7.83221 13.9412 7.73662 13.9412 7.63695C13.9412 7.53728 13.9007 7.4417 13.8286 7.37122C13.7565 7.30075 13.6587 7.26116 13.5567 7.26116H8.36543ZM5.86594 7.44905H6.25048V7.82485H5.86594V7.44905ZM5.44487 9.32804C5.35048 9.33968 5.26348 9.38399 5.19964 9.45293C5.13579 9.52187 5.09934 9.61088 5.09687 9.70383V10.8312C5.10023 10.9298 5.14182 11.0235 5.21322 11.0933C5.28462 11.1631 5.38049 11.2037 5.4814 11.207H6.63501C6.73593 11.2037 6.8318 11.1631 6.9032 11.0933C6.9746 11.0235 7.01619 10.9298 7.01955 10.8312V9.70383C7.01619 9.60521 6.9746 9.51152 6.9032 9.44174C6.8318 9.37197 6.73593 9.33132 6.63501 9.32804H5.44487ZM8.36543 9.89173C8.26344 9.89173 8.16563 9.93132 8.09352 10.0018C8.0214 10.0723 7.98089 10.1679 7.98089 10.2675C7.98089 10.3672 8.0214 10.4628 8.09352 10.5333C8.16563 10.6037 8.26344 10.6433 8.36543 10.6433H13.5567C13.6587 10.6433 13.7565 10.6037 13.8286 10.5333C13.9007 10.4628 13.9412 10.3672 13.9412 10.2675C13.9412 10.1679 13.9007 10.0723 13.8286 10.0018C13.7565 9.93132 13.6587 9.89173 13.5567 9.89173H8.36543ZM5.86594 10.0796H6.25048V10.4554H5.86594V10.0796ZM5.44487 11.9586C5.35048 11.9703 5.26348 12.0146 5.19964 12.0835C5.13579 12.1525 5.09934 12.2415 5.09687 12.3344V13.4618C5.10023 13.5604 5.14182 13.6541 5.21322 13.7239C5.28462 13.7937 5.38049 13.8343 5.4814 13.8376H6.63501C6.73593 13.8343 6.8318 13.7937 6.9032 13.7239C6.9746 13.6541 7.01619 13.5604 7.01955 13.4618V12.3344C7.01619 12.2358 6.9746 12.1421 6.9032 12.0723C6.8318 12.0025 6.73593 11.9619 6.63501 11.9586H5.44487ZM8.36543 12.5223C8.26344 12.5223 8.16563 12.5619 8.09352 12.6324C8.0214 12.7029 7.98089 12.7984 7.98089 12.8981C7.98089 12.9978 8.0214 13.0934 8.09352 13.1638C8.16563 13.2343 8.26344 13.2739 8.36543 13.2739H13.5567C13.6587 13.2739 13.7565 13.2343 13.8286 13.1638C13.9007 13.0934 13.9412 12.9978 13.9412 12.8981C13.9412 12.7984 13.9007 12.7029 13.8286 12.6324C13.7565 12.5619 13.6587 12.5223 13.5567 12.5223H8.36543ZM5.86594 12.7102H6.25048V13.086H5.86594V12.7102ZM5.44487 14.5892C5.35048 14.6008 5.26348 14.6451 5.19964 14.7141C5.13579 14.783 5.09934 14.872 5.09687 14.965V16.0924C5.10023 16.191 5.14182 16.2847 5.21322 16.3545C5.28462 16.4242 5.38049 16.4649 5.4814 16.4682H6.63501C6.73593 16.4649 6.8318 16.4242 6.9032 16.3545C6.9746 16.2847 7.01619 16.191 7.01955 16.0924V14.965C7.01619 14.8664 6.9746 14.7727 6.9032 14.7029C6.8318 14.6331 6.73593 14.5925 6.63501 14.5892H5.44487ZM8.36543 15.1529C8.26344 15.1529 8.16563 15.1925 8.09352 15.263C8.0214 15.3334 7.98089 15.429 7.98089 15.5287C7.98089 15.6284 8.0214 15.7239 8.09352 15.7944C8.16563 15.8649 8.26344 15.9045 8.36543 15.9045H13.5567C13.6587 15.9045 13.7565 15.8649 13.8286 15.7944C13.9007 15.7239 13.9412 15.6284 13.9412 15.5287C13.9412 15.429 13.9007 15.3334 13.8286 15.263C13.7565 15.1925 13.6587 15.1529 13.5567 15.1529H8.36543ZM5.86594 15.3408H6.25048V15.7166H5.86594V15.3408Z" fill="black"/>
</g>
<defs>
<clipPath id="clip0_627_286">
<rect width="12.3052" height="16.5351" fill="white" transform="translate(3.36646 2)"/>
</clipPath>
</defs>
</svg>
