<svg width="22" height="22" viewBox="0 0 22 22" fill="none" xmlns="http://www.w3.org/2000/svg">
<path d="M17.3921 5.7868H13.5441V4.85787C13.5441 4.36513 13.3414 3.89257 12.9806 3.54416C12.6198 3.19574 12.1304 3 11.6201 3H9.69607C9.18579 3 8.69641 3.19574 8.33559 3.54416C7.97476 3.89257 7.77205 4.36513 7.77205 4.85787V5.7868H3.92402C3.41374 5.7868 2.92436 5.98254 2.56353 6.33096C2.20271 6.67938 2 7.15193 2 7.64467V16.0051C2 16.4978 2.20271 16.9704 2.56353 17.3188C2.92436 17.6672 3.41374 17.8629 3.92402 17.8629H17.3921C17.9024 17.8629 18.3918 17.6672 18.7526 17.3188C19.1135 16.9704 19.3162 16.4978 19.3162 16.0051V7.64467C19.3162 7.15193 19.1135 6.67938 18.7526 6.33096C18.3918 5.98254 17.9024 5.7868 17.3921 5.7868ZM8.73406 4.85787C8.73406 4.6115 8.83542 4.37522 9.01583 4.20101C9.19624 4.0268 9.44093 3.92893 9.69607 3.92893H11.6201C11.8752 3.92893 12.1199 4.0268 12.3003 4.20101C12.4807 4.37522 12.5821 4.6115 12.5821 4.85787V5.7868H8.73406V4.85787ZM18.3542 16.0051C18.3542 16.2514 18.2528 16.4877 18.0724 16.6619C17.892 16.8361 17.6473 16.934 17.3921 16.934H3.92402C3.66888 16.934 3.42419 16.8361 3.24378 16.6619C3.06336 16.4877 2.96201 16.2514 2.96201 16.0051V7.64467C2.96201 7.3983 3.06336 7.16202 3.24378 6.98781C3.42419 6.81361 3.66888 6.71574 3.92402 6.71574H17.3921C17.6473 6.71574 17.892 6.81361 18.0724 6.98781C18.2528 7.16202 18.3542 7.3983 18.3542 7.64467V16.0051Z" fill="black"/>
<path d="M13.6211 8.77801L10.1002 13.8779L8.58984 12.4287C8.54665 12.3843 8.49449 12.3489 8.43658 12.3247C8.37867 12.3005 8.31624 12.288 8.25313 12.288C8.19003 12.288 8.12759 12.3005 8.06968 12.3247C8.01177 12.3489 7.95961 12.3843 7.91643 12.4287C7.8289 12.514 7.77979 12.6292 7.77979 12.7492C7.77979 12.8693 7.8289 12.9844 7.91643 13.0697L9.84045 14.9276C9.8834 14.9722 9.93554 15.0076 9.99353 15.0316C10.0515 15.0556 10.1141 15.0676 10.1772 15.0669H10.2253C10.2958 15.0577 10.3636 15.0348 10.4248 14.9997C10.4859 14.9646 10.5391 14.918 10.5812 14.8625L14.4292 9.28893C14.4652 9.2383 14.4906 9.18132 14.5038 9.12125C14.517 9.06117 14.5178 8.99917 14.5062 8.93879C14.4946 8.87841 14.4707 8.82083 14.4361 8.76933C14.4014 8.71784 14.3566 8.67344 14.3042 8.63867C14.2517 8.6039 14.1927 8.57945 14.1305 8.5667C14.0683 8.55396 14.0041 8.55317 13.9416 8.56438C13.879 8.57559 13.8194 8.59859 13.7661 8.63206C13.7127 8.66553 13.6668 8.70881 13.6308 8.75943L13.6211 8.77801Z" fill="black"/>
</svg>
