<svg width="22" height="22" viewBox="0 0 22 22" fill="none" xmlns="http://www.w3.org/2000/svg">
<path d="M19.9256 5.68981L19.9258 5.68939L19.9157 5.68538L7.8374 0.908511L7.81525 0.899751H7.80601L7.79763 0.896316C7.77537 0.887412 7.73986 0.875 7.69242 0.875H7.69228H7.69213H7.69199H7.69185H7.6917H7.69156H7.69142H7.69128H7.69114H7.691H7.69086H7.69072H7.69058H7.69045H7.69031H7.69017H7.69004H7.6899H7.68977H7.68963H7.6895H7.68936H7.68923H7.6891H7.68897H7.68884H7.68871H7.68858H7.68845H7.68832H7.68819H7.68806H7.68793H7.6878H7.68768H7.68755H7.68743H7.6873H7.68718H7.68705H7.68693H7.6868H7.68668H7.68656H7.68644H7.68631H7.68619H7.68607H7.68595H7.68583H7.68571H7.6856H7.68548H7.68536H7.68524H7.68512H7.68501H7.68489H7.68478H7.68466H7.68455H7.68443H7.68432H7.6842H7.68409H7.68398H7.68387H7.68375H7.68364H7.68353H7.68342H7.68331H7.6832H7.68309H7.68298H7.68287H7.68277H7.68266H7.68255H7.68244H7.68234H7.68223H7.68213H7.68202H7.68192H7.68181H7.68171H7.6816H7.6815H7.6814H7.68129H7.68119H7.68109H7.68099H7.68089H7.68078H7.68068H7.68058H7.68048H7.68038H7.68028H7.68019H7.68009H7.67999H7.67989H7.67979H7.6797H7.6796H7.6795H7.67941H7.67931H7.67921H7.67912H7.67902H7.67893H7.67884H7.67874H7.67865H7.67855H7.67846H7.67837H7.67828H7.67818H7.67809H7.678H7.67791H7.67782H7.67773H7.67764H7.67755H7.67746H7.67737H7.67728H7.67719H7.6771H7.67701H7.67692H7.67683H7.67675H7.67666H7.67657H7.67648H7.6764H7.67631H7.67623H7.67614H7.67605H7.67597H7.67588H7.6758H7.67571H7.67563H7.67554H7.67546H7.67538H7.67529H7.67521H7.67513H7.67504H7.67496H7.67488H7.67479H7.67471H7.67463H7.67455H7.67447H7.67439H7.6743H7.67422H7.67414H7.67406H7.67398H7.6739H7.67382H7.67374H7.67366H7.67358H7.6735H7.67342H7.67334H7.67327H7.67319H7.67311H7.67303H7.67295H7.67287H7.6728H7.67272H7.67264H7.67256H7.67249H7.67241H7.67233H7.67226H7.67218H7.6721H7.67203H7.67195H7.67187H7.6718H7.67172H7.67165H7.67157H7.67149H7.67142H7.67134H7.67127H7.67119H7.67112H7.67104H7.67097H7.67089H7.67082H7.67074H7.67067H7.6706H7.67052H7.67045H7.67037H7.6703H7.67023H7.67015H7.67008H7.67H7.66993H7.66986H7.66978H7.66971H7.66964H7.66956H7.66949H7.66942H7.66934H7.66927H7.6692H7.66913H7.66905H7.66898H7.66891H7.66883H7.66876H7.66869H7.66862H7.66854H7.66847H7.6684H7.66832H7.66825H7.66818H7.66811H7.66803H7.66796H7.66789H7.66782H7.66774H7.66767H7.6676H7.66753H7.66745H7.66738H7.66731H7.66724H7.66716H7.66709H7.66702H7.66695H7.66687H7.6668H7.66673H7.66666H7.66658H7.66651H7.66644H7.66636H7.66629H7.66622H7.66615H7.66607H7.666H7.66593H7.66585H7.66578H7.66571H7.66563H7.66556H7.66549H7.66541H7.66534H7.66527H7.66519H7.66512H7.66504H7.66497H7.6649H7.66482H7.66475H7.66467H7.6646H7.66452H7.66445H7.66438H7.6643H7.66423H7.66415H7.66408H7.664H7.66393H7.66385H7.66377H7.6637H7.66362H7.66355H7.66347H7.66339H7.66332H7.66324H7.66317H7.66309H7.66301H7.66293H7.66286H7.66278H7.6627H7.66263H7.66255H7.66247H7.66239H7.66231H7.66224H7.66216H7.66208H7.662H7.66192H7.66184H7.66176H7.66168H7.6616H7.66152H7.66144H7.66136H7.66128H7.6612H7.66112H7.66104H7.66096H7.66088H7.6608H7.66071H7.66063H7.66055H7.66047H7.66038H7.6603H7.66022H7.66014H7.66005H7.65997H7.65988H7.6598H7.65972H7.65963H7.65955H7.65946H7.65938H7.65929H7.65921H7.65912H7.65903H7.65895H7.65886H7.65877H7.65869H7.6586H7.65851H7.65842H7.65833H7.65825H7.65816H7.65807H7.65798H7.65789H7.6578H7.65771H7.65762H7.65753H7.65744H7.65734H7.65725H7.65716H7.65707H7.65698H7.65688H7.65679H7.6567H7.6566H7.65651H7.65641H7.65632H7.65622H7.65613H7.65603H7.65594H7.65584H7.65575H7.65565H7.65555H7.65545H7.65536H7.65526H7.65516H7.65506H7.65496H7.65486H7.65476H7.65466H7.65456H7.65446H7.65436H7.65426H7.65415H7.65405H7.65395H7.65385H7.65374H7.65364H7.65353H7.65343H7.65332H7.65322H7.65311H7.65301H7.6529H7.65279H7.65269H7.65258H7.65247H7.65236H7.65225H7.65214H7.65203H7.65192H7.65181H7.6517H7.65159H7.65148H7.65137H7.65125H7.65114H7.65103H7.65091H7.6508H7.65068H7.65057H7.65045H7.65034H7.65022H7.6501H7.64999H7.64987H7.64975H7.64963H7.64951H7.64939H7.64927H7.64915H7.64903H7.64891H7.64879H7.64866H7.64854H7.64842H7.64829H7.64817H7.64804H7.64792H7.64779H7.64767H7.64754H7.64741H7.64728H7.64716H7.64703H7.6469H7.64677H7.64664H7.64651H7.64638H7.64624H7.64611H7.64598H7.64585H7.64571H7.64558H7.64544H7.64531H7.64517H7.64503H7.6449H7.64476H7.64462H7.64448H7.64434H7.6442H7.64406H7.64392H7.64378H7.64364H7.6435H7.64335H7.64321H7.64307H7.64292C7.64273 0.875 7.64239 0.874988 7.64191 0.874972C7.6349 0.874736 7.59787 0.873488 7.56227 0.89129C7.55277 0.89604 7.54469 0.901356 7.53814 0.906259C7.52989 0.908612 7.52129 0.911781 7.51277 0.916041C7.49496 0.924947 7.48215 0.935844 7.47499 0.942281C7.46859 0.948045 7.46179 0.954848 7.45666 0.959987C7.45627 0.960372 7.4559 0.960748 7.45553 0.961113L7.45437 0.962273L7.45321 0.963433L7.45307 0.963578L7.45292 0.963723L7.45263 0.964014L7.45249 0.964159L7.45234 0.964304L7.45205 0.964594L7.45147 0.965174L7.45133 0.965319L7.45118 0.965464L7.45103 0.965609L7.45089 0.965754L7.45031 0.966334L7.44973 0.966914L7.44958 0.967059L7.44944 0.967204L7.44929 0.967349L7.44915 0.967494L7.44886 0.967784L7.44871 0.967929L7.44857 0.968074L7.44828 0.968364L7.44813 0.968509L7.44799 0.968654L7.44784 0.968799L7.4477 0.968944L7.44755 0.969089L7.44741 0.969234L7.44625 0.970395L7.44509 0.971555C7.4438 0.972844 7.44609 0.970555 7.4448 0.971845L7.44451 0.972135L7.44422 0.972425L7.44407 0.97257L7.44393 0.972715L7.44335 0.973295L7.4432 0.97344L7.44306 0.973585L7.44277 0.973875L7.44248 0.974165L7.44233 0.97431L7.44219 0.974455L7.44204 0.9746L7.4419 0.974745L7.44175 0.97489L7.44161 0.975035L7.44146 0.97518L7.44132 0.975325L7.44117 0.97547L7.44103 0.975615L7.44088 0.97576L7.44074 0.975905L7.44059 0.97605L7.44045 0.976195L7.4403 0.97634L7.44016 0.976485L7.44001 0.976631L7.43987 0.976776L7.43972 0.976921L7.43958 0.977066L7.43943 0.977211L7.43929 0.977356L7.43914 0.977501L7.439 0.977646L7.43885 0.977791L7.43871 0.977936L7.43856 0.978081L7.43842 0.978226L7.43827 0.978371L7.43813 0.978516L7.43798 0.978661L7.43784 0.978806L7.43769 0.978951L7.43755 0.979096L7.4374 0.979241L7.43726 0.979386L7.43711 0.979531L7.43697 0.979676L7.43682 0.979821L7.43668 0.979966L7.43653 0.980111L7.43639 0.980256L7.43624 0.980401L7.4361 0.980546L7.43595 0.980691L7.43581 0.980836L7.43566 0.980981L7.43552 0.981126L7.43537 0.981271L7.43523 0.981416L7.43508 0.981561L7.43494 0.981706L7.43479 0.981851L7.43465 0.981996L7.4345 0.982141L7.43436 0.982286L7.43421 0.982431L7.43407 0.982576L7.43392 0.982721L7.43378 0.982866L7.43363 0.983012L7.43349 0.983157L7.43334 0.983302L7.4332 0.983447L7.43305 0.983592L7.43291 0.983737L7.43276 0.983882L7.43262 0.984027L7.43247 0.984172L7.43233 0.984317L7.43218 0.984462L7.43204 0.984607L7.43189 0.984752L7.43175 0.984897L7.4316 0.985042L7.43146 0.985187L7.43131 0.985332L7.43117 0.985477L7.43102 0.985622L7.43088 0.985767L7.43073 0.985912L7.43059 0.986057L7.43044 0.986202L7.4303 0.986347L7.43015 0.986492L7.43001 0.986637L7.42986 0.986782L7.42972 0.986927L7.42957 0.987072L7.42943 0.987217L7.42928 0.987362L7.42914 0.987507L7.42899 0.987652L7.42885 0.987797L7.4287 0.987942L7.42856 0.988087L7.42841 0.988232L7.42827 0.988377L7.42812 0.988522L7.42798 0.988667L7.42783 0.988812L7.42769 0.988957L7.42754 0.989102L7.4274 0.989247L7.42725 0.989392L7.42711 0.989538L7.42696 0.989683L7.42682 0.989828L7.42667 0.989973L7.42653 0.990118L7.42638 0.990263L7.42624 0.990408L7.42609 0.990553L7.42595 0.990698L7.4258 0.990843L7.42566 0.990988L7.42551 0.991133L7.42537 0.991278L7.42522 0.991423L7.42508 0.991568L7.42493 0.991713L7.42479 0.991858L7.42464 0.992003L7.4245 0.992148L7.42435 0.992293L7.42421 0.992438L7.42406 0.992583L7.42392 0.992728L7.42377 0.992873L7.42363 0.993018L7.42348 0.993163L7.42334 0.993308L7.42319 0.993453L7.42305 0.993598L7.4229 0.993743L7.42276 0.993888L7.42261 0.994033L7.42247 0.994178L7.42232 0.994323L7.42218 0.994468L7.42203 0.994613L7.42189 0.994758L7.42174 0.994903L7.4216 0.995048L7.42145 0.995193L7.42131 0.995338L7.42116 0.995483L7.42102 0.995628L7.42087 0.995773L7.42073 0.995919L7.42058 0.996064L7.42044 0.996209L7.42029 0.996354L7.42015 0.996499L7.42 0.996644L7.41986 0.996789L7.41971 0.996934L7.41957 0.997079L7.41942 0.997224L7.41928 0.997369L7.41913 0.997514L7.41898 0.997659L7.41884 0.997804L7.41869 0.997949L7.41855 0.998094L7.4184 0.998239L7.41826 0.998384L7.41811 0.998529L7.41797 0.998674L7.41782 0.998819L7.41768 0.998964L7.41753 0.999109L7.41739 0.999254L7.41724 0.999399L7.4171 0.999544L7.41695 0.999689L7.41681 0.999834L7.41666 0.999979L7.41652 1.00012L7.41637 1.00027L7.41623 1.00041L7.41608 1.00056L7.41594 1.0007L7.41579 1.00085L7.41565 1.00099L7.4155 1.00114L7.41536 1.00128L7.41521 1.00143L7.41507 1.00157L7.41492 1.00172L7.41478 1.00186L7.41463 1.00201L7.41449 1.00215L7.41434 1.0023L7.4142 1.00244L7.41405 1.00259L7.41391 1.00273L7.41376 1.00288L7.41362 1.00302L7.41347 1.00317L7.41333 1.00331L7.41318 1.00346L7.41304 1.0036L7.41289 1.00375L7.41275 1.00389L7.4126 1.00404L7.41246 1.00418L7.41231 1.00433L7.41217 1.00447L7.41202 1.00462L7.41188 1.00476L7.41173 1.00491L7.41159 1.00505L7.41144 1.0052L7.4113 1.00534L7.41115 1.00549L7.41101 1.00564L7.41086 1.00578L7.41072 1.00593L7.41057 1.00607L7.41043 1.00622L7.41028 1.00636L7.41014 1.00651L7.40999 1.00665L7.40985 1.0068L7.4097 1.00694L7.40956 1.00709L7.40941 1.00723L7.40927 1.00738L7.40912 1.00752L7.40898 1.00767L7.40883 1.00781L7.40869 1.00796L7.40854 1.0081L7.4084 1.00825L7.40825 1.00839L7.40811 1.00854L7.40796 1.00868L7.40782 1.00883L7.40767 1.00897L7.40753 1.00912L7.40738 1.00926L7.40724 1.00941L7.40709 1.00955L7.40695 1.0097L7.4068 1.00984L7.40666 1.00999L7.40651 1.01013L7.40637 1.01028L7.40622 1.01042L7.40608 1.01057L7.40593 1.01071L7.40579 1.01086L7.40564 1.011L7.4055 1.01115L7.40535 1.01129L7.40521 1.01144L7.40506 1.01158L7.40492 1.01173L7.40477 1.01187L7.40463 1.01202L7.40448 1.01216L7.40434 1.01231L7.40419 1.01245L7.40405 1.0126L7.4039 1.01274L7.40376 1.01289L7.40361 1.01303L7.40347 1.01318L7.40332 1.01332L7.40318 1.01347L7.40303 1.01361L7.40289 1.01376L7.40274 1.0139L7.4026 1.01405L7.40245 1.01419L7.40231 1.01434L7.40216 1.01448L7.40202 1.01463L7.40187 1.01477L7.40173 1.01492L7.40158 1.01506L7.40144 1.01521L7.40129 1.01535L7.40115 1.0155L7.401 1.01564L7.40086 1.01579L7.40071 1.01593L7.40057 1.01608L7.40042 1.01622L7.40028 1.01637L7.40013 1.01651L7.39999 1.01666L7.39984 1.0168L7.3997 1.01695L7.39955 1.01709L7.39941 1.01724L7.39926 1.01738L7.39912 1.01753L7.39897 1.01767L7.39883 1.01782L7.39868 1.01796L7.39854 1.01811L7.39839 1.01825L7.39825 1.0184L7.3981 1.01854L7.39796 1.01869L7.39781 1.01883L7.39767 1.01898L7.39752 1.01912L7.39738 1.01927L7.39723 1.01941L7.39709 1.01956L7.39694 1.0197L7.3968 1.01985L7.39665 1.01999L7.39651 1.02014L7.39636 1.02028L7.39622 1.02043L7.39607 1.02057L7.39593 1.02072L7.39578 1.02086L7.39564 1.02101L7.39549 1.02115L7.39535 1.0213L7.3952 1.02144L7.39288 1.02376L7.39274 1.02391L7.39259 1.02405L7.3923 1.02434L7.39216 1.02449L7.39201 1.02463C7.39137 1.02528 7.39162 1.02503 7.39187 1.02478L7.39172 1.02492L7.39056 1.02608L7.3894 1.02724L7.38882 1.02782L7.38868 1.02797L7.38853 1.02811L7.38824 1.0284L7.3881 1.02855L7.38795 1.02869L7.38766 1.02898L7.38752 1.02913L7.38737 1.02927L7.38723 1.02942L7.38708 1.02956L7.38693 1.02971L7.38679 1.02985L7.3865 1.03014L7.38592 1.03072L7.38577 1.03087L7.38563 1.03101L7.38548 1.03116L7.38534 1.0313L7.38519 1.03145L7.38505 1.03159L7.3849 1.03174L7.38476 1.03188L7.38461 1.03203L7.38447 1.03217L7.38432 1.03232L7.38418 1.03246L7.38389 1.03275L7.38374 1.0329L7.3836 1.03304L7.38244 1.0342L7.38128 1.03536L7.38128 1.03536L7.35653 1.06011L7.35653 1.06012C7.31644 1.1002 7.3045 1.15022 7.29996 1.17746C7.29514 1.20639 7.29516 1.23366 7.29517 1.24608C7.29517 1.24658 7.29517 1.24705 7.29517 1.24751V17.8057C7.29517 17.9083 7.32993 18.0036 7.39984 18.0735C7.46975 18.1434 7.56501 18.1782 7.66767 18.1782C7.8522 18.1782 8.04018 18.0312 8.04018 17.8057V11.0842L19.891 6.38809L19.8912 6.38852L19.9009 6.38368C19.9652 6.35152 20.021 6.3075 20.0604 6.2484C20.0975 6.19274 20.1158 6.13004 20.1182 6.06415C20.15 5.90735 20.0661 5.76006 19.9256 5.68981ZM8.06493 10.271V1.80286L18.7628 6.0488L8.06493 10.271Z" fill="black" stroke="black" stroke-width="0.25"/>
<path d="M6.44143 16.1729L6.44149 16.1736L6.45487 16.1709C6.54573 16.1528 6.63145 16.1003 6.6915 16.0317C6.75139 15.9632 6.79802 15.8632 6.77569 15.7516C6.75752 15.6607 6.70505 15.575 6.63643 15.515C6.56946 15.4564 6.47229 15.4105 6.36354 15.4294C5.0448 15.5544 3.93464 15.8414 3.14962 16.2434C2.37014 16.6426 1.875 17.176 1.875 17.8057C1.875 18.1759 2.04866 18.5139 2.34563 18.8076C2.64165 19.1004 3.06538 19.3549 3.5836 19.5644C4.62048 19.9835 6.06057 20.2325 7.69264 20.2325C9.32471 20.2325 10.7648 19.9835 11.8017 19.5644C12.3199 19.3549 12.7436 19.1004 13.0397 18.8076C13.3366 18.5139 13.5103 18.1759 13.5103 17.8057C13.5103 17.176 13.0151 16.6426 12.2357 16.2434C11.4503 15.8412 10.3396 15.5541 9.02021 15.4293C8.91376 15.4128 8.81545 15.4399 8.74002 15.5053C8.66631 15.5692 8.62473 15.6604 8.60887 15.7556C8.59082 15.8638 8.61776 15.964 8.68411 16.0405C8.74799 16.1142 8.83919 16.1558 8.93437 16.1717L8.93431 16.172L8.94397 16.1729C10.0603 16.271 11.0297 16.5099 11.716 16.8183C12.0595 16.9726 12.3263 17.1418 12.5053 17.3147C12.6848 17.4881 12.7653 17.6543 12.7653 17.8057C12.7653 17.962 12.665 18.1484 12.4291 18.3474C12.1961 18.5441 11.8481 18.7374 11.3981 18.9077C10.4992 19.2478 9.21528 19.4875 7.69264 19.4875C6.16959 19.4875 4.88561 19.2539 3.98681 18.9169C3.53687 18.7481 3.18919 18.5556 2.95642 18.3581C2.72139 18.1587 2.62001 17.9691 2.62001 17.8057C2.62001 17.6549 2.70137 17.4889 2.88305 17.3151C3.064 17.1421 3.33322 16.9728 3.6784 16.8184C4.36796 16.5099 5.33751 16.271 6.44143 16.1729Z" fill="black" stroke="black" stroke-width="0.25"/>
</svg>
