<svg width="22" height="22" viewBox="0 0 22 22" fill="none" xmlns="http://www.w3.org/2000/svg">
<g clip-path="url(#clip0_627_244)">
<path d="M10.9748 18.9685L11.1516 18.7797C14.1246 15.6025 17.5376 11.4564 17.5376 7.56272C17.5376 3.94407 14.5938 1 10.9751 1H10.9748C7.35618 1 4.41211 3.94407 4.41211 7.56272C4.41211 11.4564 7.825 15.6025 10.7981 18.7797L10.9748 18.9685ZM10.9751 1.48397C14.3266 1.48427 17.0536 4.21094 17.0536 7.56272C17.0536 11.2119 13.8442 15.1737 10.9748 18.2596C8.10542 15.1737 4.89606 11.2119 4.89606 7.56272C4.89606 4.21094 7.62305 1.48397 10.9751 1.48397Z" fill="black" stroke="black" stroke-width="0.5"/>
<path d="M14.3663 16.2991C14.2356 16.2711 14.1076 16.3568 14.0809 16.4875C14.0541 16.6186 14.1385 16.7465 14.2693 16.773C16.2114 17.17 17.466 17.8956 17.466 18.6218C17.466 19.6436 14.8002 20.7823 10.9752 20.7823C7.14982 20.7823 4.48395 19.6436 4.48395 18.6218C4.48395 17.8956 5.73859 17.17 7.68072 16.773C7.81148 16.7465 7.89591 16.6186 7.86914 16.4875C7.84267 16.3568 7.71475 16.2711 7.58368 16.2991C5.33971 16.7575 4 17.6259 4 18.6218C4 20.1046 7.0638 21.2663 10.9752 21.2663C14.8862 21.2663 17.95 20.1046 17.95 18.6218C17.95 17.6259 16.6103 16.7575 14.3663 16.2991Z" fill="black" stroke="black" stroke-width="0.5"/>
<path d="M15.0884 7.56268C15.0884 5.29382 13.2427 3.4481 10.9738 3.4481C8.70492 3.4481 6.85889 5.29382 6.85889 7.56268C6.85889 9.83153 8.70492 11.6773 10.9738 11.6773C13.2427 11.6773 15.0884 9.83153 15.0884 7.56268ZM7.34284 7.56268C7.34284 5.56069 8.97179 3.93206 10.9738 3.93206C12.9758 3.93206 14.6044 5.56069 14.6044 7.56268C14.6044 9.56467 12.9758 11.1933 10.9738 11.1933C8.97179 11.1933 7.34284 9.56467 7.34284 7.56268Z" fill="black" stroke="black" stroke-width="0.5"/>
</g>
<defs>
<clipPath id="clip0_627_244">
<rect width="20.7343" height="21.4286" fill="white" transform="translate(0.366455)"/>
</clipPath>
</defs>
</svg>
