<svg width="22" height="22" viewBox="0 0 22 22" fill="none" xmlns="http://www.w3.org/2000/svg">
<path d="M17.8013 17.611C17.7536 17.5566 17.715 17.4947 17.6872 17.4277C17.6539 17.3474 17.6368 17.2614 17.6368 17.1745C17.6368 17.0877 17.6539 17.0016 17.6872 16.9214C17.7205 16.8411 17.7692 16.7682 17.8306 16.7068C17.8306 16.7068 17.8306 16.7068 17.8306 16.7068M17.8013 17.611L17.8306 16.7068M17.8013 17.611V17.6137L17.8306 17.643C17.9232 17.7356 18.0412 17.7987 18.1696 17.8242C18.298 17.8498 18.4312 17.8367 18.5522 17.7866C18.6731 17.7365 18.7765 17.6516 18.8493 17.5428C18.9221 17.4339 18.9609 17.3059 18.9609 17.1749C18.9609 17.044 18.9221 16.916 18.8493 16.8071C18.7765 16.6982 18.6731 16.6134 18.5522 16.5633C18.4312 16.5132 18.298 16.5001 18.1696 16.5256C18.0412 16.5512 17.9232 16.6142 17.8307 16.7068M17.8013 17.611L17.8307 16.7068M17.8306 16.7068C17.8306 16.7068 17.8307 16.7068 17.8307 16.7068M17.8306 16.7068L17.8307 16.7068M18.0892 16.9655C18.1307 16.9241 18.1834 16.8959 18.2409 16.8845C18.2983 16.8731 18.3579 16.8789 18.412 16.9013C18.4661 16.9238 18.5123 16.9617 18.5449 17.0104C18.5774 17.0591 18.5948 17.1164 18.5948 17.1749C18.5948 17.2335 18.5774 17.2907 18.5449 17.3394C18.5123 17.3881 18.4661 17.4261 18.412 17.4485C18.3579 17.4709 18.2983 17.4768 18.2409 17.4654C18.1834 17.454 18.1307 17.4258 18.0892 17.3844L18.0185 17.4551L18.0894 17.3845C18.0339 17.3289 18.0028 17.2535 18.0028 17.1749C18.0028 17.0964 18.0339 17.021 18.0894 16.9653L18.0185 16.8947L18.0892 16.9655Z" fill="black" stroke="black" stroke-width="0.2" stroke-miterlimit="10"/>
<path d="M13.0784 16.498C13.2625 16.6387 13.4989 16.7104 13.7392 16.6982C13.9707 16.6952 14.2001 16.6588 14.4189 16.5902C14.4391 16.5838 14.4574 16.5735 14.4727 16.5599L14.8721 16.1977L17.2423 18.346C17.5914 18.6697 18.0677 18.8549 18.5669 18.861C18.772 18.8629 18.9754 18.828 19.1656 18.7584C19.3558 18.6888 19.5289 18.5858 19.675 18.4553C20.3141 17.8758 20.256 16.8866 19.5574 16.2491L17.1886 14.0969L17.8364 13.5095C17.8424 13.5044 17.8478 13.4986 17.8523 13.4923L19.7869 10.8265C19.8053 10.8011 19.8136 10.7707 19.8101 10.7404C19.8067 10.7102 19.7918 10.6819 19.768 10.6605L15.4763 6.76706C15.4555 6.7497 15.4296 6.73822 15.4017 6.73401C15.3739 6.7298 15.3453 6.73304 15.3194 6.74335L10.8548 8.35157C9.46055 7.05815 9.2151 5.98995 9.0016 5.04557C8.8186 4.2408 8.64722 3.47818 7.81647 2.72478C6.3641 1.40765 3.11951 2.28091 2.98299 2.31779C2.95752 2.32394 2.93438 2.33625 2.91604 2.35342C2.8977 2.37058 2.88486 2.39195 2.87889 2.41523C2.87292 2.43851 2.87405 2.46283 2.88215 2.48557C2.89026 2.50831 2.90503 2.52862 2.92489 2.54433L5.39392 4.76765L4.47021 6.36138L2.54583 4.61618C2.51861 4.59165 2.4818 4.57788 2.44343 4.57788C2.40506 4.57788 2.36825 4.59165 2.34104 4.61618C2.32661 4.62885 2.31524 4.6441 2.30764 4.66096C2.29602 4.68862 1.12541 7.39665 3.42886 8.4464C3.43861 8.45185 3.44949 8.45543 3.46082 8.45694L4.38743 8.65188C6.92907 9.17873 7.19485 9.23536 8.74453 10.6381L9.54333 11.3625L8.99288 11.8617C8.97898 11.8745 8.9681 11.8898 8.96093 11.9065C8.94786 11.9342 8.65303 12.6085 9.02484 13.0182C9.19767 13.2065 9.47507 13.3014 9.85269 13.3014H9.97614C9.95607 13.3198 9.94243 13.3431 9.93692 13.3685C9.81347 13.9112 9.89335 14.3037 10.1737 14.5342C10.3742 14.6837 10.6289 14.7602 10.8882 14.7489C11.0626 14.7488 11.2362 14.7266 11.4038 14.683C11.3733 15.0637 11.4677 15.3416 11.6943 15.5194C11.8773 15.6468 12.1044 15.7108 12.3348 15.6998C12.5123 15.6973 12.6886 15.6734 12.8591 15.6287C12.7923 16.0239 12.8649 16.3163 13.0784 16.498ZM19.3526 16.4322C19.9423 16.9669 19.9946 17.7901 19.4703 18.2669C18.946 18.7437 18.0368 18.695 17.4471 18.1603L15.0783 16.0107L15.331 15.7815L16.551 16.8879C16.5782 16.9124 16.615 16.9262 16.6534 16.9262C16.6918 16.9262 16.7286 16.9124 16.7558 16.8879L17.9496 15.8052C17.9767 15.7805 17.9919 15.7472 17.9919 15.7124C17.9919 15.6776 17.9767 15.6442 17.9496 15.6195L16.7296 14.5131L16.9824 14.2839L19.3526 16.4322ZM16.5249 14.6988L17.6417 15.7117L16.6541 16.6087L15.5358 15.5945L16.5249 14.6988ZM2.50225 4.95205L4.32933 6.61164L3.43322 8.14873C1.83562 7.32025 2.29457 5.54081 2.50225 4.94942V4.95205ZM8.94496 10.4498C7.63783 9.26434 7.17307 9.00092 5.64518 8.64924L5.81946 8.27122C5.8268 8.25522 5.8306 8.23807 5.83063 8.22074C5.83067 8.20341 5.82693 8.18624 5.81965 8.17022C5.81237 8.1542 5.80168 8.13963 5.78819 8.12736C5.7747 8.11508 5.75868 8.10534 5.74103 8.09868C5.72339 8.09202 5.70448 8.08858 5.68537 8.08855C5.66626 8.08852 5.64733 8.0919 5.62966 8.09851C5.61199 8.10511 5.59593 8.11481 5.5824 8.12704C5.56886 8.13927 5.55812 8.15381 5.55077 8.16981L5.36051 8.58734L4.45133 8.39635L3.71062 8.24093L5.70763 4.79663C5.7223 4.77203 5.72795 4.74384 5.72377 4.71613C5.71959 4.68843 5.7058 4.66265 5.68439 4.64252L3.30687 2.51272C4.07662 2.33886 6.49481 1.89894 7.61023 2.90786C7.71814 3.00506 7.81905 3.10845 7.91232 3.21739L7.27038 4.61487C7.25538 4.64701 7.25507 4.68323 7.2695 4.71558C7.28393 4.74793 7.31193 4.77376 7.34735 4.78741C7.36526 4.79433 7.38453 4.79791 7.40399 4.79795C7.43267 4.79782 7.46066 4.78999 7.48444 4.77546C7.50821 4.76093 7.52672 4.74034 7.53761 4.71628L8.10985 3.47423C8.46422 3.98791 8.58477 4.51345 8.71694 5.09825C8.94205 6.094 9.19767 7.22279 10.7154 8.59919L11.6507 9.44742L11.3966 9.6766L7.63347 6.26391L7.72787 6.08478L7.73659 6.05844C7.74393 6.04695 7.74932 6.03452 7.75256 6.02156C7.801 5.88687 7.79349 5.74076 7.73143 5.61073C7.66937 5.48071 7.55705 5.37574 7.41561 5.31558L7.01621 5.13645C6.86151 5.07127 6.68463 5.06433 6.5243 5.11716C6.36397 5.16999 6.23325 5.27828 6.16077 5.41832L5.34889 6.99887C5.27698 7.13882 5.26916 7.29891 5.32715 7.44407C5.38513 7.58923 5.50419 7.70764 5.65825 7.77335L6.0591 7.94194C6.14389 7.97868 6.23673 7.99759 6.3307 7.99726C6.40755 7.99715 6.48377 7.98466 6.55581 7.96038C6.59199 7.94814 6.62697 7.93316 6.66038 7.9156L10.0008 10.945L9.75102 11.1742L8.94496 10.4498ZM10.2042 10.7593L6.86371 7.72988C6.88244 7.70686 6.8985 7.68214 6.91164 7.65612L7.1019 7.28864L7.49985 6.5168L11.1889 9.86232L10.2042 10.7593ZM6.57324 7.64954C6.53942 7.67727 6.49995 7.69875 6.45705 7.71276C6.41376 7.72737 6.36768 7.73397 6.32153 7.73216C6.27538 7.73035 6.2301 7.72017 6.18836 7.70222L5.78315 7.53363C5.69845 7.49754 5.63274 7.43275 5.60015 7.35318C5.58181 7.30316 5.57634 7.25 5.58418 7.19776L6.7606 7.32947L6.65167 7.54285C6.63148 7.5808 6.60393 7.61515 6.57034 7.64427L6.57324 7.64954ZM6.36846 5.63828L6.42365 5.53027C6.46338 5.45345 6.535 5.394 6.62288 5.36488C6.71077 5.33576 6.80778 5.33935 6.89276 5.37485L7.29362 5.54476C7.35477 5.57066 7.40636 5.61204 7.44218 5.66392C7.478 5.7158 7.49651 5.77596 7.49549 5.83716L6.36846 5.63828ZM6.2421 5.88458L7.40399 6.08874L7.32557 6.24152L7.20793 6.46939L6.0257 6.30606L6.2421 5.88458ZM5.89644 6.555L7.07866 6.71833L6.88986 7.08449L5.69601 6.94487L5.89644 6.555ZM11.8787 15.3113C11.6362 15.119 11.6681 14.7094 11.7437 14.3893L13.6158 12.6902C13.6303 12.679 13.6422 12.6652 13.6508 12.6498C13.6595 12.6344 13.6647 12.6176 13.6662 12.6003C13.6677 12.5831 13.6654 12.5658 13.6595 12.5493C13.6536 12.5329 13.6441 12.5176 13.6317 12.5045C13.6193 12.4913 13.6042 12.4805 13.5872 12.4727C13.5702 12.4649 13.5517 12.4601 13.5327 12.4588C13.5136 12.4574 13.4945 12.4595 13.4764 12.4649C13.4583 12.4702 13.4415 12.4788 13.427 12.49C13.4209 12.4941 13.4156 12.499 13.411 12.5045L11.2818 14.4315C11.1482 14.4617 10.6399 14.5632 10.3639 14.33C10.1708 14.172 10.1199 13.8756 10.2085 13.4515L12.3348 11.5245C12.3621 11.4997 12.3775 11.4661 12.3775 11.431C12.3775 11.3959 12.3621 11.3623 12.3348 11.3375C12.3074 11.3127 12.2703 11.2988 12.2317 11.2988C12.193 11.2988 12.1559 11.3127 12.1285 11.3375L10.3029 12.9931C9.77862 13.0814 9.41262 13.0313 9.2456 12.8496C9.01322 12.5954 9.17298 12.1357 9.21655 12.0264L9.84688 11.4547L12.3014 9.22878C12.3284 9.2041 12.3436 9.17072 12.3436 9.13592C12.3436 9.10112 12.3284 9.06774 12.3014 9.04306C12.2742 9.01853 12.2374 9.00476 12.199 9.00476C12.1606 9.00476 12.1238 9.01853 12.0966 9.04306L11.8555 9.26171L11.077 8.55572L15.3383 7.01468L19.4819 10.7698L17.6199 13.329L16.8807 13.9994L16.4217 14.4143L15.2308 15.4944L14.7733 15.9093L14.2911 16.3584C14.0675 16.4256 13.5257 16.5257 13.2745 16.3136C13.0232 16.1016 13.1133 15.7051 13.2149 15.3785L14.8982 13.8559C14.9253 13.8312 14.9404 13.7978 14.9404 13.763C14.9404 13.7282 14.9253 13.6948 14.8982 13.6701C14.871 13.6456 14.8342 13.6318 14.7958 13.6318C14.7574 13.6318 14.7206 13.6456 14.6934 13.6701L12.8053 15.3824C12.6122 15.4272 12.13 15.5128 11.8787 15.3113Z" fill="black" stroke="black" stroke-width="0.25" stroke-miterlimit="10"/>
</svg>
