<svg width="22" height="22" viewBox="0 0 22 22" fill="none" xmlns="http://www.w3.org/2000/svg">
<path fill-rule="evenodd" clip-rule="evenodd" d="M11.0807 14.4084H15.8844C15.9959 14.408 16.1027 14.3642 16.1815 14.2865C16.2603 14.2087 16.3047 14.1033 16.3051 13.9934V6.07371C16.3047 5.96375 16.2603 5.85838 16.1815 5.78062C16.1027 5.70286 15.9959 5.65904 15.8844 5.65871H3.92053C3.80908 5.65904 3.70228 5.70286 3.62347 5.78062C3.54466 5.85838 3.50024 5.96375 3.49991 6.07371V13.9934C3.50024 14.1033 3.54466 14.2087 3.62347 14.2865C3.70228 14.3642 3.80908 14.408 3.92053 14.4084H6.41653C6.48283 14.4084 6.5464 14.4344 6.59328 14.4806C6.64015 14.5269 6.66649 14.5896 6.66649 14.655V17.9329C6.66556 17.9487 6.66968 17.9644 6.67825 17.9778C6.68683 17.9912 6.69944 18.0016 6.71431 18.0076C6.72892 18.0144 6.74524 18.0168 6.76124 18.0146C6.77693 18.0121 6.79152 18.0051 6.8032 17.9944L10.9177 14.4689C10.9629 14.4302 11.0208 14.4089 11.0807 14.4091V14.4084ZM5.51929 11.8475C5.45413 11.8458 5.39222 11.8191 5.34674 11.773C5.30127 11.7269 5.27582 11.6651 5.27582 11.6008C5.27582 11.5365 5.30127 11.4747 5.34674 11.4287C5.39222 11.3826 5.45413 11.3558 5.51929 11.3541H14.2857C14.3191 11.3533 14.3523 11.359 14.3834 11.371C14.4146 11.383 14.4429 11.401 14.4669 11.424C14.4908 11.447 14.5098 11.4745 14.5228 11.5049C14.5358 11.5352 14.5425 11.5679 14.5425 11.6008C14.5425 11.6338 14.5358 11.6664 14.5228 11.6968C14.5098 11.7272 14.4908 11.7546 14.4669 11.7776C14.4429 11.8006 14.4146 11.8187 14.3834 11.8307C14.3523 11.8427 14.3191 11.8484 14.2857 11.8475H5.51929ZM5.51929 10.2807C5.45413 10.279 5.39222 10.2522 5.34674 10.2061C5.30127 10.1601 5.27582 10.0983 5.27582 10.034C5.27582 9.96967 5.30127 9.9079 5.34674 9.86182C5.39222 9.81574 5.45413 9.78899 5.51929 9.78728H14.2857C14.3191 9.7864 14.3523 9.79213 14.3834 9.80414C14.4146 9.81614 14.4429 9.83417 14.4669 9.85716C14.4908 9.88016 14.5098 9.90765 14.5228 9.93802C14.5358 9.96839 14.5425 10.001 14.5425 10.034C14.5425 10.0669 14.5358 10.0996 14.5228 10.1299C14.5098 10.1603 14.4908 10.1878 14.4669 10.2108C14.4429 10.2338 14.4146 10.2518 14.3834 10.2638C14.3523 10.2758 14.3191 10.2816 14.2857 10.2807H5.51929ZM5.51929 8.71366C5.453 8.71366 5.38942 8.68767 5.34254 8.64143C5.29567 8.59518 5.26933 8.53245 5.26933 8.46704C5.26933 8.40164 5.29567 8.33891 5.34254 8.29266C5.38942 8.24641 5.453 8.22043 5.51929 8.22043H10.6658C10.6986 8.22043 10.7311 8.22681 10.7614 8.2392C10.7918 8.2516 10.8193 8.26976 10.8425 8.29266C10.8657 8.31556 10.8841 8.34275 10.8967 8.37267C10.9093 8.40259 10.9157 8.43466 10.9157 8.46704C10.9157 8.49943 10.9093 8.5315 10.8967 8.56142C10.8841 8.59134 10.8657 8.61853 10.8425 8.64143C10.8193 8.66433 10.7918 8.68249 10.7614 8.69488C10.7311 8.70728 10.6986 8.71366 10.6658 8.71366H5.51929ZM16.8052 12.2429V6.07371C16.8048 5.83292 16.7076 5.6021 16.5351 5.43185C16.3625 5.2616 16.1285 5.16581 15.8844 5.16549H5.69476V3.90822C5.69508 3.79826 5.7395 3.69289 5.81832 3.61513C5.89713 3.53738 6.00392 3.49355 6.11538 3.49322H18.0798C18.1913 3.4935 18.2982 3.53731 18.377 3.61507C18.4558 3.69283 18.5003 3.79823 18.5006 3.90822V11.8279C18.5003 11.9379 18.4558 12.0433 18.377 12.121C18.2982 12.1988 18.1913 12.2426 18.0798 12.2429H16.8052ZM5.19484 5.16549V3.90822C5.19522 3.66746 5.29233 3.43667 5.46488 3.26642C5.63743 3.09618 5.87135 3.00037 6.11538 3H18.0798C18.3238 3.00046 18.5576 3.09631 18.7301 3.26655C18.9026 3.43678 18.9996 3.66752 19 3.90822V11.8279C18.9996 12.0686 18.9024 12.2994 18.7298 12.4696C18.5573 12.6398 18.3233 12.7356 18.0793 12.7359H16.8052V13.993C16.8048 14.2338 16.7077 14.4647 16.5351 14.635C16.3625 14.8053 16.1285 14.9011 15.8844 14.9014H11.1733L7.12942 18.3663C7.0453 18.4388 6.94177 18.4858 6.83125 18.5017C6.72074 18.5176 6.60791 18.5017 6.5063 18.456C6.40468 18.4103 6.31859 18.3366 6.25834 18.2438C6.19808 18.151 6.16623 18.0431 6.16658 17.9329V14.9018H3.92053C3.67648 14.9014 3.44253 14.8056 3.26997 14.6353C3.09741 14.465 3.00033 14.2342 3 13.9934V6.07371C3.00038 5.83295 3.09748 5.60215 3.27003 5.43191C3.44259 5.26167 3.67651 5.16586 3.92053 5.16549H5.19484Z" fill="black" stroke="black" stroke-width="0.2"/>
</svg>
