<svg width="22" height="22" viewBox="0 0 22 22" fill="none" xmlns="http://www.w3.org/2000/svg">
<path d="M14.9034 15.7748C15.0792 15.7286 15.2017 15.5697 15.2017 15.3879V13.0266L17.6336 15.7075L17.6339 15.7078C17.7237 15.8067 17.8352 15.9007 17.9695 15.9546C18.1131 16.0122 18.2949 16.0258 18.4662 15.9308C18.6249 15.8426 18.709 15.6969 18.7525 15.5744C18.7969 15.4493 18.8135 15.3103 18.8135 15.171V6.42385C18.8135 6.28562 18.7963 6.14718 18.7505 6.02213C18.7055 5.89905 18.6202 5.75695 18.4642 5.67027C18.2971 5.57741 18.1182 5.58616 17.9727 5.64138C17.8369 5.69297 17.7237 5.78543 17.6325 5.88389C17.6323 5.88405 17.6322 5.88421 17.632 5.88437L15.1629 8.53853V6.97005C15.1629 6.67548 15.0693 6.38004 14.8846 6.151C14.6981 5.91967 14.4243 5.76682 14.1152 5.76682H4.33148C4.02242 5.76682 3.74866 5.91967 3.56214 6.151C3.37747 6.38004 3.28384 6.67548 3.28384 6.97005V14.6409C3.28384 14.9355 3.37747 15.2309 3.56214 15.4599C3.74866 15.6913 4.02242 15.8441 4.33148 15.8441H14.1378C14.3949 15.8642 14.6527 15.8407 14.9034 15.7748Z" stroke="black" stroke-width="0.8" stroke-linecap="round" stroke-linejoin="round"/>
</svg>
