<svg width="21" height="22" viewBox="0 0 21 22" fill="none" xmlns="http://www.w3.org/2000/svg">
<path d="M12.722 13.5476V2.74127H13.7791V13.5344L12.722 13.5476ZM11.854 13.3381L11.5662 13.4851L11.5664 2.74127H12.622V13.5328L11.8899 13.3344L11.8712 13.3293L11.854 13.3381ZM16.72 4.02403H14.4573V2V1.95H14.4073H10.9382H10.8882V2V4.02403H4H3.95V4.07403V20.32V20.37H4H16.72H16.77V20.32V4.07403V4.02403H16.72ZM12.6522 14.5123L12.6724 14.521L12.6924 14.512L13.4402 14.1773L13.6756 14.2871L12.815 16.1221H12.5427L11.6757 14.2736L11.8733 14.1773L12.6522 14.5123ZM10.8928 14.1765L11.1506 14.7394H5.44553H5.39553V14.7894V15.4807V15.5307H5.44553H11.5129L12.4167 17.5047H5.44553H5.39553V17.5547V18.246V18.296H5.44553H12.6728H12.7228V18.246V17.9544L13.8326 15.5307H15.2746H15.3246V15.4807V14.7894V14.7394H15.2746H14.1949L14.4527 14.1765L14.4573 14.1666V14.1557V12.7654H15.2745H15.3245V12.7154V12.0241V11.9741H15.2745H14.4573V10.0003H15.2745H15.3245V9.95027V9.25879V9.20879H15.2745H14.4573V6.88933H15.2745H15.3245V6.83933V6.14806V6.09805H15.2745H14.4573V4.81551H16.0919V19.5787H4.62814V4.8153H10.8881V6.09785H5.44553H5.39553V6.14785V6.83913V6.88913H5.44553H10.8882V9.20879H5.44553H5.39553V9.25879V9.95007V10.0001H5.44553H10.8882V11.9741H5.44553H5.39553V12.0241V12.7154V12.7654H5.44553H10.8882V14.1557V14.1666L10.8928 14.1765Z" fill="black" stroke="black" stroke-width="0.1"/>
</svg>
