<svg width="20" height="22" viewBox="0 0 20 22" fill="none" xmlns="http://www.w3.org/2000/svg">
<g clip-path="url(#clip0_212_887)">
<path d="M10.1935 4.91179C9.81045 4.88601 9.42617 4.93913 9.06446 5.06787C8.70276 5.19661 8.37133 5.39822 8.0907 5.66023C7.81007 5.92224 7.5862 6.23907 7.43297 6.5911C7.27973 6.94312 7.20039 7.32286 7.19985 7.70679V9.28925H6.63469C6.49297 9.28925 6.35706 9.34555 6.25685 9.44576C6.15664 9.54596 6.10035 9.68188 6.10035 9.82359V15.3554C6.09974 15.4764 6.14051 15.594 6.21588 15.6887C6.29126 15.7834 6.39672 15.8495 6.5148 15.876L6.8265 15.9479C8.91497 16.4377 11.0884 16.4377 13.1769 15.9479L13.4886 15.876C13.6061 15.8483 13.7109 15.7819 13.786 15.6875C13.8612 15.593 13.9024 15.4761 13.9031 15.3554V9.82359C13.9031 9.68188 13.8468 9.54596 13.7466 9.44576C13.6463 9.34555 13.5104 9.28925 13.3687 9.28925H12.8036V7.80612C12.8126 7.08376 12.5488 6.38457 12.0651 5.84808C11.5813 5.31159 10.913 4.97725 10.1935 4.91179ZM10.7244 14.2524H9.27555L9.49819 12.7282C9.3101 12.6228 9.15993 12.4609 9.06895 12.2654C8.97797 12.0699 8.95079 11.8508 8.99125 11.639C9.02862 11.4343 9.12722 11.2459 9.274 11.0985C9.42078 10.9511 9.60884 10.8517 9.81331 10.8135C10.0502 10.7747 10.2931 10.82 10.5001 10.9416C10.707 11.0632 10.8649 11.2534 10.9462 11.4792C11.0276 11.705 11.0274 11.9521 10.9456 12.1778C10.8638 12.4034 10.7055 12.5933 10.4984 12.7145L10.721 14.2387L10.7244 14.2524ZM11.6527 9.28583H8.34388V7.8712C8.33847 7.4612 8.48034 7.06287 8.7437 6.7486C9.00706 6.43432 9.37444 6.22497 9.77906 6.15858C10.0126 6.12786 10.2499 6.14735 10.4753 6.21575C10.7007 6.28415 10.9088 6.39987 11.0859 6.55519C11.2629 6.71051 11.4048 6.90184 11.5019 7.11639C11.5991 7.33094 11.6493 7.56375 11.6492 7.79927V9.27213L11.6527 9.28583Z" fill="#949596"/>
<path d="M19.4554 12.4884C19.3569 12.4578 19.2533 12.447 19.1506 12.4567C19.0479 12.4663 18.9481 12.4962 18.8571 12.5446C18.766 12.593 18.6854 12.659 18.6199 12.7387C18.5545 12.8184 18.5055 12.9103 18.4758 13.0091C17.9922 14.5458 17.1008 15.9225 15.8966 16.9926C14.4217 18.3116 12.5335 19.0758 10.5565 19.1539C8.57942 19.2321 6.63685 18.6193 5.06251 17.4208C4.71444 17.1498 4.387 16.8532 4.08289 16.5337L4.80561 16.1363C4.84749 16.1115 4.88218 16.0761 4.90628 16.0338C4.93037 15.9914 4.94304 15.9436 4.94304 15.8949C4.94304 15.8461 4.93037 15.7983 4.90628 15.7559C4.88218 15.7136 4.84749 15.6782 4.80561 15.6534L1.19883 13.4681C1.15729 13.4432 1.11003 13.4295 1.06163 13.4283C1.01323 13.4271 0.965343 13.4384 0.922607 13.4611C0.87987 13.4839 0.843739 13.5173 0.817719 13.5581C0.791699 13.5989 0.776673 13.6458 0.7741 13.6941L0.691895 17.9243C0.692284 17.9718 0.704696 18.0184 0.72797 18.0597C0.751245 18.1011 0.784623 18.1359 0.824988 18.1609C0.865352 18.1858 0.911387 18.2002 0.958792 18.2025C1.0062 18.2049 1.05343 18.1952 1.09607 18.1744L1.89758 17.7325C2.43449 18.3189 3.03276 18.846 3.68213 19.3047C4.49052 19.8654 5.37073 20.3147 6.29902 20.6405C8.1508 21.2794 10.1424 21.3979 12.0569 20.9831C13.9459 20.5777 15.6858 19.6572 17.0836 18.3234C18.4814 16.9897 19.4825 15.2949 19.976 13.427C20.0269 13.2331 20.0016 13.0272 19.9055 12.8514C19.8093 12.6756 19.6495 12.5433 19.4588 12.4816L19.4554 12.4884Z" fill="#949596"/>
<path d="M1.52777 8.21373C2.01137 6.67703 2.90276 5.3003 4.10698 4.23017C5.58184 2.9112 7.46998 2.14701 9.44705 2.06888C11.4241 1.99075 13.3667 2.60355 14.941 3.80201C15.2891 4.07305 15.6165 4.36958 15.9206 4.68915L15.1979 5.08648C15.156 5.11136 15.1213 5.1467 15.0972 5.18904C15.0732 5.23137 15.0605 5.27925 15.0605 5.32796C15.0605 5.37667 15.0732 5.42455 15.0972 5.46688C15.1213 5.50922 15.156 5.54456 15.1979 5.56944L18.8047 7.75475C18.8462 7.77961 18.8935 7.79332 18.9419 7.79453C18.9903 7.79575 19.0382 7.78444 19.0809 7.76169C19.1237 7.73894 19.1598 7.70553 19.1858 7.66471C19.2118 7.62388 19.2269 7.57702 19.2294 7.52868L19.3116 3.30535C19.3124 3.25731 19.3009 3.20987 19.2781 3.16757C19.2553 3.12527 19.222 3.08953 19.1815 3.06375C19.1409 3.03798 19.0944 3.02304 19.0465 3.02036C18.9985 3.01769 18.9506 3.02736 18.9075 3.04846L18.1059 3.49032C17.569 2.90394 16.9708 2.37686 16.3214 1.91813C15.513 1.35742 14.6328 0.908105 13.7045 0.582284C11.8524 -0.0554646 9.86083 -0.172756 7.94667 0.243185C6.05806 0.648232 4.31848 1.56828 2.9207 2.90137C1.52292 4.23446 0.521529 5.92853 0.0275097 7.79585C-0.0184591 7.99046 0.0119727 8.19528 0.112534 8.36812C0.213096 8.54096 0.376125 8.66864 0.568026 8.72485C0.759927 8.78106 0.966078 8.76151 1.144 8.67024C1.32192 8.57897 1.45805 8.42293 1.52434 8.23428L1.52777 8.21373Z" fill="#949596"/>
</g>
<defs>
<clipPath id="clip0_212_887">
<rect width="20" height="21.2228" fill="white"/>
</clipPath>
</defs>
</svg>
