<svg width="20" height="15" viewBox="0 0 20 15" fill="none" xmlns="http://www.w3.org/2000/svg">
<path d="M19.7232 8.06364L13.0562 14.5448C12.4609 15.1234 11.4291 14.7184 11.4291 13.8889V10.1854H6.03205C5.50424 10.1854 5.07962 9.77265 5.07962 9.25957V5.55607C5.07962 5.04298 5.50424 4.63019 6.03205 4.63019H11.4291V0.926695C11.4291 0.101124 12.457 -0.307804 13.0562 0.270867L19.7232 6.75199C20.0923 7.11462 20.0923 7.70101 19.7232 8.06364ZM7.61943 14.3519V12.8088C7.61943 12.5541 7.40513 12.3458 7.14321 12.3458H3.80971C3.1073 12.3458 2.53981 11.7941 2.53981 11.1113V3.70432C2.53981 3.02149 3.1073 2.46982 3.80971 2.46982H7.14321C7.40513 2.46982 7.61943 2.2615 7.61943 2.00688V0.463758C7.61943 0.209142 7.40513 0.000820501 7.14321 0.000820501H3.80971C1.70643 0.000820501 0 1.65968 0 3.70432V11.1113C0 13.156 1.70643 14.8148 3.80971 14.8148H7.14321C7.40513 14.8148 7.61943 14.6065 7.61943 14.3519Z" fill="#949596"/>
</svg>
