<svg width="26" height="22" viewBox="0 0 26 22" fill="none" xmlns="http://www.w3.org/2000/svg">
<path d="M22.5269 21.0326H3.47579C2.5544 21.0312 1.67116 20.6645 1.01963 20.013C0.368111 19.3615 0.00144759 18.4782 0 17.5568V6.71074C0.000724824 5.78985 0.366867 4.90689 1.01803 4.25572C1.6692 3.60456 2.55216 3.23841 3.47305 3.23769H6.50274C6.68091 3.23774 6.85391 3.17784 6.99391 3.06763C7.13391 2.95742 7.23275 2.80331 7.27453 2.63011L7.52632 1.64211C7.64162 1.17277 7.91122 0.755769 8.29188 0.457993C8.67254 0.160217 9.14218 -0.00107069 9.62547 5.34938e-06H16.3855C16.8688 -0.00107069 17.3384 0.160217 17.7191 0.457993C18.0997 0.755769 18.3693 1.17277 18.4846 1.64211L18.7255 2.63011C18.7673 2.80331 18.8661 2.95742 19.0061 3.06763C19.1461 3.17784 19.3191 3.23774 19.4973 3.23769H22.5242C23.4456 3.23914 24.3288 3.6058 24.9804 4.25732C25.6319 4.90885 25.9986 5.79209 26 6.71348V17.5596C25.9993 18.4805 25.6331 19.3634 24.982 20.0146C24.3308 20.6658 23.4478 21.0319 22.5269 21.0326ZM3.47305 4.61158C2.91604 4.6123 2.38196 4.83352 1.98758 5.22688C1.5932 5.62023 1.37059 6.15373 1.36842 6.71074V17.5568C1.36842 18.1158 1.59045 18.6518 1.98565 19.047C2.38086 19.4422 2.91688 19.6642 3.47579 19.6642H22.5269C23.0849 19.6635 23.6198 19.4415 24.0143 19.047C24.4089 18.6524 24.6309 18.1175 24.6316 17.5596V6.71348C24.6309 6.15479 24.4086 5.6192 24.0135 5.22414C23.6185 4.82909 23.0829 4.60683 22.5242 4.60611H19.4973C19.0136 4.60732 18.5436 4.44613 18.1625 4.14838C17.7813 3.85064 17.5112 3.43356 17.3954 2.96401L17.1545 1.97601C17.1137 1.80279 17.0156 1.64847 16.8759 1.53815C16.7363 1.42784 16.5634 1.36802 16.3855 1.36843H9.61453C9.43635 1.36837 9.26335 1.42827 9.12335 1.53848C8.98336 1.64869 8.88451 1.8028 8.84274 1.97601L8.60463 2.96127C8.48878 3.43083 8.21865 3.8479 7.83753 4.14565C7.45641 4.4434 6.98637 4.60458 6.50274 4.60337L3.47305 4.61158ZM13 18.6762C11.7061 18.6773 10.4409 18.2946 9.3645 17.5765C8.28811 16.8584 7.44887 15.8372 6.95295 14.6421C6.45704 13.447 6.32672 12.1316 6.57849 10.8624C6.83026 9.59323 7.4528 8.42721 8.36737 7.51188C9.28193 6.59655 10.4474 5.97303 11.7164 5.7202C12.9854 5.46737 14.3009 5.59658 15.4964 6.0915C16.692 6.58641 17.7138 7.42479 18.4328 8.50058C19.1518 9.57637 19.5356 10.8412 19.5356 12.1352C19.5334 13.8683 18.8443 15.53 17.6193 16.7561C16.3943 17.9821 14.7332 18.6726 13 18.6762ZM13 6.95432C11.9767 6.95324 10.9761 7.25569 10.1247 7.82341C9.27339 8.39112 8.60955 9.1986 8.21721 10.1437C7.82487 11.0888 7.72165 12.129 7.92062 13.1327C8.11959 14.1365 8.6118 15.0587 9.33499 15.7826C10.0582 16.5066 10.9798 16.9998 11.9834 17.1998C12.9869 17.3998 14.0272 17.2977 14.9727 16.9064C15.9182 16.515 16.7264 15.852 17.295 15.0013C17.8636 14.1505 18.1672 13.1502 18.1672 12.127C18.1657 10.7565 17.621 9.44247 16.6525 8.47288C15.6839 7.50329 14.3705 6.95722 13 6.95432Z" fill="#0160D2"/>
</svg>
