<svg width="23" height="23" viewBox="0 0 23 23" fill="none" xmlns="http://www.w3.org/2000/svg">
<path fill-rule="evenodd" clip-rule="evenodd" d="M21.5946 4.7283L20.5723 5.75052L17.2501 2.4283L18.2723 1.40608C18.7095 0.971769 19.3006 0.728013 19.9168 0.728013C20.533 0.728013 21.1242 0.971769 21.5613 1.40608L21.6022 1.44441C22.0334 1.88265 22.2743 2.47318 22.2729 3.08793C22.2715 3.70268 22.0277 4.29208 21.5946 4.7283ZM1.51813 18.5999L4.40079 21.4851L0.823015 22.1853L1.51813 18.5999ZM3.21246 19.2796L18.1548 4.3373L16.739 2.93941L1.80179 17.869L3.21246 19.2796ZM3.72357 19.7907L5.13424 21.2014L20.074 6.26163L18.6633 4.85097L3.72357 19.7907ZM22.0699 0.894967C21.4979 0.324738 20.7232 0.00453186 19.9156 0.00453186C19.1079 0.00453186 18.3332 0.324738 17.7612 0.894967L1.04024 17.616C0.989164 17.6658 0.954412 17.73 0.94057 17.8L0.00779252 22.5712C-0.00151423 22.6173 -0.00162075 22.6649 0.00747898 22.7111C0.0165787 22.7573 0.0347058 22.8012 0.0608211 22.8404C0.0869364 22.8795 0.120526 22.9132 0.159665 22.9393C0.198805 22.9655 0.242723 22.9837 0.288904 22.9929C0.312683 22.9955 0.33668 22.9955 0.360459 22.9929C0.382528 22.9955 0.404835 22.9955 0.426904 22.9929L5.20068 22.0601C5.27085 22.0467 5.33515 22.0119 5.38468 21.9604L22.1057 5.23941C22.6759 4.66744 22.9961 3.89273 22.9961 3.08508C22.9961 2.27742 22.6759 1.50271 22.1057 0.930744L22.0699 0.894967Z" fill="#DD5027"/>
</svg>
