<svg width="81" height="81" viewBox="0 0 81 81" fill="none" xmlns="http://www.w3.org/2000/svg">
<g filter="url(#filter0_d_526_844)">
<circle cx="40.5" cy="38.5" r="32.5" fill="white"/>
</g>
<g clip-path="url(#clip0_526_844)">
<path d="M51.7936 24.9891H50.4241L50.0328 26.4238C49.8585 27.0656 49.4822 27.6342 48.9595 28.0453C48.4367 28.4564 47.7955 28.6882 47.1307 28.7063C46.7859 28.7179 46.4433 28.647 46.1314 28.4995C45.8194 28.3521 45.5472 28.1323 45.3373 27.8585C45.1263 27.5717 44.9841 27.2402 44.9219 26.8896C44.8597 26.539 44.8791 26.1787 44.9786 25.8369L45.2069 24.9891H40.8048L40.4135 26.4238C40.2321 27.0677 39.8493 27.6366 39.3213 28.0473C38.7932 28.458 38.1476 28.6889 37.4789 28.7063C37.1346 28.7145 36.7931 28.6421 36.4817 28.4949C36.1704 28.3477 35.8977 28.1298 35.6854 27.8585C35.4744 27.5717 35.3323 27.2402 35.2701 26.8896C35.2079 26.539 35.2273 26.1787 35.3268 25.8369L35.555 24.9891H34.1203C32.9944 25.0309 31.9108 25.4292 31.0259 26.1266C30.141 26.824 29.5004 27.7844 29.1965 28.8694L25.1532 43.771C24.9833 44.3092 24.945 44.8802 25.0414 45.4362C25.1379 45.9923 25.3663 46.5171 25.7075 46.9665C26.0394 47.3914 26.4655 47.7333 26.9522 47.9654C27.4388 48.1974 27.9727 48.3131 28.5118 48.3034H30.5008V49.1839C30.5034 50.2987 30.9474 51.3671 31.7357 52.1554C32.524 52.9436 33.5924 53.3876 34.7072 53.3902H51.7936C52.9084 53.3876 53.9768 52.9436 54.7651 52.1554C55.5534 51.3671 55.9974 50.2987 56 49.1839V29.1954C55.9974 28.0806 55.5534 27.0122 54.7651 26.2239C53.9768 25.4356 52.9084 24.9916 51.7936 24.9891ZM28.5444 45.7633C28.3976 45.7734 28.2505 45.7491 28.1147 45.6925C27.9788 45.636 27.858 45.5485 27.7618 45.4372C27.6627 45.2964 27.6017 45.1323 27.5845 44.961C27.5674 44.7896 27.5948 44.6167 27.664 44.459L30.99 32.0029H51.2719L48.1089 43.8069C47.8155 44.8829 46.6742 45.7959 45.6308 45.7959H28.5444V45.7633ZM53.4566 49.1871C53.4549 49.6276 53.2791 50.0496 52.9676 50.3611C52.6561 50.6726 52.2341 50.8484 51.7936 50.8501H34.7398C34.2993 50.8484 33.8773 50.6726 33.5658 50.3611C33.2543 50.0496 33.0786 49.6276 33.0768 49.1871V48.3067H45.6308C46.7567 48.2649 47.8402 47.8665 48.7251 47.1692C49.6101 46.4718 50.2506 45.5114 50.5545 44.4264L53.4566 33.6333V49.1871Z" fill="#F9A230"/>
<path d="M37.4788 27.5324C37.8829 27.5152 38.2711 27.3701 38.5876 27.1182C38.904 26.8662 39.1323 26.5203 39.2396 26.1303L39.6961 24.4021C39.8918 23.6195 39.4353 23 38.6853 23C38.2812 23.0173 37.8929 23.1623 37.5765 23.4143C37.2601 23.6662 37.0318 24.0121 36.9245 24.4021L36.468 26.1303C36.4117 26.2905 36.395 26.4619 36.4193 26.6299C36.4435 26.7979 36.508 26.9576 36.6073 27.0953C36.7066 27.233 36.8377 27.3447 36.9894 27.4208C37.1412 27.4969 37.3091 27.5352 37.4788 27.5324Z" fill="#F9A230"/>
<path d="M47.1307 27.5324C47.5348 27.5152 47.9231 27.3701 48.2395 27.1182C48.5559 26.8662 48.7842 26.5203 48.8915 26.1303L49.348 24.4021C49.5437 23.6195 49.0872 23 48.3372 23C47.9331 23.0173 47.5449 23.1623 47.2284 23.4143C46.912 23.6662 46.6837 24.0121 46.5764 24.4021L46.0873 26.1303C46.0307 26.2931 46.0149 26.4673 46.0411 26.6377C46.0673 26.808 46.1348 26.9694 46.2377 27.1077C46.3406 27.2459 46.4758 27.3569 46.6315 27.431C46.7871 27.505 46.9585 27.5399 47.1307 27.5324Z" fill="#F9A230"/>
<path d="M40.5766 39.6625H37.5441C37.437 39.6698 37.3342 39.7075 37.2476 39.771C37.161 39.8344 37.0942 39.9212 37.055 40.0211L36.4681 42.2385C36.4513 42.2796 36.4453 42.3243 36.4506 42.3684C36.456 42.4125 36.4725 42.4545 36.4986 42.4904C36.5247 42.5263 36.5596 42.555 36.5999 42.5737C36.6402 42.5924 36.6846 42.6004 36.7289 42.5971H39.7614C39.8685 42.5898 39.9714 42.5521 40.0579 42.4886C40.1445 42.4251 40.2113 42.3384 40.2505 42.2385L40.8375 40.0211C40.8543 39.98 40.8603 39.9353 40.8549 39.8912C40.8496 39.8471 40.833 39.8051 40.8069 39.7692C40.7808 39.7332 40.7459 39.7046 40.7056 39.6859C40.6653 39.6672 40.6209 39.6592 40.5766 39.6625Z" fill="#F9A230"/>
<path d="M35.229 39.6625H32.1965C32.0893 39.6698 31.9865 39.7075 31.8999 39.7709C31.8134 39.8344 31.7466 39.9212 31.7073 40.0211L31.1204 42.2384C31.1036 42.2796 31.0976 42.3243 31.103 42.3684C31.1083 42.4125 31.1248 42.4545 31.151 42.4904C31.1771 42.5263 31.212 42.555 31.2523 42.5737C31.2926 42.5923 31.337 42.6004 31.3813 42.5971H34.4138C34.5209 42.5897 34.6237 42.5521 34.7103 42.4886C34.7969 42.4251 34.8636 42.3384 34.9029 42.2384L35.4898 40.0211C35.5098 39.9802 35.5183 39.9345 35.5143 39.8891C35.5103 39.8437 35.494 39.8002 35.4672 39.7634C35.4404 39.7265 35.4041 39.6976 35.3621 39.6799C35.3201 39.6621 35.2741 39.6561 35.229 39.6625Z" fill="#F9A230"/>
<path d="M45.9243 39.6625H42.8918C42.7846 39.6698 42.6818 39.7075 42.5953 39.771C42.5087 39.8345 42.4419 39.9212 42.4026 40.0211L41.8157 42.2385C41.7989 42.2796 41.7929 42.3243 41.7983 42.3684C41.8036 42.4125 41.8202 42.4545 41.8463 42.4904C41.8724 42.5264 41.9073 42.555 41.9476 42.5737C41.9879 42.5924 42.0323 42.6004 42.0766 42.5971H45.1254C45.2325 42.5898 45.3353 42.5521 45.4219 42.4886C45.5085 42.4252 45.5753 42.3384 45.6145 42.2385L46.2014 40.0211C46.2191 39.9786 46.2253 39.9322 46.2193 39.8866C46.2132 39.8409 46.1952 39.7977 46.1671 39.7613C46.1389 39.7248 46.1016 39.6965 46.059 39.6792C46.0163 39.6618 45.9699 39.656 45.9243 39.6625Z" fill="#F9A230"/>
<path d="M41.8156 35.0028H38.7831C38.676 35.0102 38.5732 35.0478 38.4866 35.1113C38.4 35.1748 38.3332 35.2616 38.294 35.3615L37.7071 37.5788C37.6903 37.62 37.6843 37.6647 37.6896 37.7088C37.695 37.7529 37.7115 37.7949 37.7376 37.8308C37.7638 37.8667 37.7986 37.8954 37.8389 37.914C37.8792 37.9327 37.9236 37.9408 37.9679 37.9375H41.0004C41.1075 37.9301 41.2104 37.8925 41.2969 37.829C41.3835 37.7655 41.4503 37.6788 41.4896 37.5788L42.0765 35.3615C42.0965 35.3205 42.1049 35.2749 42.1009 35.2295C42.097 35.1841 42.0807 35.1406 42.0539 35.1038C42.0271 35.0669 41.9907 35.038 41.9488 35.0202C41.9068 35.0025 41.8608 34.9964 41.8156 35.0028Z" fill="#F9A230"/>
<path d="M36.5007 35.0028H33.4682C33.3611 35.0102 33.2582 35.0478 33.1717 35.1113C33.0851 35.1748 33.0183 35.2616 32.9791 35.3615L32.3921 37.5788C32.3754 37.62 32.3694 37.6647 32.3747 37.7088C32.3801 37.7529 32.3966 37.7949 32.4227 37.8308C32.4488 37.8667 32.4837 37.8954 32.524 37.9141C32.5643 37.9327 32.6087 37.9408 32.653 37.9375H35.6855C35.7926 37.9301 35.8954 37.8925 35.982 37.829C36.0686 37.7655 36.1354 37.6788 36.1746 37.5788L36.7615 35.3615C36.7783 35.3204 36.7843 35.2757 36.779 35.2316C36.7736 35.1875 36.7571 35.1455 36.731 35.1096C36.7049 35.0736 36.67 35.045 36.6297 35.0263C36.5894 35.0076 36.545 34.9995 36.5007 35.0028Z" fill="#F9A230"/>
<path d="M43.3482 37.9669H46.3807C46.4878 37.9595 46.5906 37.9219 46.6772 37.8584C46.7638 37.7949 46.8306 37.7081 46.8698 37.6082L47.4567 35.3909C47.4735 35.3497 47.4795 35.305 47.4742 35.2609C47.4688 35.2168 47.4523 35.1748 47.4262 35.1389C47.4 35.103 47.3652 35.0743 47.3249 35.0556C47.2846 35.037 47.2402 35.0289 47.1959 35.0322H44.1634C44.0563 35.0396 43.9534 35.0772 43.8669 35.1407C43.7803 35.2042 43.7135 35.2909 43.6743 35.3909L43.0873 37.6082C43.0696 37.6493 43.0628 37.6943 43.0677 37.7388C43.0727 37.7833 43.0891 37.8257 43.1154 37.8619C43.1418 37.8981 43.1771 37.9269 43.2179 37.9453C43.2587 37.9637 43.3036 37.9711 43.3482 37.9669Z" fill="#F9A230"/>
</g>
<defs>
<filter id="filter0_d_526_844" x="0" y="0" width="81" height="81" filterUnits="userSpaceOnUse" color-interpolation-filters="sRGB">
<feFlood flood-opacity="0" result="BackgroundImageFix"/>
<feColorMatrix in="SourceAlpha" type="matrix" values="0 0 0 0 0 0 0 0 0 0 0 0 0 0 0 0 0 0 127 0" result="hardAlpha"/>
<feMorphology radius="1" operator="dilate" in="SourceAlpha" result="effect1_dropShadow_526_844"/>
<feOffset dy="2"/>
<feGaussianBlur stdDeviation="3.5"/>
<feComposite in2="hardAlpha" operator="out"/>
<feColorMatrix type="matrix" values="0 0 0 0 0 0 0 0 0 0 0 0 0 0 0 0 0 0 0.25 0"/>
<feBlend mode="normal" in2="BackgroundImageFix" result="effect1_dropShadow_526_844"/>
<feBlend mode="normal" in="SourceGraphic" in2="effect1_dropShadow_526_844" result="shape"/>
</filter>
<clipPath id="clip0_526_844">
<rect width="31" height="30.3902" fill="white" transform="translate(25 23)"/>
</clipPath>
</defs>
</svg>
