<svg width="81" height="81" viewBox="0 0 81 81" fill="none" xmlns="http://www.w3.org/2000/svg">
<g filter="url(#filter0_d_526_873)">
<circle cx="40.5" cy="38.5" r="32.5" fill="white"/>
</g>
<g clip-path="url(#clip0_526_873)">
<path d="M24.7936 36.6039C24.5933 36.5809 24.4068 36.4903 24.2649 36.347C24.1231 36.2036 24.0344 36.0162 24.0135 35.8156C23.9926 35.6151 24.0407 35.4134 24.15 35.2439C24.2593 35.0744 24.4231 34.9473 24.6144 34.8835C24.6305 35.4607 24.6904 36.0358 24.7936 36.6039Z" fill="#29A4E2"/>
<path d="M45.3401 34.5405C45.3401 34.6429 45.3401 34.7453 45.3401 34.8835C45.3213 35.4006 45.2544 35.9148 45.1405 36.4195L44.2291 35.8205L42.9696 38.3088C42.8987 38.4611 42.786 38.5901 42.6446 38.6807C42.5031 38.7714 42.3388 38.82 42.1709 38.8208C42.0032 38.8187 41.8394 38.7697 41.6982 38.6792C41.557 38.5886 41.444 38.4603 41.3721 38.3088L39.9129 35.4006L39.0374 37.1517C38.9566 37.3119 38.8295 37.4441 38.6726 37.5313C38.5158 37.6185 38.3363 37.6565 38.1576 37.6405C37.9788 37.6245 37.809 37.5552 37.6701 37.4416C37.5312 37.3279 37.4296 37.1752 37.3786 37.0032L36.1241 32.6409L34.5216 40.2441C34.4806 40.4387 34.3756 40.614 34.2235 40.7421C34.0713 40.8701 33.8807 40.9435 33.6819 40.9507H33.6461C33.4518 40.9495 33.263 40.8856 33.108 40.7684C32.953 40.6512 32.84 40.4871 32.7859 40.3005L31.4598 35.6925L30.5997 37.5203C30.5161 37.704 30.3732 37.8542 30.1941 37.9471C30.0149 38.0399 29.8098 38.0699 29.6115 38.0323C29.229 37.2694 28.9715 36.45 28.8486 35.6054L29.3914 35.9126L30.8557 32.8099C30.9336 32.6459 31.0596 32.5095 31.2168 32.4187C31.374 32.3279 31.5551 32.2871 31.7361 32.3015C31.9171 32.3159 32.0894 32.385 32.2302 32.4996C32.3711 32.6141 32.4738 32.7688 32.5248 32.943L33.5129 36.3683L35.1001 28.7753C35.1422 28.5803 35.2481 28.4049 35.4012 28.2769C35.5542 28.1489 35.7456 28.0757 35.9449 28.0688C36.1436 28.0637 36.3385 28.1242 36.4995 28.2407C36.6604 28.3573 36.7786 28.5236 36.8358 28.7139L38.4589 34.3203L39.1091 33.0147C39.1815 32.8635 39.2945 32.7355 39.4356 32.6451C39.5767 32.5546 39.7403 32.5053 39.9078 32.5027C40.0754 32.5053 40.2389 32.5546 40.38 32.6451C40.5211 32.7355 40.6342 32.8635 40.7066 33.0147L42.1709 35.928L43.0822 34.1309C43.1392 34.0184 43.2193 33.9192 43.3172 33.8398C43.4151 33.7604 43.5287 33.7026 43.6506 33.6701C43.7723 33.6365 43.8998 33.6296 44.0244 33.6499C44.149 33.6703 44.2677 33.7173 44.3725 33.7878L45.3401 34.4278C45.3421 34.4653 45.3421 34.5029 45.3401 34.5405Z" fill="#29A4E2"/>
<path d="M50.1069 35.8154C50.1081 36.0338 50.0281 36.2449 49.8823 36.4077C49.7366 36.5704 49.5356 36.6732 49.3184 36.696C49.4216 36.128 49.4815 35.5529 49.4976 34.9757C49.675 35.0332 49.8295 35.1454 49.939 35.2963C50.0485 35.4472 50.1073 35.629 50.1069 35.8154Z" fill="#29A4E2"/>
<path d="M55.1245 52.3171C54.5575 52.8701 53.7968 53.1796 53.0048 53.1796C52.2128 53.1796 51.4522 52.8701 50.8851 52.3171L45.5399 47.0589C45.4384 46.9632 45.3575 46.8477 45.3022 46.7196C45.2469 46.5915 45.2184 46.4535 45.2184 46.314C45.2184 46.1744 45.2469 46.0364 45.3022 45.9083C45.3575 45.7802 45.4384 45.6647 45.5399 45.569L45.7754 45.3335L44.6899 44.2583C45.1082 43.9437 45.505 43.6016 45.8778 43.2343C46.258 42.8596 46.6121 42.4593 46.9376 42.0362L48.0333 43.1165L48.2637 42.8912C48.3645 42.7903 48.4842 42.7102 48.616 42.6556C48.7478 42.601 48.889 42.5728 49.0317 42.5728C49.1743 42.5728 49.3156 42.601 49.4474 42.6556C49.5792 42.7102 49.6989 42.7903 49.7997 42.8912L55.1143 48.1444C55.3928 48.4155 55.6144 48.7395 55.766 49.0974C55.9176 49.4553 55.9962 49.8399 55.9972 50.2286C55.9981 50.6173 55.9214 51.0023 55.7716 51.3609C55.6217 51.7196 55.4017 52.0447 55.1245 52.3171Z" fill="#29A4E2"/>
<path d="M28.7667 26.3536C27.6418 27.4526 26.7588 28.7745 26.1742 30.2345C25.5897 31.6946 25.3165 33.2606 25.3722 34.8323C25.4715 37.7757 26.6999 40.5679 28.8026 42.6301C31.0039 44.7967 33.9666 46.0144 37.0553 46.0221C40.144 46.0297 43.1127 44.8267 45.3248 42.671C47.4164 40.6256 48.6333 37.8487 48.7194 34.9245C49.0624 24.5616 36.2266 19.0115 28.7667 26.3536ZM46.1082 34.9091C46.0325 37.1209 45.1171 39.2208 43.5482 40.7817L43.5072 40.8176C41.7866 42.4887 39.4806 43.4205 37.082 43.4138C34.6834 43.4071 32.3826 42.4625 30.6714 40.7817C29.8318 39.9599 29.1638 38.9797 28.7059 37.8978C28.248 36.8159 28.0094 35.6538 28.0038 34.479C27.9978 33.3197 28.2234 32.1709 28.6674 31.1001C29.1114 30.0292 29.7649 29.0578 30.5894 28.2429L30.6253 28.2019C36.3136 22.6006 46.103 26.6659 46.1338 34.5405C46.1184 34.6633 46.1184 34.7862 46.1082 34.9091Z" fill="#29A4E2"/>
</g>
<defs>
<filter id="filter0_d_526_873" x="0" y="0" width="81" height="81" filterUnits="userSpaceOnUse" color-interpolation-filters="sRGB">
<feFlood flood-opacity="0" result="BackgroundImageFix"/>
<feColorMatrix in="SourceAlpha" type="matrix" values="0 0 0 0 0 0 0 0 0 0 0 0 0 0 0 0 0 0 127 0" result="hardAlpha"/>
<feMorphology radius="1" operator="dilate" in="SourceAlpha" result="effect1_dropShadow_526_873"/>
<feOffset dy="2"/>
<feGaussianBlur stdDeviation="3.5"/>
<feComposite in2="hardAlpha" operator="out"/>
<feColorMatrix type="matrix" values="0 0 0 0 0 0 0 0 0 0 0 0 0 0 0 0 0 0 0.25 0"/>
<feBlend mode="normal" in2="BackgroundImageFix" result="effect1_dropShadow_526_873"/>
<feBlend mode="normal" in="SourceGraphic" in2="effect1_dropShadow_526_873" result="shape"/>
</filter>
<clipPath id="clip0_526_873">
<rect width="32" height="30.1722" fill="white" transform="translate(24 23)"/>
</clipPath>
</defs>
</svg>
