<svg width="81" height="81" viewBox="0 0 81 81" fill="none" xmlns="http://www.w3.org/2000/svg">
<g filter="url(#filter0_d_526_816)">
<circle cx="40.5" cy="38.5" r="32.5" fill="white"/>
</g>
<g clip-path="url(#clip0_526_816)">
<path d="M50.5693 23.09H29.4308C29.1233 23.0896 28.8187 23.1498 28.5345 23.2672C28.2503 23.3847 27.9921 23.5571 27.7746 23.7746C27.5572 23.992 27.3848 24.2502 27.2673 24.5344C27.1498 24.8186 27.0896 25.1232 27.0901 25.4307V52.331C27.0896 52.6385 27.1498 52.9431 27.2673 53.2273C27.3848 53.5115 27.5572 53.7698 27.7746 53.9872C27.9921 54.2047 28.2503 54.3771 28.5345 54.4945C28.8187 54.612 29.1233 54.6722 29.4308 54.6717H50.5693C50.8768 54.6722 51.1814 54.612 51.4656 54.4945C51.7498 54.3771 52.0081 54.2047 52.2255 53.9872C52.443 53.7698 52.6154 53.5115 52.7328 53.2273C52.8503 52.9431 52.9105 52.6385 52.91 52.331V25.4163C52.9072 24.7978 52.6592 24.2055 52.2204 23.7695C51.7817 23.3334 51.1879 23.0891 50.5693 23.09ZM51.8297 52.331C51.826 52.6641 51.692 52.9826 51.4564 53.2181C51.2208 53.4537 50.9024 53.5877 50.5693 53.5914H29.4308C29.0977 53.5877 28.7793 53.4537 28.5437 53.2181C28.3082 52.9826 28.1742 52.6641 28.1704 52.331V25.4163C28.1742 25.0832 28.3082 24.7648 28.5437 24.5293C28.7793 24.2937 29.0977 24.1597 29.4308 24.156H50.5693C50.9024 24.1597 51.2208 24.2937 51.4564 24.5293C51.692 24.7648 51.826 25.0832 51.8297 25.4163V52.331Z" fill="#29A4E2" stroke="#29A4E2" stroke-width="0.5" stroke-miterlimit="10"/>
<path d="M48.0124 30.818H37.3532C37.2099 30.818 37.0725 30.8749 36.9712 30.9762C36.8699 31.0775 36.813 31.2149 36.813 31.3582C36.813 31.5014 36.8699 31.6388 36.9712 31.7401C37.0725 31.8414 37.2099 31.8983 37.3532 31.8983H48.0124C48.1545 31.8947 48.2898 31.8366 48.3904 31.7361C48.4909 31.6356 48.549 31.5003 48.5526 31.3582C48.5541 31.2868 48.5411 31.2159 48.5145 31.1497C48.4879 31.0835 48.4481 31.0234 48.3977 30.9729C48.3472 30.9225 48.2871 30.8827 48.2209 30.8561C48.1547 30.8295 48.0838 30.8165 48.0124 30.818Z" fill="#29A4E2" stroke="#29A4E2" stroke-width="0.5" stroke-miterlimit="10"/>
<path d="M48.0124 36.6302H37.3532C37.2099 36.6302 37.0725 36.6871 36.9712 36.7884C36.8699 36.8897 36.813 37.0271 36.813 37.1704C36.813 37.3136 36.8699 37.451 36.9712 37.5523C37.0725 37.6536 37.2099 37.7105 37.3532 37.7105H48.0124C48.1545 37.7069 48.2898 37.6488 48.3904 37.5483C48.4909 37.4478 48.549 37.3125 48.5526 37.1704C48.5541 37.099 48.5411 37.0281 48.5145 36.9619C48.4879 36.8957 48.4481 36.8356 48.3977 36.7851C48.3472 36.7347 48.2871 36.6949 48.2209 36.6683C48.1547 36.6417 48.0838 36.6287 48.0124 36.6302Z" fill="#29A4E2" stroke="#29A4E2" stroke-width="0.5" stroke-miterlimit="10"/>
<path d="M48.0124 42.428H37.3532C37.2099 42.428 37.0725 42.4849 36.9712 42.5862C36.8699 42.6875 36.813 42.8249 36.813 42.9681C36.813 43.1114 36.8699 43.2488 36.9712 43.3501C37.0725 43.4514 37.2099 43.5083 37.3532 43.5083H48.0124C48.1545 43.5047 48.2898 43.4466 48.3904 43.3461C48.4909 43.2455 48.549 43.1102 48.5526 42.9681C48.5541 42.8968 48.5411 42.8259 48.5145 42.7597C48.4879 42.6935 48.4481 42.6334 48.3977 42.5829C48.3472 42.5324 48.2871 42.4927 48.2209 42.4661C48.1547 42.4395 48.0838 42.4265 48.0124 42.428Z" fill="#29A4E2" stroke="#29A4E2" stroke-width="0.5" stroke-miterlimit="10"/>
<path d="M48.0124 48.2258H37.3532C37.2099 48.2258 37.0725 48.2827 36.9712 48.384C36.8699 48.4853 36.813 48.6227 36.813 48.7659C36.813 48.9092 36.8699 49.0466 36.9712 49.1479C37.0725 49.2492 37.2099 49.3061 37.3532 49.3061H48.0124C48.1545 49.3024 48.2898 49.2444 48.3904 49.1438C48.4909 49.0433 48.549 48.908 48.5526 48.7659C48.5541 48.6946 48.5411 48.6237 48.5145 48.5575C48.4879 48.4913 48.4481 48.4312 48.3977 48.3807C48.3472 48.3302 48.2871 48.2905 48.2209 48.2639C48.1547 48.2373 48.0838 48.2243 48.0124 48.2258Z" fill="#29A4E2" stroke="#29A4E2" stroke-width="0.5" stroke-miterlimit="10"/>
<path d="M35.1924 28.0596H31.8434C31.7013 28.0632 31.566 28.1213 31.4655 28.2218C31.3649 28.3223 31.3069 28.4576 31.3032 28.5997V31.9488C31.3069 32.0909 31.3649 32.2262 31.4655 32.3267C31.566 32.4272 31.7013 32.4853 31.8434 32.4889H35.1924C35.3345 32.4853 35.4698 32.4272 35.5703 32.3267C35.6709 32.2262 35.7289 32.0909 35.7326 31.9488V28.5997C35.7341 28.5284 35.7211 28.4575 35.6945 28.3913C35.6678 28.3251 35.6281 28.265 35.5777 28.2145C35.5272 28.164 35.4671 28.1243 35.4009 28.0977C35.3347 28.0711 35.2638 28.0581 35.1924 28.0596ZM34.6523 31.4086H32.4376V29.1399H34.7063V31.4086H34.6523Z" fill="#29A4E2" stroke="#29A4E2" stroke-width="0.5" stroke-miterlimit="10"/>
<path d="M35.1924 33.8573H31.8434C31.7013 33.861 31.566 33.9191 31.4655 34.0196C31.3649 34.1201 31.3069 34.2554 31.3032 34.3975V37.7465C31.3069 37.8886 31.3649 38.0239 31.4655 38.1245C31.566 38.225 31.7013 38.2831 31.8434 38.2867H35.1924C35.3345 38.2831 35.4698 38.225 35.5703 38.1245C35.6709 38.0239 35.7289 37.8886 35.7326 37.7465V34.3975C35.7368 34.3255 35.7257 34.2534 35.7 34.1859C35.6743 34.1185 35.6347 34.0573 35.5837 34.0062C35.5327 33.9552 35.4714 33.9156 35.404 33.8899C35.3366 33.8643 35.2644 33.8532 35.1924 33.8573ZM34.6523 37.1704H32.4376V34.9017H34.7063V37.1704H34.6523Z" fill="#29A4E2" stroke="#29A4E2" stroke-width="0.5" stroke-miterlimit="10"/>
<path d="M35.1924 39.6191H31.8434C31.7013 39.6228 31.566 39.6808 31.4655 39.7814C31.3649 39.8819 31.3069 40.0172 31.3032 40.1593V43.5083C31.3069 43.6504 31.3649 43.7857 31.4655 43.8862C31.566 43.9868 31.7013 44.0448 31.8434 44.0485H35.1924C35.3345 44.0448 35.4698 43.9868 35.5703 43.8862C35.6709 43.7857 35.7289 43.6504 35.7326 43.5083V40.1593C35.7341 40.0879 35.7211 40.017 35.6945 39.9508C35.6678 39.8846 35.6281 39.8245 35.5777 39.774C35.5272 39.7236 35.4671 39.6839 35.4009 39.6572C35.3347 39.6306 35.2638 39.6176 35.1924 39.6191ZM34.6523 42.9681H32.4376V40.6994H34.7063V42.9681H34.6523Z" fill="#29A4E2" stroke="#29A4E2" stroke-width="0.5" stroke-miterlimit="10"/>
<path d="M35.1924 45.4169H31.8434C31.7013 45.4205 31.566 45.4786 31.4655 45.5791C31.3649 45.6797 31.3069 45.815 31.3032 45.9571V49.3061C31.3069 49.4482 31.3649 49.5835 31.4655 49.684C31.566 49.7845 31.7013 49.8426 31.8434 49.8463H35.1924C35.3345 49.8426 35.4698 49.7845 35.5703 49.684C35.6709 49.5835 35.7289 49.4482 35.7326 49.3061V45.9427C35.7347 45.8718 35.7221 45.8013 35.6955 45.7356C35.6689 45.6699 35.6289 45.6104 35.5781 45.561C35.5273 45.5116 35.4668 45.4732 35.4004 45.4484C35.334 45.4236 35.2632 45.4129 35.1924 45.4169ZM34.6523 48.7299H32.4376V46.4612H34.7063V48.7299H34.6523Z" fill="#29A4E2" stroke="#29A4E2" stroke-width="0.5" stroke-miterlimit="10"/>
</g>
<defs>
<filter id="filter0_d_526_816" x="0" y="0" width="81" height="81" filterUnits="userSpaceOnUse" color-interpolation-filters="sRGB">
<feFlood flood-opacity="0" result="BackgroundImageFix"/>
<feColorMatrix in="SourceAlpha" type="matrix" values="0 0 0 0 0 0 0 0 0 0 0 0 0 0 0 0 0 0 127 0" result="hardAlpha"/>
<feMorphology radius="1" operator="dilate" in="SourceAlpha" result="effect1_dropShadow_526_816"/>
<feOffset dy="2"/>
<feGaussianBlur stdDeviation="3.5"/>
<feComposite in2="hardAlpha" operator="out"/>
<feColorMatrix type="matrix" values="0 0 0 0 0 0 0 0 0 0 0 0 0 0 0 0 0 0 0.25 0"/>
<feBlend mode="normal" in2="BackgroundImageFix" result="effect1_dropShadow_526_816"/>
<feBlend mode="normal" in="SourceGraphic" in2="effect1_dropShadow_526_816" result="shape"/>
</filter>
<clipPath id="clip0_526_816">
<rect width="26" height="31.7618" fill="white" transform="translate(27 23)"/>
</clipPath>
</defs>
</svg>
