<svg width="81" height="81" viewBox="0 0 81 81" fill="none" xmlns="http://www.w3.org/2000/svg">
<g filter="url(#filter0_d_1_16)">
<circle cx="40.5" cy="38.5" r="32.5" fill="white"/>
</g>
<g clip-path="url(#clip0_1_16)">
<path fill-rule="evenodd" clip-rule="evenodd" d="M35.651 33.4869C35.651 34.4927 35.9999 35.4674 36.638 36.2449C37.2761 37.0223 38.1641 37.5545 39.1506 37.7506C40.1371 37.9468 41.1611 37.7948 42.0481 37.3206C42.9351 36.8464 43.6303 36.0793 44.0151 35.1501C44.4 34.2208 44.4507 33.1868 44.1587 32.2244C43.8666 31.2619 43.2499 30.4304 42.4136 29.8717C41.5773 29.3129 40.5731 29.0614 39.5721 29.1601C38.5711 29.2587 37.6353 29.7014 36.9242 30.4126C36.5205 30.8164 36.2002 31.2957 35.9818 31.8231C35.7633 32.3506 35.6509 32.916 35.651 33.4869Z" fill="#0160D2"/>
<path fill-rule="evenodd" clip-rule="evenodd" d="M28.1546 30.0027C28.15 30.8309 28.3516 31.6471 28.7412 32.3779C29.1307 33.1087 29.6961 33.7311 30.3862 34.1889C31.0763 34.6467 31.8695 34.9256 32.6942 35.0004C33.519 35.0751 34.3494 34.9435 35.1106 34.6173C35.0286 34.2503 34.987 33.8754 34.9864 33.4993C34.9864 32.5171 35.2747 31.5565 35.8157 30.7367C36.3567 29.917 37.1266 29.2741 38.0297 28.8879C37.7513 27.6926 37.0432 26.6414 36.0402 25.9342C35.0373 25.227 33.8093 24.9131 32.59 25.0523C31.3706 25.1915 30.245 25.774 29.4272 26.6891C28.6094 27.6041 28.1565 28.7879 28.1546 30.0151V30.0027Z" fill="#0160D2"/>
<path fill-rule="evenodd" clip-rule="evenodd" d="M43.5355 29.9592C44.0006 30.4233 44.3695 30.9746 44.621 31.5816C44.8725 32.1885 45.0017 32.8392 45.0012 33.4962C45.0012 33.6577 45.0012 33.8068 44.9763 33.9714C45.5392 34.2263 46.1502 34.3576 46.7681 34.3564C47.592 34.3567 48.399 34.1229 49.0951 33.6822C49.7913 33.2415 50.3478 32.6121 50.7 31.8673C51.0522 31.1225 51.1855 30.2929 51.0843 29.4752C50.9832 28.6576 50.6518 27.8855 50.1288 27.2489C49.6057 26.6124 48.9126 26.1375 48.13 25.8797C47.3475 25.6219 46.5079 25.5918 45.7089 25.7929C44.9099 25.9939 44.1845 26.4178 43.6172 27.0153C43.0498 27.6127 42.664 28.3591 42.5045 29.1674C42.8816 29.3846 43.2283 29.6509 43.5355 29.9592Z" fill="#0160D2"/>
<path d="M59.9969 40.3559C60.0013 40.3102 59.9962 40.2641 59.9818 40.2205C59.9673 40.1769 59.9439 40.1368 59.9131 40.1028C59.8822 40.0688 59.8446 40.0417 59.8026 40.0231C59.7606 40.0045 59.7152 39.9948 59.6693 39.9948C59.6234 39.9948 59.5779 40.0045 59.536 40.0231C59.494 40.0417 59.4563 40.0688 59.4255 40.1028C59.3946 40.1368 59.3712 40.1769 59.3568 40.2205C59.3424 40.2641 59.3372 40.3102 59.3417 40.3559C59.3417 43.4396 57.2021 46.2561 53.752 48.287C50.2399 50.3583 45.3676 51.6408 40.0078 51.6408C34.6479 51.6408 29.7663 50.3583 26.2542 48.2808C22.7948 46.2375 20.6645 43.4334 20.6645 40.3497C20.669 40.304 20.6638 40.2579 20.6494 40.2143C20.635 40.1707 20.6116 40.1306 20.5807 40.0966C20.5499 40.0626 20.5122 40.0354 20.4702 40.0168C20.4283 39.9982 20.3828 39.9886 20.3369 39.9886C20.291 39.9886 20.2456 39.9982 20.2036 40.0168C20.1616 40.0354 20.124 40.0626 20.0931 40.0966C20.0623 40.1306 20.0389 40.1707 20.0245 40.2143C20.01 40.2579 20.0049 40.304 20.0093 40.3497C20.0093 43.6818 22.27 46.6815 25.9312 48.8429C29.5396 50.9731 34.5175 52.2898 40.0078 52.2898C45.498 52.2898 50.4759 50.9731 54.0843 48.8429C57.7331 46.6878 59.9969 43.688 59.9969 40.3559Z" fill="#0160D2"/>
<path fill-rule="evenodd" clip-rule="evenodd" d="M44.5664 37.6791C46.3284 38.1348 47.8401 39.266 48.7742 40.828H55.8482C55.8474 39.4527 55.3873 38.1171 54.5408 37.0332C53.7404 36.0033 52.6385 35.2488 51.3889 34.875C50.8825 35.6373 50.1959 36.2629 49.3898 36.6962C48.5838 37.1296 47.6833 37.3573 46.7681 37.3593C45.7686 37.36 44.7877 37.0895 43.9298 36.5767C43.8075 36.7336 43.6758 36.8829 43.5354 37.0239C43.1576 37.3989 42.7239 37.7132 42.2498 37.9555C42.3681 38.2007 42.4718 38.4527 42.5604 38.7101C42.6256 38.9089 42.6846 39.1107 42.7312 39.3157C43.2978 38.922 43.7759 38.4143 44.1348 37.8251C44.1672 37.7731 44.2133 37.7311 44.2681 37.7037C44.323 37.6763 44.3843 37.6646 44.4453 37.6698C44.4859 37.6663 44.5268 37.6694 44.5664 37.6791Z" fill="#0160D2"/>
<path fill-rule="evenodd" clip-rule="evenodd" d="M32.2258 40.5174C31.3899 41.588 30.9303 42.9043 30.9184 44.2625V44.3153H45.0943C45.14 44.3108 45.1862 44.316 45.2297 44.3304C45.2733 44.3448 45.3134 44.3682 45.3474 44.3991C45.3814 44.4299 45.4086 44.4676 45.4272 44.5096C45.4458 44.5516 45.4554 44.597 45.4554 44.6429C45.4554 44.6888 45.4458 44.7342 45.4272 44.7762C45.4086 44.8182 45.3814 44.8558 45.3474 44.8867C45.3134 44.9175 45.2733 44.9409 45.2297 44.9554C45.1862 44.9698 45.14 44.975 45.0943 44.9705H30.9184V47.4144H49.0661V44.4643C49.0206 44.4068 48.9955 44.3358 48.9946 44.2625C48.9807 42.9036 48.519 41.5873 47.6811 40.5174C46.8932 39.517 45.82 38.7796 44.6037 38.4027C44.1206 39.1212 43.4762 39.7168 42.7218 40.1417L42.6753 40.1665C42.6587 40.1786 42.641 40.189 42.6225 40.1976C42.2295 40.4094 41.8124 40.5731 41.3803 40.6851C41.1759 40.7378 40.9685 40.7782 40.7593 40.8062C40.5164 40.8401 40.2715 40.8567 40.0264 40.8559H39.955C39.0393 40.8566 38.1378 40.6304 37.3309 40.1976C37.2713 40.1711 37.2207 40.128 37.185 40.0734C36.4747 39.6493 35.8679 39.0722 35.4087 38.3841C34.1579 38.7491 33.0519 39.4948 32.2444 40.5174H32.2258Z" fill="#0160D2"/>
<path fill-rule="evenodd" clip-rule="evenodd" d="M24.0742 41.4987V43.9333H30.2849C30.3375 43.087 30.5481 42.2581 30.906 41.4894L24.0742 41.4987Z" fill="#0160D2"/>
<path fill-rule="evenodd" clip-rule="evenodd" d="M35.5702 37.8996C34.0911 38.2813 32.7805 39.1431 31.8438 40.3497C31.6658 40.5769 31.5029 40.8155 31.3563 41.064L24.0183 40.8C24.0237 39.46 24.4607 38.1574 25.2644 37.0851C26.0682 36.0129 27.196 35.2281 28.4807 34.8471C28.9668 35.5723 29.6154 36.1742 30.375 36.6047C31.2062 37.0731 32.1442 37.3191 33.0984 37.3189C33.6595 37.3182 34.2174 37.2334 34.7535 37.0674C35.2197 36.9065 35.6681 36.6984 36.0919 36.4463C36.2142 36.6033 36.3459 36.7526 36.4863 36.8935C36.8627 37.2703 37.2966 37.5848 37.7719 37.8251C37.657 38.0704 37.5173 38.5083 37.4303 38.7567C37.3651 38.9554 37.3092 39.1573 37.2626 39.3778C36.6579 38.9576 36.1428 38.4213 35.7472 37.8002C35.6789 37.6885 35.8155 37.8934 35.6944 37.9058C35.6537 37.8968 35.6117 37.8947 35.5702 37.8996Z" fill="#0160D2"/>
<path fill-rule="evenodd" clip-rule="evenodd" d="M49.1189 41.4987C49.4767 42.2674 49.6874 43.0964 49.7399 43.9426H55.8637V41.4987H49.1189Z" fill="#0160D2"/>
</g>
<defs>
<filter id="filter0_d_1_16" x="0" y="0" width="81" height="81" filterUnits="userSpaceOnUse" color-interpolation-filters="sRGB">
<feFlood flood-opacity="0" result="BackgroundImageFix"/>
<feColorMatrix in="SourceAlpha" type="matrix" values="0 0 0 0 0 0 0 0 0 0 0 0 0 0 0 0 0 0 127 0" result="hardAlpha"/>
<feMorphology radius="1" operator="dilate" in="SourceAlpha" result="effect1_dropShadow_1_16"/>
<feOffset dy="2"/>
<feGaussianBlur stdDeviation="3.5"/>
<feComposite in2="hardAlpha" operator="out"/>
<feColorMatrix type="matrix" values="0 0 0 0 0 0 0 0 0 0 0 0 0 0 0 0 0 0 0.25 0"/>
<feBlend mode="normal" in2="BackgroundImageFix" result="effect1_dropShadow_1_16"/>
<feBlend mode="normal" in="SourceGraphic" in2="effect1_dropShadow_1_16" result="shape"/>
</filter>
<clipPath id="clip0_1_16">
<rect width="40" height="27.296" fill="white" transform="translate(20 25)"/>
</clipPath>
</defs>
</svg>
