<svg width="23" height="23" viewBox="0 0 23 23" fill="none" xmlns="http://www.w3.org/2000/svg">
<g clip-path="url(#clip0_526_675)">
<path d="M21.1576 1.72589H18.083V0.738972C18.083 0.566602 18.0146 0.401292 17.893 0.279408C17.7714 0.157524 17.6064 0.0890503 17.4344 0.0890503C17.2624 0.0890503 17.0974 0.157524 16.9758 0.279408C16.8542 0.401292 16.7858 0.566602 16.7858 0.738972V4.13301C16.589 4.24287 16.4251 4.40347 16.3111 4.59815C16.1971 4.79284 16.1371 5.01454 16.1373 5.24028C16.134 5.4692 16.1912 5.69491 16.303 5.89458C16.4148 6.09425 16.5772 6.26079 16.7738 6.37736C16.9704 6.49393 17.1943 6.55639 17.4228 6.55842C17.6512 6.56045 17.8762 6.50198 18.0748 6.38892C18.2735 6.27586 18.4388 6.11223 18.5541 5.91458C18.6694 5.71693 18.7306 5.49227 18.7314 5.26333C18.7322 5.03439 18.6727 4.80929 18.5588 4.61081C18.445 4.41233 18.2808 4.2475 18.083 4.13301V3.02573H21.1576C21.285 3.02573 21.4072 3.07645 21.4973 3.16674C21.5874 3.25702 21.6381 3.37947 21.6381 3.50716V7.43076H1.38844V3.50716C1.38844 3.37947 1.43906 3.25702 1.52915 3.16674C1.61925 3.07645 1.74145 3.02573 1.86886 3.02573H3.83857V1.72589H1.86886C1.63525 1.72525 1.40382 1.77089 1.18787 1.86019C0.971926 1.94948 0.775719 2.08066 0.610533 2.24619C0.445346 2.41173 0.314437 2.60834 0.225332 2.82474C0.136226 3.04114 0.0906812 3.27306 0.0913151 3.50716V21.1272C0.0906812 21.3613 0.136226 21.5933 0.225332 21.8097C0.314437 22.0261 0.445346 22.2227 0.610533 22.3882C0.775719 22.5537 0.971926 22.6849 1.18787 22.7742C1.40382 22.8635 1.63525 22.9092 1.86886 22.9085H21.1576C21.6257 22.9047 22.0731 22.715 22.4018 22.3811C22.7306 22.0472 22.9137 21.5963 22.9112 21.1272V3.50716C22.9137 3.03811 22.7306 2.5872 22.4018 2.25328C22.0731 1.91937 21.6257 1.72971 21.1576 1.72589ZM21.614 21.1272C21.614 21.2549 21.5634 21.3774 21.4733 21.4677C21.3832 21.558 21.261 21.6087 21.1336 21.6087H1.86886C1.74145 21.6087 1.61925 21.558 1.52915 21.4677C1.43906 21.3774 1.38844 21.2549 1.38844 21.1272V8.70653H21.6381V21.1272H21.614Z" fill="#575756" stroke="#575756" stroke-width="0.75" stroke-miterlimit="10"/>
<path d="M4.46302 14.0744H7.41759C7.47446 14.0747 7.53083 14.0637 7.58343 14.0421C7.63603 14.0204 7.68382 13.9885 7.72404 13.9482C7.76425 13.9079 7.79609 13.86 7.8177 13.8073C7.83932 13.7546 7.85029 13.6981 7.84997 13.6411V11.7395C7.85029 11.6825 7.83932 11.626 7.8177 11.5733C7.79609 11.5206 7.76425 11.4727 7.72404 11.4324C7.68382 11.3921 7.63603 11.3602 7.58343 11.3386C7.53083 11.3169 7.47446 11.3059 7.41759 11.3062H4.46302C4.40615 11.3059 4.34979 11.3169 4.29718 11.3386C4.24458 11.3602 4.19679 11.3921 4.15658 11.4324C4.11636 11.4727 4.08453 11.5206 4.06291 11.5733C4.04129 11.626 4.03033 11.6825 4.03065 11.7395V13.6411C4.03033 13.6981 4.04129 13.7546 4.06291 13.8073C4.08453 13.86 4.11636 13.9079 4.15658 13.9482C4.19679 13.9885 4.24458 14.0204 4.29718 14.0421C4.34979 14.0637 4.40615 14.0747 4.46302 14.0744Z" fill="#575756" stroke="#575756" stroke-width="0.75" stroke-miterlimit="10"/>
<path d="M10.0119 14.0744H12.9664C13.0233 14.0747 13.0797 14.0637 13.1323 14.0421C13.1849 14.0204 13.2327 13.9885 13.2729 13.9482C13.3131 13.9079 13.3449 13.86 13.3665 13.8073C13.3881 13.7546 13.3991 13.6981 13.3988 13.6411V11.7395C13.3991 11.6825 13.3881 11.626 13.3665 11.5733C13.3449 11.5206 13.3131 11.4727 13.2729 11.4324C13.2327 11.3921 13.1849 11.3602 13.1323 11.3386C13.0797 11.3169 13.0233 11.3059 12.9664 11.3062H10.0119C9.95498 11.3059 9.89861 11.3169 9.84601 11.3386C9.79341 11.3602 9.74562 11.3921 9.7054 11.4324C9.66519 11.4727 9.63335 11.5206 9.61174 11.5733C9.59012 11.626 9.57916 11.6825 9.57947 11.7395V13.6411C9.57916 13.6981 9.59012 13.7546 9.61174 13.8073C9.63335 13.86 9.66519 13.9079 9.7054 13.9482C9.74562 13.9885 9.79341 14.0204 9.84601 14.0421C9.89861 14.0637 9.95498 14.0747 10.0119 14.0744Z" fill="#575756" stroke="#575756" stroke-width="0.75" stroke-miterlimit="10"/>
<path d="M15.5847 14.0744H18.5393C18.5962 14.0747 18.6525 14.0637 18.7051 14.0421C18.7577 14.0204 18.8055 13.9885 18.8457 13.9482C18.886 13.9079 18.9178 13.86 18.9394 13.8073C18.961 13.7546 18.972 13.6981 18.9717 13.6411V11.7395C18.972 11.6825 18.961 11.626 18.9394 11.5733C18.9178 11.5206 18.886 11.4727 18.8457 11.4324C18.8055 11.3921 18.7577 11.3602 18.7051 11.3386C18.6525 11.3169 18.5962 11.3059 18.5393 11.3062H15.5847C15.5279 11.3059 15.4715 11.3169 15.4189 11.3386C15.3663 11.3602 15.3185 11.3921 15.2783 11.4324C15.2381 11.4727 15.2062 11.5206 15.1846 11.5733C15.163 11.626 15.152 11.6825 15.1524 11.7395V13.6411C15.152 13.6981 15.163 13.7546 15.1846 13.8073C15.2062 13.86 15.2381 13.9079 15.2783 13.9482C15.3185 13.9885 15.3663 14.0204 15.4189 14.0421C15.4715 14.0637 15.5279 14.0747 15.5847 14.0744Z" fill="#575756" stroke="#575756" stroke-width="0.75" stroke-miterlimit="10"/>
<path d="M4.46302 19.009H7.41759C7.47446 19.0093 7.53083 18.9983 7.58343 18.9767C7.63603 18.955 7.68382 18.9231 7.72404 18.8828C7.76425 18.8425 7.79609 18.7946 7.8177 18.7419C7.83932 18.6892 7.85029 18.6327 7.84997 18.5757V16.6741C7.85029 16.6171 7.83932 16.5606 7.8177 16.5079C7.79609 16.4552 7.76425 16.4073 7.72404 16.367C7.68382 16.3267 7.63603 16.2948 7.58343 16.2732C7.53083 16.2515 7.47446 16.2405 7.41759 16.2408H4.46302C4.40615 16.2405 4.34979 16.2515 4.29718 16.2732C4.24458 16.2948 4.19679 16.3267 4.15658 16.367C4.11636 16.4073 4.08453 16.4552 4.06291 16.5079C4.04129 16.5606 4.03033 16.6171 4.03065 16.6741V18.5757C4.03033 18.6327 4.04129 18.6892 4.06291 18.7419C4.08453 18.7946 4.11636 18.8425 4.15658 18.8828C4.19679 18.9231 4.24458 18.955 4.29718 18.9767C4.34979 18.9983 4.40615 19.0093 4.46302 19.009Z" fill="#575756" stroke="#575756" stroke-width="0.75" stroke-miterlimit="10"/>
<path d="M10.0119 19.009H12.9664C13.0233 19.0093 13.0797 18.9983 13.1323 18.9767C13.1849 18.955 13.2327 18.9231 13.2729 18.8828C13.3131 18.8425 13.3449 18.7946 13.3665 18.7419C13.3881 18.6892 13.3991 18.6327 13.3988 18.5757V16.6741C13.3991 16.6171 13.3881 16.5606 13.3665 16.5079C13.3449 16.4552 13.3131 16.4073 13.2729 16.367C13.2327 16.3267 13.1849 16.2948 13.1323 16.2732C13.0797 16.2515 13.0233 16.2405 12.9664 16.2408H10.0119C9.95498 16.2405 9.89861 16.2515 9.84601 16.2732C9.79341 16.2948 9.74562 16.3267 9.7054 16.367C9.66519 16.4073 9.63335 16.4552 9.61174 16.5079C9.59012 16.5606 9.57916 16.6171 9.57947 16.6741V18.5757C9.57916 18.6327 9.59012 18.6892 9.61174 18.7419C9.63335 18.7946 9.66519 18.8425 9.7054 18.8828C9.74562 18.9231 9.79341 18.955 9.84601 18.9767C9.89861 18.9983 9.95498 19.0093 10.0119 19.009Z" fill="#575756" stroke="#575756" stroke-width="0.75" stroke-miterlimit="10"/>
<path d="M15.5847 19.009H18.5393C18.5962 19.0093 18.6525 18.9983 18.7051 18.9767C18.7577 18.955 18.8055 18.9231 18.8457 18.8828C18.886 18.8425 18.9178 18.7946 18.9394 18.7419C18.961 18.6892 18.972 18.6327 18.9717 18.5757V16.6741C18.972 16.6171 18.961 16.5606 18.9394 16.5079C18.9178 16.4552 18.886 16.4073 18.8457 16.367C18.8055 16.3267 18.7577 16.2948 18.7051 16.2732C18.6525 16.2515 18.5962 16.2405 18.5393 16.2408H15.5847C15.5279 16.2405 15.4715 16.2515 15.4189 16.2732C15.3663 16.2948 15.3185 16.3267 15.2783 16.367C15.2381 16.4073 15.2062 16.4552 15.1846 16.5079C15.163 16.5606 15.152 16.6171 15.1524 16.6741V18.5757C15.152 18.6327 15.163 18.6892 15.1846 18.7419C15.2062 18.7946 15.2381 18.8425 15.2783 18.8828C15.3185 18.9231 15.3663 18.955 15.4189 18.9767C15.4715 18.9983 15.5279 19.0093 15.5847 19.009Z" fill="#575756" stroke="#575756" stroke-width="0.75" stroke-miterlimit="10"/>
<path d="M5.568 6.51605C5.85272 6.51897 6.13034 6.42706 6.35728 6.25474C6.58422 6.08242 6.74762 5.83946 6.82184 5.564C6.89606 5.28854 6.87689 4.99618 6.76734 4.73282C6.65779 4.46946 6.46406 4.25001 6.21657 4.10893V3.00166H9.79568V1.72589H6.21657V0.738972C6.21657 0.566602 6.14824 0.401292 6.02661 0.279408C5.90498 0.157524 5.74001 0.0890503 5.568 0.0890503C5.39599 0.0890503 5.23103 0.157524 5.1094 0.279408C4.98777 0.401292 4.91944 0.566602 4.91944 0.738972V4.13301C4.72265 4.24287 4.55874 4.40347 4.44471 4.59815C4.33068 4.79284 4.27066 5.01453 4.27087 5.24028C4.27468 5.58163 4.41333 5.90756 4.65645 6.14668C4.89957 6.3858 5.22735 6.51862 5.568 6.51605Z" fill="#575756" stroke="#575756" stroke-width="0.75" stroke-miterlimit="10"/>
<path d="M11.5012 6.51605C11.7859 6.51897 12.0636 6.42706 12.2905 6.25474C12.5174 6.08242 12.6809 5.83946 12.7551 5.564C12.8293 5.28854 12.8101 4.99618 12.7006 4.73282C12.591 4.46946 12.3973 4.25001 12.1498 4.10893V3.00166H15.7049V1.72589H12.1498V0.738972C12.1498 0.566602 12.0815 0.401292 11.9598 0.279408C11.8382 0.157524 11.6732 0.0890503 11.5012 0.0890503C11.3292 0.0890503 11.1643 0.157524 11.0426 0.279408C10.921 0.401292 10.8527 0.566602 10.8527 0.738972V4.13301C10.6559 4.24287 10.492 4.40347 10.3779 4.59815C10.2639 4.79284 10.2039 5.01453 10.2041 5.24028C10.2079 5.58163 10.3466 5.90756 10.5897 6.14668C10.8328 6.3858 11.1606 6.51862 11.5012 6.51605Z" fill="#575756" stroke="#575756" stroke-width="0.75" stroke-miterlimit="10"/>
</g>
<defs>
<clipPath id="clip0_526_675">
<rect width="23" height="23" fill="white"/>
</clipPath>
</defs>
</svg>
