<svg width="23" height="23" viewBox="0 0 23 23" fill="none" xmlns="http://www.w3.org/2000/svg">
<g clip-path="url(#clip0_526_662)">
<path d="M18.7067 -2.36472e-05H4.29334C3.72925 -0.00103366 3.17051 0.109327 2.64916 0.32473C2.12781 0.540132 1.65412 0.856338 1.25524 1.25521C0.856369 1.65409 0.540163 2.12778 0.32476 2.64913C0.109358 3.17047 -0.00100314 3.72922 6.8704e-06 4.29331V18.745C0.00609245 19.8782 0.4616 20.9628 1.26654 21.7605C2.07148 22.5583 3.16006 23.0041 4.29334 23H18.745C19.8783 22.9939 20.9628 22.5384 21.7606 21.7334C22.5583 20.9285 23.0041 19.8399 23 18.7066V4.29331C23.001 3.72922 22.8907 3.17047 22.6753 2.64913C22.4599 2.12778 22.1436 1.65409 21.7448 1.25521C21.3459 0.856338 20.8722 0.540132 20.3509 0.32473C19.8295 0.109327 19.2708 -0.00103366 18.7067 -2.36472e-05ZM21.7733 18.7066C21.7733 19.52 21.4502 20.3 20.8751 20.8751C20.3 21.4502 19.52 21.7733 18.7067 21.7733H4.29334C3.48001 21.7733 2.69999 21.4502 2.12488 20.8751C1.54977 20.3 1.22667 19.52 1.22667 18.7066V4.29331C1.22667 3.47998 1.54977 2.69996 2.12488 2.12485C2.69999 1.54974 3.48001 1.22664 4.29334 1.22664H18.745C19.5583 1.22664 20.3384 1.54974 20.9135 2.12485C21.4886 2.69996 21.8117 3.47998 21.8117 4.29331V18.7066H21.7733Z" fill="#575756"/>
<path d="M18.5533 5.25168H9.77495C9.61229 5.25168 9.45628 5.3163 9.34126 5.43132C9.22624 5.54634 9.16162 5.70235 9.16162 5.86501C9.16162 6.02768 9.22624 6.18368 9.34126 6.2987C9.45628 6.41373 9.61229 6.47835 9.77495 6.47835H18.5533C18.6341 6.47938 18.7143 6.46421 18.7892 6.43376C18.8641 6.4033 18.9321 6.35816 18.9893 6.301C19.0464 6.24384 19.0916 6.17582 19.122 6.10094C19.1525 6.02606 19.1677 5.94584 19.1666 5.86501C19.1627 5.70357 19.0969 5.54982 18.9827 5.43563C18.8685 5.32144 18.7147 5.25557 18.5533 5.25168Z" fill="#575756"/>
<path d="M18.5533 10.81H9.77495C9.61229 10.81 9.45628 10.8746 9.34126 10.9896C9.22624 11.1047 9.16162 11.2607 9.16162 11.4233C9.16162 11.586 9.22624 11.742 9.34126 11.857C9.45628 11.972 9.61229 12.0367 9.77495 12.0367H18.5533C18.6341 12.0377 18.7143 12.0225 18.7892 11.9921C18.8641 11.9616 18.9321 11.9165 18.9893 11.8593C19.0464 11.8022 19.0916 11.7341 19.122 11.6593C19.1525 11.5844 19.1677 11.5042 19.1666 11.4233C19.1627 11.2619 19.0969 11.1081 18.9827 10.9939C18.8685 10.8798 18.7147 10.8139 18.5533 10.81Z" fill="#575756"/>
<path d="M18.5533 16.33H9.77495C9.61229 16.33 9.45628 16.3946 9.34126 16.5096C9.22624 16.6247 9.16162 16.7807 9.16162 16.9433C9.16162 17.106 9.22624 17.262 9.34126 17.377C9.45628 17.492 9.61229 17.5567 9.77495 17.5567H18.5533C18.6341 17.5577 18.7143 17.5425 18.7892 17.5121C18.8641 17.4816 18.9321 17.4365 18.9893 17.3793C19.0464 17.3221 19.0916 17.2541 19.122 17.1792C19.1525 17.1044 19.1677 17.0241 19.1666 16.9433C19.1559 16.7842 19.0878 16.6344 18.975 16.5216C18.8622 16.4088 18.7124 16.3407 18.5533 16.33Z" fill="#575756"/>
<path d="M7.78163 6.01833C7.7008 6.0173 7.62059 6.03246 7.54571 6.06292C7.47083 6.09338 7.40281 6.13852 7.34565 6.19568C7.28849 6.25284 7.24335 6.32086 7.21289 6.39574C7.18243 6.47062 7.16727 6.55084 7.1683 6.63167V6.9H5.05997V5.29C5.05997 5.12733 4.99535 4.97133 4.88033 4.85631C4.7653 4.74128 4.6093 4.67667 4.44663 4.67667C4.28397 4.67667 4.12796 4.74128 4.01294 4.85631C3.89792 4.97133 3.8333 5.12733 3.8333 5.29V7.51333C3.83227 7.59416 3.84743 7.67438 3.87789 7.74926C3.90835 7.82414 3.95349 7.89216 4.01065 7.94932C4.06781 8.00648 4.13583 8.05162 4.21071 8.08208C4.28559 8.11253 4.36581 8.1277 4.44663 8.12667H7.7433C7.82413 8.1277 7.90435 8.11253 7.97923 8.08208C8.0541 8.05162 8.12213 8.00648 8.17929 7.94932C8.23645 7.89216 8.28159 7.82414 8.31205 7.74926C8.3425 7.67438 8.35766 7.59416 8.35663 7.51333V6.63167C8.36561 6.55222 8.35722 6.47177 8.33205 6.39589C8.30687 6.32 8.26551 6.25049 8.21083 6.19216C8.15615 6.13383 8.08945 6.08808 8.01534 6.05807C7.94124 6.02805 7.86149 6.0145 7.78163 6.01833Z" fill="#575756"/>
<path d="M7.78163 9.12334H4.48496C4.40414 9.12231 4.32392 9.13747 4.24904 9.16793C4.17416 9.19839 4.10614 9.24353 4.04898 9.30069C3.99182 9.35785 3.94668 9.42587 3.91622 9.50075C3.88576 9.57563 3.8706 9.65584 3.87163 9.73667V13.0333C3.8706 13.1142 3.88576 13.1944 3.91622 13.2693C3.94668 13.3441 3.99182 13.4122 4.04898 13.4693C4.10614 13.5265 4.17416 13.5716 4.24904 13.6021C4.32392 13.6325 4.40414 13.6477 4.48496 13.6467H7.78163C7.86246 13.6477 7.94268 13.6325 8.01756 13.6021C8.09244 13.5716 8.16046 13.5265 8.21762 13.4693C8.27478 13.4122 8.31992 13.3441 8.35038 13.2693C8.38083 13.1944 8.39599 13.1142 8.39497 13.0333V9.73667C8.39107 9.57523 8.3252 9.42148 8.21101 9.30729C8.09683 9.1931 7.94307 9.12723 7.78163 9.12334ZM7.1683 12.4583H5.05996V10.35H7.1683V12.4583Z" fill="#575756"/>
<path d="M7.78163 14.6817H4.48496C4.40414 14.6806 4.32392 14.6958 4.24904 14.7262C4.17416 14.7567 4.10614 14.8018 4.04898 14.859C3.99182 14.9162 3.94668 14.9842 3.91622 15.0591C3.88576 15.1339 3.8706 15.2142 3.87163 15.295V18.5917C3.8706 18.6725 3.88576 18.7527 3.91622 18.8276C3.94668 18.9025 3.99182 18.9705 4.04898 19.0276C4.10614 19.0848 4.17416 19.1299 4.24904 19.1604C4.32392 19.1909 4.40414 19.206 4.48496 19.205H7.78163C7.86246 19.206 7.94268 19.1909 8.01756 19.1604C8.09244 19.1299 8.16046 19.0848 8.21762 19.0276C8.27478 18.9705 8.31992 18.9025 8.35038 18.8276C8.38083 18.7527 8.39599 18.6725 8.39497 18.5917V15.295C8.39599 15.2142 8.38083 15.1339 8.35038 15.0591C8.31992 14.9842 8.27478 14.9162 8.21762 14.859C8.16046 14.8018 8.09244 14.7567 8.01756 14.7262C7.94268 14.6958 7.86246 14.6806 7.78163 14.6817ZM7.1683 18.0167H5.05996V15.9083H7.1683V18.0167Z" fill="#575756"/>
<path d="M8.05002 1.95499C7.99275 1.92734 7.93017 1.9124 7.86658 1.91121C7.803 1.91002 7.7399 1.9226 7.68164 1.94809C7.62337 1.97359 7.57131 2.01138 7.52903 2.05889C7.48675 2.1064 7.45525 2.16249 7.43669 2.22332L6.51669 4.44666L6.05669 3.41166C6.029 3.35377 5.99018 3.30189 5.94245 3.25901C5.89471 3.21612 5.839 3.18305 5.77849 3.16169C5.71797 3.14034 5.65385 3.13111 5.58977 3.13453C5.52569 3.13796 5.46291 3.15397 5.40502 3.18166C5.34713 3.20934 5.29526 3.24816 5.25237 3.2959C5.20948 3.34363 5.17641 3.39934 5.15505 3.45986C5.1337 3.52037 5.12447 3.5845 5.12789 3.64858C5.13132 3.71266 5.14733 3.77543 5.17502 3.83332L6.09502 5.90332C6.13075 5.98484 6.18992 6.05389 6.26501 6.10167C6.3401 6.14945 6.42771 6.17382 6.51669 6.17166C6.61148 6.17662 6.70509 6.14887 6.78186 6.09304C6.85863 6.03721 6.91387 5.9567 6.93835 5.86499L8.28002 2.60666C8.31541 2.5504 8.33762 2.48686 8.34499 2.42081C8.35236 2.35476 8.34469 2.28789 8.32257 2.22522C8.30045 2.16254 8.26445 2.10568 8.21725 2.05888C8.17005 2.01209 8.11288 1.97657 8.05002 1.95499Z" fill="#575756"/>
</g>
<defs>
<clipPath id="clip0_526_662">
<rect width="23" height="23" fill="white"/>
</clipPath>
</defs>
</svg>
