<svg width="23" height="23" viewBox="0 0 23 23" fill="none" xmlns="http://www.w3.org/2000/svg">
<path d="M8.82061 0C8.59172 0.0226919 8.3778 0.123185 8.21514 0.284424C8.05249 0.445664 7.95111 0.65772 7.92822 0.884615V3.11385C7.22689 3.40623 6.56532 3.78466 5.959 4.24026L4.00465 3.12269C3.79685 3.01592 3.55601 2.99092 3.3304 3.05271C3.10479 3.1145 2.91106 3.25851 2.78802 3.4559L0.110837 8.0441C0.00187761 8.24917 -0.0252644 8.48736 0.0348077 8.71135C0.0948798 8.93534 0.237767 9.12873 0.435073 9.25308L2.38942 10.3677C2.32763 10.7424 2.28987 11.1206 2.27638 11.5C2.28973 11.8765 2.32748 12.2518 2.38942 12.6235L0.435073 13.7381C0.235484 13.8626 0.0910096 14.0576 0.030827 14.2836C-0.0293555 14.5097 -0.000760231 14.7499 0.110837 14.9559L2.78802 19.5441C2.91246 19.74 3.10681 19.8821 3.33231 19.9423C3.55781 20.0024 3.79789 19.976 4.00465 19.8685L5.959 18.7509C6.56532 19.2065 7.22689 19.5849 7.92822 19.8773V22.1154C7.93705 22.3472 8.03391 22.5672 8.19939 22.7312C8.36487 22.8952 8.58676 22.9912 8.82061 23H14.175C14.4088 22.9912 14.6307 22.8952 14.7962 22.7312C14.9617 22.5672 15.0585 22.3472 15.0674 22.1154V19.8773C15.7697 19.5849 16.4322 19.2065 17.0396 18.7509L18.9909 19.8685C19.1977 19.976 19.4378 20.0024 19.6633 19.9423C19.8888 19.8821 20.0831 19.74 20.2076 19.5441L22.8848 14.9559C22.9964 14.7499 23.025 14.5097 22.9648 14.2836C22.9046 14.0576 22.7601 13.8626 22.5605 13.7381L20.6092 12.6235C20.6686 12.2515 20.7054 11.8763 20.7192 11.5C20.7052 11.1207 20.6685 10.7426 20.6092 10.3677L22.5605 9.25308C22.7578 9.12873 22.9007 8.93534 22.9608 8.71135C23.0209 8.48736 22.9937 8.24917 22.8848 8.0441L20.2076 3.4559C20.0845 3.25851 19.8908 3.1145 19.6652 3.05271C19.4396 2.99092 19.1988 3.01592 18.9909 3.12269L17.0396 4.24026C16.4322 3.78462 15.7697 3.40621 15.0674 3.11385V0.884615C15.0585 0.652797 14.9617 0.432844 14.7962 0.268807C14.6307 0.104769 14.4088 0.00875712 14.175 0H8.82061ZM9.71301 1.76923H13.2826V3.67705C13.287 3.85824 13.3461 4.03398 13.4521 4.18164C13.5581 4.3293 13.7063 4.44214 13.8775 4.50564C14.8037 4.82205 15.6586 5.31488 16.3941 5.95641C16.5356 6.07492 16.7101 6.14798 16.8944 6.16589C17.0788 6.18379 17.2643 6.1457 17.4263 6.05666L19.098 5.09833L20.8828 8.15026L19.2111 9.10859C19.0523 9.20357 18.9264 9.34405 18.8499 9.51147C18.7735 9.67889 18.75 9.86538 18.7827 10.0463C18.8762 10.5233 18.923 11.0082 18.9225 11.4941C18.923 11.9771 18.8762 12.459 18.7827 12.9331C18.7533 13.1134 18.7796 13.2984 18.8582 13.4636C18.9367 13.6289 19.0639 13.7667 19.223 13.859L20.8947 14.8173L19.1099 17.8692L17.4382 16.9109C17.2759 16.8227 17.0906 16.785 16.9065 16.8029C16.7223 16.8208 16.5479 16.8934 16.406 17.0112C15.6701 17.6551 14.8142 18.15 13.8864 18.4678C13.7138 18.5319 13.5647 18.6461 13.4585 18.7955C13.3524 18.9449 13.2942 19.1225 13.2915 19.3053V21.2308H9.72193V19.3229C9.71927 19.1402 9.66106 18.9626 9.55492 18.8132C9.44878 18.6638 9.29965 18.5496 9.127 18.4855C8.18855 18.1688 7.32229 17.6718 6.57773 17.0229C6.43585 16.9052 6.26142 16.8326 6.07725 16.8147C5.89309 16.7968 5.70776 16.8345 5.54552 16.9227L3.90054 17.881L2.11575 14.8291L3.78751 13.8708C3.94326 13.7737 4.06579 13.6322 4.13904 13.4649C4.21229 13.2975 4.23285 13.1122 4.19801 12.9331C4.10441 12.4591 4.05759 11.9771 4.0582 11.4941C4.05759 11.0091 4.10442 10.5252 4.19801 10.0492C4.23092 9.8679 4.2076 9.68093 4.13113 9.513C4.05466 9.34507 3.92863 9.20406 3.76966 9.10859L2.11575 8.15026L3.90054 5.09833L5.5723 6.05666C5.73124 6.1399 5.91142 6.17479 6.09028 6.15695C6.26913 6.13912 6.4387 6.06936 6.57773 5.95641C7.31398 5.313 8.16982 4.8182 9.09726 4.49974C9.26851 4.43624 9.41668 4.3234 9.5227 4.17574C9.62872 4.02808 9.68775 3.85235 9.69219 3.67115V1.76923H9.71301ZM11.4978 6.19231C10.0777 6.19231 8.71583 6.75151 7.71169 7.7469C6.70755 8.74228 6.14343 10.0923 6.14343 11.5C6.14343 12.9077 6.70755 14.2577 7.71169 15.2531C8.71583 16.2485 10.0777 16.8077 11.4978 16.8077C12.9179 16.8077 14.2798 16.2485 15.2839 15.2531C16.2881 14.2577 16.8522 12.9077 16.8522 11.5C16.8522 10.0923 16.2881 8.74228 15.2839 7.7469C14.2798 6.75151 12.9179 6.19231 11.4978 6.19231ZM11.4978 7.96154C12.4445 7.96154 13.3524 8.33434 14.0219 8.99793C14.6913 9.66152 15.0674 10.5615 15.0674 11.5C15.0674 12.4385 14.6913 13.3385 14.0219 14.0021C13.3524 14.6657 12.4445 15.0385 11.4978 15.0385C11.029 15.0385 10.5649 14.9469 10.1318 14.7691C9.6987 14.5913 9.30519 14.3306 8.97373 14.0021C8.64226 13.6735 8.37933 13.2834 8.19994 12.8541C8.02055 12.4248 7.92822 11.9647 7.92822 11.5C7.92822 11.0353 8.02055 10.5752 8.19994 10.1459C8.37933 9.71659 8.64226 9.32651 8.97373 8.99793C9.30519 8.66936 9.6987 8.40871 10.1318 8.23089C10.5649 8.05307 11.029 7.96154 11.4978 7.96154Z" fill="#575756"/>
</svg>
