<svg width="23" height="24" viewBox="0 0 23 24" fill="none" xmlns="http://www.w3.org/2000/svg">
<path d="M15.4144 23.0013H19.3409C19.7876 23.0015 20.2161 22.8244 20.5321 22.5087C20.8482 22.1931 21.0259 21.7648 21.0263 21.3181V12.1458L21.77 12.9557C21.8969 13.0881 22.0706 13.1656 22.2539 13.1716C22.4372 13.1775 22.6156 13.1115 22.7509 12.9876C22.8861 12.8637 22.9675 12.6918 22.9776 12.5087C22.9876 12.3255 22.9257 12.1457 22.8048 12.0077L12.0067 0.227626C11.941 0.155889 11.861 0.0986089 11.7719 0.0594227C11.6829 0.0202366 11.5866 0 11.4893 0C11.392 0 11.2957 0.0202366 11.2067 0.0594227C11.1176 0.0986089 11.0377 0.155889 10.9719 0.227626L0.173776 12.0077C0.0529666 12.1457 -0.00902635 12.3255 0.00106393 12.5087C0.0111542 12.6918 0.0925266 12.8637 0.227766 12.9876C0.363005 13.1115 0.541366 13.1775 0.724678 13.1716C0.907989 13.1656 1.08169 13.0881 1.2086 12.9557L1.95232 12.1458V21.3177C1.95267 21.7641 2.13017 22.1921 2.44583 22.5078C2.76149 22.8235 3.18951 23.001 3.63592 23.0013H7.56194C7.7477 23.0007 7.92565 22.9265 8.05679 22.7949C8.18793 22.6634 8.26157 22.4852 8.26157 22.2994V15.4272C8.26273 15.3534 8.2926 15.2829 8.34485 15.2307C8.39709 15.1786 8.4676 15.1488 8.54142 15.1478H14.4318C14.5056 15.1488 14.576 15.1786 14.6282 15.2308C14.6804 15.2829 14.7102 15.3534 14.7112 15.4272V22.2994C14.7117 22.4857 14.7859 22.6642 14.9177 22.7958C15.0496 22.9275 15.2281 23.0015 15.4144 23.0018V23.0013ZM14.4327 13.744H8.54232C8.09603 13.7443 7.66812 13.9218 7.35254 14.2374C7.03697 14.553 6.85952 14.9809 6.85916 15.4272V21.5975H3.63502C3.5612 21.5965 3.4907 21.5667 3.43845 21.5146C3.38621 21.4624 3.35633 21.3919 3.35517 21.3181V10.6147L11.488 1.74164L19.6216 10.6147V21.3181C19.6206 21.3919 19.5908 21.4624 19.5387 21.5145C19.4865 21.5667 19.416 21.5965 19.3422 21.5975H16.1177V15.4272C16.1167 14.9808 15.9389 14.5531 15.6231 14.2376C15.3074 13.9221 14.8795 13.7446 14.4331 13.744H14.4327Z" fill="#DE2525"/>
</svg>
