<svg width="21" height="28" viewBox="0 0 21 28" fill="none" xmlns="http://www.w3.org/2000/svg">
<path fill-rule="evenodd" clip-rule="evenodd" d="M11.4171 0.913172C11.4171 0.670984 11.3209 0.438715 11.1496 0.267462C10.9784 0.096209 10.7461 0 10.5039 0C10.2617 0 10.0295 0.096209 9.85821 0.267462C9.68696 0.438715 9.59075 0.670984 9.59075 0.913172V2.40295C7.76415 2.62653 6.08244 3.5106 4.86267 4.88849C3.64289 6.26639 2.96932 8.0429 2.96894 9.88313V12.4609C2.96633 14.0576 2.50245 15.6196 1.6331 16.9589L0.560778 18.6183C0.219091 19.1456 0.0261996 19.7555 0.00248543 20.3834C-0.0212287 21.0114 0.125115 21.634 0.426053 22.1857C0.726991 22.7373 1.17135 23.1974 1.71217 23.5174C2.253 23.8373 2.87021 24.0052 3.49858 24.0034H7.5035V24.1338C7.5035 24.9296 7.81961 25.6928 8.3823 26.2555C8.94499 26.8181 9.70816 27.1343 10.5039 27.1343C11.2997 27.1343 12.0628 26.8181 12.6255 26.2555C13.1882 25.6928 13.5043 24.9296 13.5043 24.1338V24.0034H17.5093C18.137 24.0038 18.7532 23.8349 19.2929 23.5143C19.8326 23.1938 20.2758 22.7336 20.5758 22.1822C20.8758 21.6308 21.0215 21.0087 20.9974 20.3815C20.9734 19.7542 20.7806 19.1451 20.4392 18.6183L19.3747 16.9589C18.5081 15.6187 18.047 14.0568 18.0467 12.4609V9.88313C18.0461 8.04171 17.3714 6.26421 16.1501 4.88614C14.9287 3.50806 13.2451 2.62476 11.4171 2.40295V0.913172ZM9.32984 24.1338V24.0034H11.678V24.1338C11.678 24.4452 11.5543 24.7439 11.3341 24.964C11.1139 25.1842 10.8153 25.3079 10.5039 25.3079C10.1925 25.3079 9.8939 25.1842 9.67372 24.964C9.45354 24.7439 9.32984 24.4452 9.32984 24.1338ZM17.5093 22.177C17.8084 22.177 18.1021 22.0964 18.3593 21.9436C18.6166 21.7908 18.8278 21.5715 18.971 21.3087C19.1141 21.046 19.1837 20.7495 19.1726 20.4505C19.1615 20.1516 19.07 19.8611 18.9077 19.6097L17.8354 17.9504C16.7784 16.3183 16.2149 14.4158 16.2125 12.4713V9.88313C16.2125 9.13346 16.0649 8.39114 15.778 7.69853C15.4911 7.00593 15.0706 6.37662 14.5405 5.84652C14.0104 5.31643 13.3811 4.89593 12.6885 4.60905C11.9959 4.32216 11.2536 4.1745 10.5039 4.1745C9.75425 4.1745 9.01192 4.32216 8.31932 4.60905C7.62672 4.89593 6.9974 5.31643 6.46731 5.84652C5.93721 6.37662 5.51672 7.00593 5.22983 7.69853C4.94295 8.39114 4.79529 9.13346 4.79529 9.88313V12.4609C4.79291 14.4054 4.22942 16.3078 3.17245 17.9399L2.10013 19.5993C1.93787 19.8507 1.84636 20.1411 1.83523 20.4401C1.8241 20.7391 1.89376 21.0355 2.03688 21.2983C2.18 21.561 2.39128 21.7803 2.64851 21.9331C2.90574 22.0859 3.19939 22.1666 3.49858 22.1666H17.5093V22.177Z" fill="#575756"/>
</svg>
