<svg width="32" height="32" viewBox="0 0 32 32" fill="none" xmlns="http://www.w3.org/2000/svg">
<path d="M15.7836 8.09601C16.8396 8.09601 17.7036 8.672 18.3755 9.53598C18.9515 10.304 19.3355 11.4559 19.3355 12.6079C19.3355 13.8559 18.9515 15.0079 18.3755 15.7758C17.7036 16.6398 16.8396 17.1198 15.7836 17.1198C14.8236 17.1198 13.8636 16.6398 13.1917 15.7758C12.6157 15.0079 12.2317 13.8559 12.2317 12.6079C12.2317 11.4559 12.6157 10.304 13.1917 9.53598C13.8636 8.672 14.8236 8.09601 15.7836 8.09601ZM17.7996 9.91997C17.3196 9.24798 16.5516 8.76799 15.7836 8.76799C15.0156 8.76799 14.2476 9.24798 13.7677 9.91997C13.1917 10.592 12.9037 11.5519 12.9037 12.6079C12.9037 13.7599 13.1917 14.7199 13.7677 15.3919C13.9934 15.7176 14.2947 15.9838 14.6458 16.1676C14.9969 16.3515 15.3873 16.4475 15.7836 16.4475C16.1799 16.4475 16.5703 16.3515 16.9214 16.1676C17.2725 15.9838 17.5738 15.7176 17.7996 15.3919C18.3755 14.7199 18.6635 13.7599 18.6635 12.6079C18.6635 11.5519 18.3755 10.592 17.7996 9.91997Z" fill="#575756" stroke="#575756" stroke-width="0.5" stroke-miterlimit="10"/>
<path d="M13.1916 16.8318C13.2876 16.7358 13.5756 16.8318 13.6716 16.9278C13.7074 17.0078 13.7174 17.0971 13.7002 17.1831C13.683 17.2691 13.6394 17.3476 13.5756 17.4077C13.5756 17.4077 11.7516 18.6557 10.8877 18.8477C10.5997 18.9437 10.2157 19.0397 9.92767 19.3277C9.63968 19.5197 9.44768 19.9037 9.44768 20.3837C9.44768 21.3436 9.44768 21.9196 9.54368 22.2076C11.7516 24.0316 19.8155 24.0316 22.1194 22.2076C22.1194 21.9196 22.2154 21.3436 22.1194 20.3837C22.1194 19.9037 21.9274 19.5197 21.6394 19.3277C21.4474 19.0397 21.0634 18.9437 20.6794 18.8477C19.9114 18.6557 18.0875 17.4077 18.0875 17.4077C17.8955 17.3117 17.7995 17.1197 17.9915 16.9278C18.0516 16.8639 18.1301 16.8203 18.2162 16.8031C18.3022 16.7859 18.3914 16.7959 18.4715 16.8318C18.4715 16.8318 20.1994 17.9837 20.8714 18.1757C21.2554 18.2717 21.7354 18.3677 22.1194 18.7517C22.5994 19.1357 22.8874 19.6157 22.8874 20.3837C22.8874 21.7276 22.7914 22.3996 22.7914 22.3996C22.7914 22.4956 22.7914 22.4956 22.6954 22.5916C21.5434 23.8396 18.4715 24.3196 15.7835 24.3196C12.9036 24.2236 10.0237 23.7436 8.8717 22.5916C8.8717 22.4956 8.7757 22.4956 8.7757 22.3996C8.7757 22.3996 8.6797 21.7276 8.7757 20.3837C8.76589 20.0796 8.82071 19.7769 8.93655 19.4956C9.05239 19.2143 9.2266 18.9607 9.44768 18.7517C9.83167 18.3677 10.3117 18.2717 10.7917 18.1757C11.4636 17.9837 13.1916 16.8318 13.1916 16.8318Z" fill="#575756" stroke="#575756" stroke-width="0.5" stroke-miterlimit="10"/>
<path d="M23.3675 8C24.3275 8 25.1915 8.47999 25.8634 9.24797C26.4928 10.1121 26.8292 11.1549 26.8234 12.2239C26.814 13.3202 26.4799 14.3892 25.8634 15.2958C25.1915 16.0638 24.3275 16.5438 23.3675 16.5438C22.5035 16.5438 21.6395 16.0638 20.9676 15.2958C20.3916 14.5278 20.0076 13.3759 20.0076 12.2239C20.0018 11.1549 20.3382 10.1121 20.9676 9.24797C21.6395 8.47999 22.5035 8 23.3675 8ZM25.2875 9.63196C24.8075 9.05597 24.1355 8.67198 23.3675 8.67198C22.6955 8.67198 22.0235 9.05597 21.5435 9.63196C20.9676 10.3039 20.6796 11.2639 20.6796 12.2239C20.6796 13.2799 20.9676 14.1438 21.5435 14.8158C22.0235 15.4878 22.6955 15.8718 23.3675 15.8718C24.1355 15.8718 24.8075 15.4878 25.2875 14.8158C25.8634 14.1438 26.1514 13.2799 26.1514 12.2239C26.1514 11.2639 25.8634 10.3039 25.2875 9.63196Z" fill="#575756" stroke="#575756" stroke-width="0.5" stroke-miterlimit="10"/>
<path d="M22.6956 22.5917C25.3835 22.6877 28.2634 22.3037 29.4154 21.2477C29.4154 21.0557 29.5114 20.4797 29.4154 19.6157C29.4254 19.2279 29.2882 18.8506 29.0314 18.5598C28.7434 18.2718 28.3594 18.1758 28.0714 18.0798C27.3035 17.9838 25.5755 16.8318 25.5755 16.8318C25.5364 16.8077 25.5026 16.7759 25.4764 16.7382C25.4501 16.7005 25.4319 16.6578 25.4229 16.6127C25.4139 16.5677 25.4143 16.5213 25.424 16.4764C25.4337 16.4315 25.4526 16.3891 25.4795 16.3518C25.5755 16.1598 25.7675 16.1598 25.9595 16.2558C25.9595 16.2558 27.5914 17.3118 28.2634 17.5038C28.6474 17.5998 29.1274 17.6958 29.4154 18.0798C29.7994 18.3678 30.0874 18.8477 30.0874 19.6157C30.1834 20.8637 30.0874 21.4397 30.0874 21.4397C30.0773 21.5125 30.0436 21.5799 29.9914 21.6317C28.8394 22.8796 25.9595 23.3596 23.3676 23.2636H21.8316C22.1421 23.0702 22.4316 22.845 22.6956 22.5917Z" fill="#575756" stroke="#575756" stroke-width="0.5" stroke-miterlimit="10"/>
<path d="M20.8715 16.2558C21.0635 16.1598 21.2555 16.1598 21.3515 16.3518C21.3784 16.3891 21.3973 16.4315 21.407 16.4764C21.4167 16.5213 21.4171 16.5677 21.4081 16.6127C21.3991 16.6578 21.3809 16.7005 21.3546 16.7382C21.3284 16.7759 21.2946 16.8077 21.2555 16.8318C20.7959 17.1525 20.3148 17.4412 19.8155 17.6958C19.6235 17.5038 19.3355 17.4078 19.1436 17.3118C19.7401 16.9946 20.3171 16.642 20.8715 16.2558Z" fill="#575756" stroke="#575756" stroke-width="0.5" stroke-miterlimit="10"/>
<path d="M7.7199 8C8.67988 8 9.54386 8.47999 10.1198 9.24797C10.7492 10.1121 11.0856 11.1549 11.0798 12.2239C11.0704 13.3202 10.7364 14.3892 10.1198 15.2958C9.54386 16.0638 8.67988 16.5438 7.7199 16.5438C6.75993 16.5438 5.89595 16.0638 5.22397 15.2958C4.64798 14.5278 4.26399 13.3759 4.26399 12.2239C4.25823 11.1549 4.59462 10.1121 5.22397 9.24797C5.89595 8.47999 6.75993 8 7.7199 8ZM9.54386 9.63196C9.06387 9.05597 8.39189 8.67198 7.7199 8.67198C6.95192 8.67198 6.27994 9.05597 5.79995 9.63196C5.22397 10.3039 4.93597 11.2639 4.93597 12.2239C4.93597 13.2799 5.22397 14.1438 5.79995 14.8158C6.27994 15.4878 6.95192 15.8718 7.7199 15.8718C8.39189 15.8718 9.06387 15.4878 9.54386 14.8158C10.1198 14.1438 10.4078 13.2799 10.4078 12.2239C10.4078 11.2639 10.1198 10.3039 9.54386 9.63196Z" fill="#575756" stroke="#575756" stroke-width="0.5" stroke-miterlimit="10"/>
<path d="M11.5598 17.7918C10.7918 17.4078 9.83183 16.8318 9.83183 16.8318C9.7927 16.8077 9.75895 16.7759 9.73269 16.7382C9.70643 16.7005 9.68823 16.6578 9.67922 16.6127C9.67021 16.5677 9.67059 16.5213 9.68033 16.4764C9.69007 16.4315 9.70897 16.3891 9.73584 16.3518C9.83183 16.1598 10.0238 16.1598 10.2158 16.2558C10.2158 16.2558 11.5598 17.1198 12.2318 17.4078C12.0398 17.5038 11.7518 17.6958 11.5598 17.7918Z" fill="#575756" stroke="#575756" stroke-width="0.5" stroke-miterlimit="10"/>
<path d="M5.22388 16.2558C5.31988 16.1598 5.51188 16.1598 5.60787 16.3518C5.79987 16.4478 5.70387 16.7358 5.60787 16.8318C5.51188 16.8318 3.78392 17.9838 3.01594 18.0798C2.72795 18.1758 2.34396 18.2717 2.15197 18.5597C1.86398 18.7517 1.67198 19.1357 1.67198 19.6157C1.67198 20.4797 1.67198 21.0557 1.76798 21.2477C3.01594 22.3036 6.08786 22.7836 8.96778 22.5916C9.15978 22.7836 9.44777 23.0716 9.73576 23.1676C9.06378 23.2636 8.2958 23.2636 7.62382 23.2636C4.93589 23.2636 2.24797 22.7836 1.19199 21.6317C1.096 21.6317 1.096 21.5357 1.096 21.4397C1.096 21.4397 1 20.8637 1 19.6157C1 18.8477 1.28799 18.3677 1.67198 18.0798C2.05597 17.6958 2.53596 17.5998 2.91995 17.5038C3.59193 17.3118 5.22388 16.2558 5.22388 16.2558Z" fill="#575756" stroke="#575756" stroke-width="0.5" stroke-miterlimit="10"/>
</svg>
