<svg width="81" height="81" viewBox="0 0 81 81" fill="none" xmlns="http://www.w3.org/2000/svg">
<g filter="url(#filter0_d_526_819)">
<circle cx="40.5" cy="38.5" r="32.5" fill="white"/>
</g>
<path d="M36.5074 23C36.2087 23.0299 35.9297 23.1621 35.7175 23.3743C35.5053 23.5865 35.373 23.8656 35.3431 24.1642V27.098C34.4282 27.4828 33.5651 27.9809 32.7741 28.5805L30.2245 27.1097C29.9534 26.9692 29.6392 26.9363 29.3448 27.0176C29.0505 27.0989 28.7978 27.2884 28.6372 27.5482L25.1446 33.5866C25.0024 33.8565 24.967 34.17 25.0454 34.4648C25.1238 34.7595 25.3102 35.0141 25.5676 35.1777L28.1172 36.6446C28.0366 37.1377 27.9874 37.6355 27.9698 38.1348C27.9872 38.6303 28.0364 39.1242 28.1172 39.6134L25.5676 41.0803C25.3072 41.2442 25.1187 41.5008 25.0402 41.7983C24.9617 42.0958 24.999 42.412 25.1446 42.683L28.6372 48.7214C28.7996 48.9792 29.0531 49.1663 29.3473 49.2454C29.6415 49.3246 29.9547 49.2899 30.2245 49.1483L32.7741 47.6775C33.5651 48.2771 34.4282 48.7751 35.3431 49.1599V52.1054C35.3547 52.4105 35.481 52.7 35.6969 52.9159C35.9128 53.1317 36.2023 53.2581 36.5074 53.2696H43.4927C43.7977 53.2581 44.0872 53.1317 44.3031 52.9159C44.519 52.7 44.6453 52.4105 44.6569 52.1054V49.1599C45.573 48.7752 46.4374 48.2772 47.2298 47.6775L49.7755 49.1483C50.0453 49.2899 50.3585 49.3246 50.6527 49.2454C50.9469 49.1663 51.2004 48.9792 51.3628 48.7214L54.8554 42.683C55.001 42.412 55.0383 42.0958 54.9598 41.7983C54.8813 41.5008 54.6928 41.2442 54.4324 41.0803L51.8867 39.6134C51.9642 39.1239 52.0122 38.6301 52.0302 38.1348C52.012 37.6357 51.9641 37.1381 51.8867 36.6446L54.4324 35.1777C54.6898 35.0141 54.8762 34.7595 54.9546 34.4648C55.033 34.17 54.9976 33.8565 54.8554 33.5866L51.3628 27.5482C51.2022 27.2884 50.9495 27.0989 50.6552 27.0176C50.3608 26.9363 50.0466 26.9692 49.7755 27.1097L47.2298 28.5805C46.4374 27.9808 45.573 27.4828 44.6569 27.098V24.1642C44.6453 23.8591 44.519 23.5697 44.3031 23.3538C44.0872 23.1379 43.7977 23.0115 43.4927 23H36.5074ZM37.6716 25.3284H42.3284V27.8393C42.3342 28.0777 42.4112 28.309 42.5495 28.5033C42.6879 28.6977 42.8812 28.8462 43.1046 28.9297C44.3129 29.3462 45.4282 29.9948 46.3877 30.8391C46.5723 30.995 46.7999 31.0912 47.0404 31.1147C47.2809 31.1383 47.5229 31.0882 47.7343 30.971L49.9152 29.7098L52.2437 33.7263L50.0627 34.9875C49.8556 35.1125 49.6914 35.2974 49.5916 35.5178C49.4918 35.7381 49.4612 35.9835 49.5039 36.2216C49.6258 36.8494 49.6869 37.4875 49.6863 38.1271C49.6869 38.7627 49.6258 39.397 49.5039 40.0208C49.4655 40.2582 49.4998 40.5016 49.6023 40.7191C49.7048 40.9366 49.8707 41.118 50.0782 41.2394L52.2592 42.5006L49.9308 46.5172L47.7498 45.2559C47.5381 45.1398 47.2964 45.0903 47.0561 45.1138C46.8158 45.1374 46.5883 45.2329 46.4032 45.3879C45.4432 46.2354 44.3265 46.8867 43.1162 47.305C42.891 47.3893 42.6964 47.5395 42.558 47.7362C42.4195 47.9328 42.3436 48.1666 42.3401 48.4071V50.9412H37.6832V48.4304C37.6797 48.1899 37.6038 47.9561 37.4653 47.7595C37.3269 47.5628 37.1323 47.4125 36.9071 47.3282C35.6828 46.9114 34.5526 46.2573 33.5813 45.4034C33.3962 45.2484 33.1686 45.1529 32.9284 45.1294C32.6881 45.1058 32.4463 45.1553 32.2347 45.2715L30.0886 46.5327L27.7602 42.5161L29.9412 41.2549C30.1444 41.1271 30.3042 40.9409 30.3998 40.7207C30.4953 40.5005 30.5222 40.2566 30.4767 40.0208C30.3546 39.397 30.2935 38.7627 30.2943 38.1271C30.2935 37.4888 30.3546 36.852 30.4767 36.2255C30.5197 35.9868 30.4892 35.7408 30.3895 35.5198C30.2897 35.2988 30.1253 35.1132 29.9179 34.9875L27.7602 33.7263L30.0886 29.7098L32.2696 30.971C32.477 31.0805 32.712 31.1265 32.9454 31.103C33.1787 31.0795 33.3999 30.9877 33.5813 30.8391C34.5418 29.9923 35.6583 29.3411 36.8683 28.922C37.0917 28.8384 37.285 28.6899 37.4233 28.4956C37.5616 28.3012 37.6386 28.07 37.6444 27.8315V25.3284H37.6716ZM40 31.1495C38.1474 31.1495 36.3706 31.8855 35.0606 33.1955C33.7507 34.5055 33.0147 36.2822 33.0147 38.1348C33.0147 39.9874 33.7507 41.7642 35.0606 43.0742C36.3706 44.3842 38.1474 45.1201 40 45.1201C41.8526 45.1201 43.6294 44.3842 44.9394 43.0742C46.2493 41.7642 46.9853 39.9874 46.9853 38.1348C46.9853 36.2822 46.2493 34.5055 44.9394 33.1955C43.6294 31.8855 41.8526 31.1495 40 31.1495ZM40 33.4779C41.2351 33.4779 42.4196 33.9686 43.2929 34.8419C44.1662 35.7152 44.6569 36.8997 44.6569 38.1348C44.6569 39.3699 44.1662 40.5544 43.2929 41.4277C42.4196 42.301 41.2351 42.7917 40 42.7917C39.3885 42.7917 38.7829 42.6712 38.2179 42.4372C37.6529 42.2032 37.1395 41.8601 36.7071 41.4277C36.2747 40.9953 35.9316 40.4819 35.6976 39.9169C35.4636 39.3519 35.3431 38.7464 35.3431 38.1348C35.3431 37.5233 35.4636 36.9177 35.6976 36.3527C35.9316 35.7877 36.2747 35.2743 36.7071 34.8419C37.1395 34.4095 37.6529 34.0665 38.2179 33.8324C38.7829 33.5984 39.3885 33.4779 40 33.4779Z" fill="#A233DD"/>
<defs>
<filter id="filter0_d_526_819" x="0" y="0" width="81" height="81" filterUnits="userSpaceOnUse" color-interpolation-filters="sRGB">
<feFlood flood-opacity="0" result="BackgroundImageFix"/>
<feColorMatrix in="SourceAlpha" type="matrix" values="0 0 0 0 0 0 0 0 0 0 0 0 0 0 0 0 0 0 127 0" result="hardAlpha"/>
<feMorphology radius="1" operator="dilate" in="SourceAlpha" result="effect1_dropShadow_526_819"/>
<feOffset dy="2"/>
<feGaussianBlur stdDeviation="3.5"/>
<feComposite in2="hardAlpha" operator="out"/>
<feColorMatrix type="matrix" values="0 0 0 0 0 0 0 0 0 0 0 0 0 0 0 0 0 0 0.25 0"/>
<feBlend mode="normal" in2="BackgroundImageFix" result="effect1_dropShadow_526_819"/>
<feBlend mode="normal" in="SourceGraphic" in2="effect1_dropShadow_526_819" result="shape"/>
</filter>
</defs>
</svg>
