<svg width="81" height="81" viewBox="0 0 81 81" fill="none" xmlns="http://www.w3.org/2000/svg">
<g filter="url(#filter0_d_526_829)">
<circle cx="40.5" cy="38.5" r="32.5" fill="white"/>
</g>
<g clip-path="url(#clip0_526_829)">
<path fill-rule="evenodd" clip-rule="evenodd" d="M48.3534 40.4725C48.293 40.4538 48.2369 40.4233 48.1882 40.3829C48.1396 40.3424 48.0994 40.2928 48.07 40.2368C48.0405 40.1809 48.0224 40.1196 48.0166 40.0566C48.0109 39.9937 48.0176 39.9302 48.0364 39.8698C48.0551 39.8094 48.0856 39.7532 48.126 39.7046C48.1664 39.656 48.2161 39.6158 48.272 39.5863C48.328 39.5569 48.3893 39.5388 48.4522 39.533C48.5152 39.5272 48.5787 39.5339 48.6391 39.5527C51.0893 40.3355 53.1364 41.4276 54.565 42.7544C55.9937 44.0813 56.8 45.6274 56.8 47.2752C56.8 49.8037 54.9212 52.0621 51.88 53.6786C45.5431 57.0604 35.2725 57.0604 28.9161 53.6943C25.8787 52.0778 24.0156 49.8193 24.0156 47.2752C24.0156 45.6117 24.8298 44.0617 26.2584 42.7349C27.687 41.408 29.738 40.3003 32.1961 39.5332C32.2562 39.5138 32.3196 39.5065 32.3825 39.5117C32.4455 39.517 32.5068 39.5347 32.5628 39.5638C32.6189 39.593 32.6686 39.6329 32.7091 39.6814C32.7496 39.7299 32.7801 39.7859 32.7988 39.8463C32.8176 39.9067 32.8243 39.9702 32.8185 40.0332C32.8128 40.0961 32.7946 40.1574 32.7652 40.2134C32.7358 40.2693 32.6956 40.319 32.6469 40.3594C32.5983 40.3998 32.5422 40.4303 32.4818 40.449C30.1607 41.1771 28.235 42.2104 26.912 43.4394C25.683 44.5823 24.9785 45.8935 24.9785 47.2752C24.9785 49.4162 26.6615 51.3811 29.3857 52.8254C35.4604 56.0545 45.3709 56.0545 51.4455 52.8254C54.1541 51.3967 55.8371 49.4319 55.8371 47.2752C55.8371 45.8935 55.1365 44.5862 53.9114 43.4433C52.5884 42.2143 50.6705 41.181 48.3534 40.453V40.4725ZM46.0871 23.3524C44.5782 21.8451 42.5327 20.9985 40.4 20.9985C38.2672 20.9985 36.2217 21.8451 34.7128 23.3524C33.2083 24.8626 32.3638 26.9077 32.3644 29.0395C32.3644 31.6385 36.3646 39.0517 39.0183 43.9639C39.5506 44.9463 40.0242 45.827 40.4117 46.5668C40.8031 45.827 41.2728 44.9463 41.8051 43.9639C44.455 39.0517 48.4591 31.6385 48.4591 29.0395C48.4576 27.9821 48.2472 26.9354 47.8402 25.9594C47.4332 24.9835 46.8374 24.0975 46.0871 23.3524ZM37.0026 48.4494C36.8762 48.4443 36.757 48.3897 36.6706 48.2975C36.5842 48.2052 36.5375 48.0826 36.5407 47.9562C36.5407 47.8286 36.5914 47.7061 36.6817 47.6158C36.772 47.5255 36.8944 47.4748 37.0221 47.4748H39.7894C39.171 46.2693 38.028 44.1792 37.2335 42.6996C34.6502 42.9775 31.6911 43.6821 29.7967 44.9855C26.8338 47.0051 28.2624 49.1735 31.6089 50.5513C36.4507 52.5475 44.3728 52.5475 49.2223 50.5513C51.3359 49.6784 52.6471 48.5238 52.6471 47.2909C52.6471 46.2575 51.7156 45.2751 50.1617 44.4649C48.5021 43.6116 46.2085 42.9697 43.586 42.6996C42.8032 44.1792 41.629 46.2693 41.0301 47.4748H43.817C43.944 47.4748 44.0658 47.525 44.156 47.6144C44.2462 47.7039 44.2974 47.8253 44.2984 47.9523C44.3 48.0184 44.2882 48.0841 44.2635 48.1454C44.2389 48.2067 44.202 48.2623 44.155 48.3089C44.1081 48.3554 44.0522 48.3919 43.9907 48.416C43.9292 48.4402 43.8634 48.4516 43.7974 48.4494H37.0026ZM40.4 22.8748C41.1367 22.8748 41.8662 23.0201 42.5467 23.3022C43.2273 23.5844 43.8455 23.998 44.3661 24.5193C44.8866 25.0406 45.2993 25.6594 45.5805 26.3403C45.8618 27.0212 46.006 27.7509 46.0049 28.4876C46.0039 29.9735 45.4129 31.3981 44.3619 32.4484C43.3109 33.4987 41.8858 34.0887 40.4 34.0887C39.6644 34.0887 38.9361 33.9438 38.2565 33.6623C37.577 33.3808 36.9595 32.9683 36.4394 32.4482C35.389 31.3978 34.7989 29.9731 34.7989 28.4876C34.7963 27.7503 34.9393 27.0196 35.2196 26.3376C35.4999 25.6556 35.912 25.0355 36.4323 24.513C36.9526 23.9906 37.5709 23.5759 38.2517 23.2927C38.9326 23.0096 39.6626 22.8636 40.4 22.8631V22.8748Z" fill="#DF0909"/>
</g>
<defs>
<filter id="filter0_d_526_829" x="0" y="0" width="81" height="81" filterUnits="userSpaceOnUse" color-interpolation-filters="sRGB">
<feFlood flood-opacity="0" result="BackgroundImageFix"/>
<feColorMatrix in="SourceAlpha" type="matrix" values="0 0 0 0 0 0 0 0 0 0 0 0 0 0 0 0 0 0 127 0" result="hardAlpha"/>
<feMorphology radius="1" operator="dilate" in="SourceAlpha" result="effect1_dropShadow_526_829"/>
<feOffset dy="2"/>
<feGaussianBlur stdDeviation="3.5"/>
<feComposite in2="hardAlpha" operator="out"/>
<feColorMatrix type="matrix" values="0 0 0 0 0 0 0 0 0 0 0 0 0 0 0 0 0 0 0.25 0"/>
<feBlend mode="normal" in2="BackgroundImageFix" result="effect1_dropShadow_526_829"/>
<feBlend mode="normal" in="SourceGraphic" in2="effect1_dropShadow_526_829" result="shape"/>
</filter>
<clipPath id="clip0_526_829">
<rect width="32.8" height="35.2267" fill="white" transform="translate(24 21)"/>
</clipPath>
</defs>
</svg>
